<?xml version="1.0" standalone="no"?>
<!DOCTYPE svg PUBLIC "-//W3C//DTD SVG 1.1//EN" "http://www.w3.org/Graphics/SVG/1.1/DTD/svg11.dtd" >
<svg xmlns="http://www.w3.org/2000/svg" xmlns:xlink="http://www.w3.org/1999/xlink" version="1.1">
<metadata>
Created by FontForge 20170924 at Mon Nov 14 15:30:16 2022
 By www
Copyright (c) 2019 by Fontfabric. All rights reserved.
</metadata>
<defs>
<font id="NexaText-Trial-Regular" horiz-adv-x="314" >
  <font-face 
    font-family="Nexa Text-Trial"
    font-weight="400"
    font-stretch="normal"
    units-per-em="1000"
    panose-1="0 0 5 0 0 0 0 0 0 0"
    ascent="800"
    descent="-200"
    x-height="494"
    cap-height="700"
    bbox="-82 -246 1054 715"
    underline-thickness="50"
    underline-position="-100"
    unicode-range="U+0020-2157"
  />
    <missing-glyph />
    <glyph glyph-name="space" unicode=" " horiz-adv-x="252" 
 />
    <glyph glyph-name="A" unicode="A" horiz-adv-x="764" 
d="M750 0h-106l-70 154h-386l-69 -154h-105l314 700h108zM381 603q-21 -51 -56 -131l-98 -230h308l-98 232l-12 28q-35 80 -42 101h-2z" />
    <glyph glyph-name="Aacute" unicode="&#xc1;" 
d="M125 691h-22v-84h22v30h86v24h-86v30zM103 591v-23h66l-66 -47v-22h108v23h-68l68 50v19h-108zM197.5 381.5q16.5 16.5 16.5 41.5t-16.5 41.5t-40.5 16.5t-40.5 -16.5t-16.5 -41.5t16.5 -41.5t40.5 -16.5t40.5 16.5zM182 447.5q10 -9.5 10 -24.5q0 -14 -10 -24t-25 -10
t-24.5 10t-9.5 24q0 15 9.5 24.5t24.5 9.5t25 -9.5zM125 313v42h-22v-65h108v23h-41v38h-22v-38h-23zM190 242v-42h-87v-24h108v66h-21zM191 129l20 8v26l-108 -44v-23l108 -42v25l-20 7v43zM170 94l-39 14l39 14v-28zM103 16v24h108v-24h-108zM211 -26v26l-41 -24
q-10 20 -31 20q-16 0 -26 -10.5t-10 -27.5v-44h108v23h-37v16zM124 -44q0 7 4 11.5t10 4.5q7 0 11 -4.5t4 -11.5v-19h-29v19zM103 -102h22v-30h86v-24h-86v-30h-22v84z" />
    <glyph glyph-name="Acircumflex" unicode="&#xc2;" 
d="M125 691h-22v-84h22v30h86v24h-86v30zM103 591v-23h66l-66 -47v-22h108v23h-68l68 50v19h-108zM197.5 381.5q16.5 16.5 16.5 41.5t-16.5 41.5t-40.5 16.5t-40.5 -16.5t-16.5 -41.5t16.5 -41.5t40.5 -16.5t40.5 16.5zM182 447.5q10 -9.5 10 -24.5q0 -14 -10 -24t-25 -10
t-24.5 10t-9.5 24q0 15 9.5 24.5t24.5 9.5t25 -9.5zM125 313v42h-22v-65h108v23h-41v38h-22v-38h-23zM190 242v-42h-87v-24h108v66h-21zM191 129l20 8v26l-108 -44v-23l108 -42v25l-20 7v43zM170 94l-39 14l39 14v-28zM103 16v24h108v-24h-108zM211 -26v26l-41 -24
q-10 20 -31 20q-16 0 -26 -10.5t-10 -27.5v-44h108v23h-37v16zM124 -44q0 7 4 11.5t10 4.5q7 0 11 -4.5t4 -11.5v-19h-29v19zM103 -102h22v-30h86v-24h-86v-30h-22v84z" />
    <glyph glyph-name="Adieresis" unicode="&#xc4;" 
d="M125 691h-22v-84h22v30h86v24h-86v30zM103 591v-23h66l-66 -47v-22h108v23h-68l68 50v19h-108zM197.5 381.5q16.5 16.5 16.5 41.5t-16.5 41.5t-40.5 16.5t-40.5 -16.5t-16.5 -41.5t16.5 -41.5t40.5 -16.5t40.5 16.5zM182 447.5q10 -9.5 10 -24.5q0 -14 -10 -24t-25 -10
t-24.5 10t-9.5 24q0 15 9.5 24.5t24.5 9.5t25 -9.5zM125 313v42h-22v-65h108v23h-41v38h-22v-38h-23zM190 242v-42h-87v-24h108v66h-21zM191 129l20 8v26l-108 -44v-23l108 -42v25l-20 7v43zM170 94l-39 14l39 14v-28zM103 16v24h108v-24h-108zM211 -26v26l-41 -24
q-10 20 -31 20q-16 0 -26 -10.5t-10 -27.5v-44h108v23h-37v16zM124 -44q0 7 4 11.5t10 4.5q7 0 11 -4.5t4 -11.5v-19h-29v19zM103 -102h22v-30h86v-24h-86v-30h-22v84z" />
    <glyph glyph-name="Agrave" unicode="&#xc0;" 
d="M125 691h-22v-84h22v30h86v24h-86v30zM103 591v-23h66l-66 -47v-22h108v23h-68l68 50v19h-108zM197.5 381.5q16.5 16.5 16.5 41.5t-16.5 41.5t-40.5 16.5t-40.5 -16.5t-16.5 -41.5t16.5 -41.5t40.5 -16.5t40.5 16.5zM182 447.5q10 -9.5 10 -24.5q0 -14 -10 -24t-25 -10
t-24.5 10t-9.5 24q0 15 9.5 24.5t24.5 9.5t25 -9.5zM125 313v42h-22v-65h108v23h-41v38h-22v-38h-23zM190 242v-42h-87v-24h108v66h-21zM191 129l20 8v26l-108 -44v-23l108 -42v25l-20 7v43zM170 94l-39 14l39 14v-28zM103 16v24h108v-24h-108zM211 -26v26l-41 -24
q-10 20 -31 20q-16 0 -26 -10.5t-10 -27.5v-44h108v23h-37v16zM124 -44q0 7 4 11.5t10 4.5q7 0 11 -4.5t4 -11.5v-19h-29v19zM103 -102h22v-30h86v-24h-86v-30h-22v84z" />
    <glyph glyph-name="Aring" unicode="&#xc5;" 
d="M125 691h-22v-84h22v30h86v24h-86v30zM103 591v-23h66l-66 -47v-22h108v23h-68l68 50v19h-108zM197.5 381.5q16.5 16.5 16.5 41.5t-16.5 41.5t-40.5 16.5t-40.5 -16.5t-16.5 -41.5t16.5 -41.5t40.5 -16.5t40.5 16.5zM182 447.5q10 -9.5 10 -24.5q0 -14 -10 -24t-25 -10
t-24.5 10t-9.5 24q0 15 9.5 24.5t24.5 9.5t25 -9.5zM125 313v42h-22v-65h108v23h-41v38h-22v-38h-23zM190 242v-42h-87v-24h108v66h-21zM191 129l20 8v26l-108 -44v-23l108 -42v25l-20 7v43zM170 94l-39 14l39 14v-28zM103 16v24h108v-24h-108zM211 -26v26l-41 -24
q-10 20 -31 20q-16 0 -26 -10.5t-10 -27.5v-44h108v23h-37v16zM124 -44q0 7 4 11.5t10 4.5q7 0 11 -4.5t4 -11.5v-19h-29v19zM103 -102h22v-30h86v-24h-86v-30h-22v84z" />
    <glyph glyph-name="Atilde" unicode="&#xc3;" 
d="M125 691h-22v-84h22v30h86v24h-86v30zM103 591v-23h66l-66 -47v-22h108v23h-68l68 50v19h-108zM197.5 381.5q16.5 16.5 16.5 41.5t-16.5 41.5t-40.5 16.5t-40.5 -16.5t-16.5 -41.5t16.5 -41.5t40.5 -16.5t40.5 16.5zM182 447.5q10 -9.5 10 -24.5q0 -14 -10 -24t-25 -10
t-24.5 10t-9.5 24q0 15 9.5 24.5t24.5 9.5t25 -9.5zM125 313v42h-22v-65h108v23h-41v38h-22v-38h-23zM190 242v-42h-87v-24h108v66h-21zM191 129l20 8v26l-108 -44v-23l108 -42v25l-20 7v43zM170 94l-39 14l39 14v-28zM103 16v24h108v-24h-108zM211 -26v26l-41 -24
q-10 20 -31 20q-16 0 -26 -10.5t-10 -27.5v-44h108v23h-37v16zM124 -44q0 7 4 11.5t10 4.5q7 0 11 -4.5t4 -11.5v-19h-29v19zM103 -102h22v-30h86v-24h-86v-30h-22v84z" />
    <glyph glyph-name="AE" unicode="&#xc6;" 
d="M125 691h-22v-84h22v30h86v24h-86v30zM103 591v-23h66l-66 -47v-22h108v23h-68l68 50v19h-108zM197.5 381.5q16.5 16.5 16.5 41.5t-16.5 41.5t-40.5 16.5t-40.5 -16.5t-16.5 -41.5t16.5 -41.5t40.5 -16.5t40.5 16.5zM182 447.5q10 -9.5 10 -24.5q0 -14 -10 -24t-25 -10
t-24.5 10t-9.5 24q0 15 9.5 24.5t24.5 9.5t25 -9.5zM125 313v42h-22v-65h108v23h-41v38h-22v-38h-23zM190 242v-42h-87v-24h108v66h-21zM191 129l20 8v26l-108 -44v-23l108 -42v25l-20 7v43zM170 94l-39 14l39 14v-28zM103 16v24h108v-24h-108zM211 -26v26l-41 -24
q-10 20 -31 20q-16 0 -26 -10.5t-10 -27.5v-44h108v23h-37v16zM124 -44q0 7 4 11.5t10 4.5q7 0 11 -4.5t4 -11.5v-19h-29v19zM103 -102h22v-30h86v-24h-86v-30h-22v84z" />
    <glyph glyph-name="B" unicode="B" horiz-adv-x="695" 
d="M524 363q53 -18 86 -63.5t33 -104.5q0 -95 -60.5 -145t-175.5 -50h-309v700h309q100 0 157 -50t57 -137q0 -49 -25.5 -88t-71.5 -59v-3zM194 613v-211h210q57 0 88 27.5t31 76.5q0 50 -30.5 78.5t-84.5 28.5h-214zM417 89q61 0 94.5 30.5t33.5 84.5q0 53 -34.5 83
t-97.5 30h-219v-228h223z" />
    <glyph glyph-name="C" unicode="C" horiz-adv-x="711" 
d="M227 32q-83 46 -129.5 128.5t-46.5 187.5q0 106 46.5 189t130 130t189.5 47q73 0 137 -26t115 -74l-57 -73q-86 80 -196 80q-78 0 -138 -34t-93.5 -95t-33.5 -140q0 -80 34 -142t94.5 -96.5t138.5 -34.5q116 0 199 77l58 -73q-100 -97 -259 -97q-106 0 -189 46z" />
    <glyph glyph-name="Ccedilla" unicode="&#xc7;" 
d="M125 691h-22v-84h22v30h86v24h-86v30zM103 591v-23h66l-66 -47v-22h108v23h-68l68 50v19h-108zM197.5 381.5q16.5 16.5 16.5 41.5t-16.5 41.5t-40.5 16.5t-40.5 -16.5t-16.5 -41.5t16.5 -41.5t40.5 -16.5t40.5 16.5zM182 447.5q10 -9.5 10 -24.5q0 -14 -10 -24t-25 -10
t-24.5 10t-9.5 24q0 15 9.5 24.5t24.5 9.5t25 -9.5zM125 313v42h-22v-65h108v23h-41v38h-22v-38h-23zM190 242v-42h-87v-24h108v66h-21zM191 129l20 8v26l-108 -44v-23l108 -42v25l-20 7v43zM170 94l-39 14l39 14v-28zM103 16v24h108v-24h-108zM211 -26v26l-41 -24
q-10 20 -31 20q-16 0 -26 -10.5t-10 -27.5v-44h108v23h-37v16zM124 -44q0 7 4 11.5t10 4.5q7 0 11 -4.5t4 -11.5v-19h-29v19zM103 -102h22v-30h86v-24h-86v-30h-22v84z" />
    <glyph glyph-name="D" unicode="D" horiz-adv-x="758" 
d="M357 700q103 0 182.5 -43.5t123.5 -122.5t44 -182q0 -104 -44.5 -184t-124.5 -124t-183 -44h-257v700h259zM357 91q74 0 131.5 32.5t89 90.5t31.5 134q0 77 -32 136t-89.5 92t-132.5 33h-161v-518h163z" />
    <glyph glyph-name="Eth" unicode="&#xd0;" 
d="M125 691h-22v-84h22v30h86v24h-86v30zM103 591v-23h66l-66 -47v-22h108v23h-68l68 50v19h-108zM197.5 381.5q16.5 16.5 16.5 41.5t-16.5 41.5t-40.5 16.5t-40.5 -16.5t-16.5 -41.5t16.5 -41.5t40.5 -16.5t40.5 16.5zM182 447.5q10 -9.5 10 -24.5q0 -14 -10 -24t-25 -10
t-24.5 10t-9.5 24q0 15 9.5 24.5t24.5 9.5t25 -9.5zM125 313v42h-22v-65h108v23h-41v38h-22v-38h-23zM190 242v-42h-87v-24h108v66h-21zM191 129l20 8v26l-108 -44v-23l108 -42v25l-20 7v43zM170 94l-39 14l39 14v-28zM103 16v24h108v-24h-108zM211 -26v26l-41 -24
q-10 20 -31 20q-16 0 -26 -10.5t-10 -27.5v-44h108v23h-37v16zM124 -44q0 7 4 11.5t10 4.5q7 0 11 -4.5t4 -11.5v-19h-29v19zM103 -102h22v-30h86v-24h-86v-30h-22v84z" />
    <glyph glyph-name="E" unicode="E" horiz-adv-x="641" 
d="M194 310v-219h385v-91h-481v700h475v-90h-379v-210h361v-90h-361z" />
    <glyph glyph-name="Eacute" unicode="&#xc9;" 
d="M125 691h-22v-84h22v30h86v24h-86v30zM103 591v-23h66l-66 -47v-22h108v23h-68l68 50v19h-108zM197.5 381.5q16.5 16.5 16.5 41.5t-16.5 41.5t-40.5 16.5t-40.5 -16.5t-16.5 -41.5t16.5 -41.5t40.5 -16.5t40.5 16.5zM182 447.5q10 -9.5 10 -24.5q0 -14 -10 -24t-25 -10
t-24.5 10t-9.5 24q0 15 9.5 24.5t24.5 9.5t25 -9.5zM125 313v42h-22v-65h108v23h-41v38h-22v-38h-23zM190 242v-42h-87v-24h108v66h-21zM191 129l20 8v26l-108 -44v-23l108 -42v25l-20 7v43zM170 94l-39 14l39 14v-28zM103 16v24h108v-24h-108zM211 -26v26l-41 -24
q-10 20 -31 20q-16 0 -26 -10.5t-10 -27.5v-44h108v23h-37v16zM124 -44q0 7 4 11.5t10 4.5q7 0 11 -4.5t4 -11.5v-19h-29v19zM103 -102h22v-30h86v-24h-86v-30h-22v84z" />
    <glyph glyph-name="Ecircumflex" unicode="&#xca;" 
d="M125 691h-22v-84h22v30h86v24h-86v30zM103 591v-23h66l-66 -47v-22h108v23h-68l68 50v19h-108zM197.5 381.5q16.5 16.5 16.5 41.5t-16.5 41.5t-40.5 16.5t-40.5 -16.5t-16.5 -41.5t16.5 -41.5t40.5 -16.5t40.5 16.5zM182 447.5q10 -9.5 10 -24.5q0 -14 -10 -24t-25 -10
t-24.5 10t-9.5 24q0 15 9.5 24.5t24.5 9.5t25 -9.5zM125 313v42h-22v-65h108v23h-41v38h-22v-38h-23zM190 242v-42h-87v-24h108v66h-21zM191 129l20 8v26l-108 -44v-23l108 -42v25l-20 7v43zM170 94l-39 14l39 14v-28zM103 16v24h108v-24h-108zM211 -26v26l-41 -24
q-10 20 -31 20q-16 0 -26 -10.5t-10 -27.5v-44h108v23h-37v16zM124 -44q0 7 4 11.5t10 4.5q7 0 11 -4.5t4 -11.5v-19h-29v19zM103 -102h22v-30h86v-24h-86v-30h-22v84z" />
    <glyph glyph-name="Edieresis" unicode="&#xcb;" 
d="M125 691h-22v-84h22v30h86v24h-86v30zM103 591v-23h66l-66 -47v-22h108v23h-68l68 50v19h-108zM197.5 381.5q16.5 16.5 16.5 41.5t-16.5 41.5t-40.5 16.5t-40.5 -16.5t-16.5 -41.5t16.5 -41.5t40.5 -16.5t40.5 16.5zM182 447.5q10 -9.5 10 -24.5q0 -14 -10 -24t-25 -10
t-24.5 10t-9.5 24q0 15 9.5 24.5t24.5 9.5t25 -9.5zM125 313v42h-22v-65h108v23h-41v38h-22v-38h-23zM190 242v-42h-87v-24h108v66h-21zM191 129l20 8v26l-108 -44v-23l108 -42v25l-20 7v43zM170 94l-39 14l39 14v-28zM103 16v24h108v-24h-108zM211 -26v26l-41 -24
q-10 20 -31 20q-16 0 -26 -10.5t-10 -27.5v-44h108v23h-37v16zM124 -44q0 7 4 11.5t10 4.5q7 0 11 -4.5t4 -11.5v-19h-29v19zM103 -102h22v-30h86v-24h-86v-30h-22v84z" />
    <glyph glyph-name="Egrave" unicode="&#xc8;" 
d="M125 691h-22v-84h22v30h86v24h-86v30zM103 591v-23h66l-66 -47v-22h108v23h-68l68 50v19h-108zM197.5 381.5q16.5 16.5 16.5 41.5t-16.5 41.5t-40.5 16.5t-40.5 -16.5t-16.5 -41.5t16.5 -41.5t40.5 -16.5t40.5 16.5zM182 447.5q10 -9.5 10 -24.5q0 -14 -10 -24t-25 -10
t-24.5 10t-9.5 24q0 15 9.5 24.5t24.5 9.5t25 -9.5zM125 313v42h-22v-65h108v23h-41v38h-22v-38h-23zM190 242v-42h-87v-24h108v66h-21zM191 129l20 8v26l-108 -44v-23l108 -42v25l-20 7v43zM170 94l-39 14l39 14v-28zM103 16v24h108v-24h-108zM211 -26v26l-41 -24
q-10 20 -31 20q-16 0 -26 -10.5t-10 -27.5v-44h108v23h-37v16zM124 -44q0 7 4 11.5t10 4.5q7 0 11 -4.5t4 -11.5v-19h-29v19zM103 -102h22v-30h86v-24h-86v-30h-22v84z" />
    <glyph glyph-name="F" unicode="F" horiz-adv-x="601" 
d="M552 700v-90h-358v-239h339v-89h-339v-282h-96v700h454z" />
    <glyph glyph-name="G" unicode="G" horiz-adv-x="750" 
d="M391 389h298v-288q-59 -59 -127.5 -87t-152.5 -28q-107 0 -188 45.5t-125.5 128t-44.5 188.5q0 107 47 190.5t130.5 130t189.5 46.5q72 0 136.5 -25.5t114.5 -69.5l-56 -71q-41 36 -90.5 55t-103.5 19q-81 0 -142 -35t-94.5 -96.5t-33.5 -139.5q0 -82 32 -144.5
t91.5 -96.5t139.5 -34q105 0 185 62v163h-206v87z" />
    <glyph glyph-name="H" unicode="H" horiz-adv-x="781" 
d="M587 401v299h97v-700h-97v312h-393v-312h-96v700h96v-299h393z" />
    <glyph glyph-name="I" unicode="I" horiz-adv-x="292" 
d="M194 0h-96v700h96v-700z" />
    <glyph glyph-name="Iacute" unicode="&#xcd;" 
d="M125 691h-22v-84h22v30h86v24h-86v30zM103 591v-23h66l-66 -47v-22h108v23h-68l68 50v19h-108zM197.5 381.5q16.5 16.5 16.5 41.5t-16.5 41.5t-40.5 16.5t-40.5 -16.5t-16.5 -41.5t16.5 -41.5t40.5 -16.5t40.5 16.5zM182 447.5q10 -9.5 10 -24.5q0 -14 -10 -24t-25 -10
t-24.5 10t-9.5 24q0 15 9.5 24.5t24.5 9.5t25 -9.5zM125 313v42h-22v-65h108v23h-41v38h-22v-38h-23zM190 242v-42h-87v-24h108v66h-21zM191 129l20 8v26l-108 -44v-23l108 -42v25l-20 7v43zM170 94l-39 14l39 14v-28zM103 16v24h108v-24h-108zM211 -26v26l-41 -24
q-10 20 -31 20q-16 0 -26 -10.5t-10 -27.5v-44h108v23h-37v16zM124 -44q0 7 4 11.5t10 4.5q7 0 11 -4.5t4 -11.5v-19h-29v19zM103 -102h22v-30h86v-24h-86v-30h-22v84z" />
    <glyph glyph-name="Icircumflex" unicode="&#xce;" 
d="M125 691h-22v-84h22v30h86v24h-86v30zM103 591v-23h66l-66 -47v-22h108v23h-68l68 50v19h-108zM197.5 381.5q16.5 16.5 16.5 41.5t-16.5 41.5t-40.5 16.5t-40.5 -16.5t-16.5 -41.5t16.5 -41.5t40.5 -16.5t40.5 16.5zM182 447.5q10 -9.5 10 -24.5q0 -14 -10 -24t-25 -10
t-24.5 10t-9.5 24q0 15 9.5 24.5t24.5 9.5t25 -9.5zM125 313v42h-22v-65h108v23h-41v38h-22v-38h-23zM190 242v-42h-87v-24h108v66h-21zM191 129l20 8v26l-108 -44v-23l108 -42v25l-20 7v43zM170 94l-39 14l39 14v-28zM103 16v24h108v-24h-108zM211 -26v26l-41 -24
q-10 20 -31 20q-16 0 -26 -10.5t-10 -27.5v-44h108v23h-37v16zM124 -44q0 7 4 11.5t10 4.5q7 0 11 -4.5t4 -11.5v-19h-29v19zM103 -102h22v-30h86v-24h-86v-30h-22v84z" />
    <glyph glyph-name="Idieresis" unicode="&#xcf;" 
d="M125 691h-22v-84h22v30h86v24h-86v30zM103 591v-23h66l-66 -47v-22h108v23h-68l68 50v19h-108zM197.5 381.5q16.5 16.5 16.5 41.5t-16.5 41.5t-40.5 16.5t-40.5 -16.5t-16.5 -41.5t16.5 -41.5t40.5 -16.5t40.5 16.5zM182 447.5q10 -9.5 10 -24.5q0 -14 -10 -24t-25 -10
t-24.5 10t-9.5 24q0 15 9.5 24.5t24.5 9.5t25 -9.5zM125 313v42h-22v-65h108v23h-41v38h-22v-38h-23zM190 242v-42h-87v-24h108v66h-21zM191 129l20 8v26l-108 -44v-23l108 -42v25l-20 7v43zM170 94l-39 14l39 14v-28zM103 16v24h108v-24h-108zM211 -26v26l-41 -24
q-10 20 -31 20q-16 0 -26 -10.5t-10 -27.5v-44h108v23h-37v16zM124 -44q0 7 4 11.5t10 4.5q7 0 11 -4.5t4 -11.5v-19h-29v19zM103 -102h22v-30h86v-24h-86v-30h-22v84z" />
    <glyph glyph-name="Igrave" unicode="&#xcc;" 
d="M125 691h-22v-84h22v30h86v24h-86v30zM103 591v-23h66l-66 -47v-22h108v23h-68l68 50v19h-108zM197.5 381.5q16.5 16.5 16.5 41.5t-16.5 41.5t-40.5 16.5t-40.5 -16.5t-16.5 -41.5t16.5 -41.5t40.5 -16.5t40.5 16.5zM182 447.5q10 -9.5 10 -24.5q0 -14 -10 -24t-25 -10
t-24.5 10t-9.5 24q0 15 9.5 24.5t24.5 9.5t25 -9.5zM125 313v42h-22v-65h108v23h-41v38h-22v-38h-23zM190 242v-42h-87v-24h108v66h-21zM191 129l20 8v26l-108 -44v-23l108 -42v25l-20 7v43zM170 94l-39 14l39 14v-28zM103 16v24h108v-24h-108zM211 -26v26l-41 -24
q-10 20 -31 20q-16 0 -26 -10.5t-10 -27.5v-44h108v23h-37v16zM124 -44q0 7 4 11.5t10 4.5q7 0 11 -4.5t4 -11.5v-19h-29v19zM103 -102h22v-30h86v-24h-86v-30h-22v84z" />
    <glyph glyph-name="J" unicode="J" horiz-adv-x="484" 
d="M-4 32l42 76q59 -32 119 -32q72 0 106.5 41.5t34.5 127.5v455h97v-459q0 -125 -60.5 -189.5t-172.5 -64.5q-89 0 -166 45z" />
    <glyph glyph-name="K" unicode="K" horiz-adv-x="641" 
d="M290 362l360 -362h-132l-265 267l-21 21l-37 40l-2 -1q1 -16 1 -58v-269h-96v700h96v-251q0 -42 -1 -58l2 -1l64 69l232 241h127z" />
    <glyph glyph-name="L" unicode="L" horiz-adv-x="590" 
d="M194 700v-610h377v-90h-473v700h96z" />
    <glyph glyph-name="M" unicode="M" horiz-adv-x="925" 
d="M731 700h97v-700h-97v473q0 26 2 58l-2 1q-25 -40 -47 -72l-203 -306h-38l-202 305q-26 41 -47 68l-2 -1q2 -32 2 -58v-468h-96v700h96l269 -408z" />
    <glyph glyph-name="N" unicode="N" horiz-adv-x="780" 
d="M98 0v700h94l343 -470q41 -56 51 -72l2 1q-2 32 -2 58v483h97v-700h-94l-344 470q-41 56 -51 72l-2 -1q2 -32 2 -58v-483h-96z" />
    <glyph glyph-name="Ntilde" unicode="&#xd1;" 
d="M125 691h-22v-84h22v30h86v24h-86v30zM103 591v-23h66l-66 -47v-22h108v23h-68l68 50v19h-108zM197.5 381.5q16.5 16.5 16.5 41.5t-16.5 41.5t-40.5 16.5t-40.5 -16.5t-16.5 -41.5t16.5 -41.5t40.5 -16.5t40.5 16.5zM182 447.5q10 -9.5 10 -24.5q0 -14 -10 -24t-25 -10
t-24.5 10t-9.5 24q0 15 9.5 24.5t24.5 9.5t25 -9.5zM125 313v42h-22v-65h108v23h-41v38h-22v-38h-23zM190 242v-42h-87v-24h108v66h-21zM191 129l20 8v26l-108 -44v-23l108 -42v25l-20 7v43zM170 94l-39 14l39 14v-28zM103 16v24h108v-24h-108zM211 -26v26l-41 -24
q-10 20 -31 20q-16 0 -26 -10.5t-10 -27.5v-44h108v23h-37v16zM124 -44q0 7 4 11.5t10 4.5q7 0 11 -4.5t4 -11.5v-19h-29v19zM103 -102h22v-30h86v-24h-86v-30h-22v84z" />
    <glyph glyph-name="O" unicode="O" horiz-adv-x="816" 
d="M221.5 31q-80.5 46 -125.5 128.5t-45 188.5q0 108 45 191.5t127 129.5t188 46q103 0 183.5 -46t125.5 -128.5t45 -188.5q0 -108 -45 -191.5t-127 -129.5t-188 -46q-103 0 -183.5 46zM540.5 110.5q58.5 34.5 91.5 96.5t33 141q0 82 -32 144.5t-90.5 97t-133.5 34.5
t-134 -34.5t-91.5 -96t-32.5 -141.5q0 -81 32.5 -143.5t90.5 -97.5t133 -35t133.5 34.5z" />
    <glyph glyph-name="Oacute" unicode="&#xd3;" 
d="M125 691h-22v-84h22v30h86v24h-86v30zM103 591v-23h66l-66 -47v-22h108v23h-68l68 50v19h-108zM197.5 381.5q16.5 16.5 16.5 41.5t-16.5 41.5t-40.5 16.5t-40.5 -16.5t-16.5 -41.5t16.5 -41.5t40.5 -16.5t40.5 16.5zM182 447.5q10 -9.5 10 -24.5q0 -14 -10 -24t-25 -10
t-24.5 10t-9.5 24q0 15 9.5 24.5t24.5 9.5t25 -9.5zM125 313v42h-22v-65h108v23h-41v38h-22v-38h-23zM190 242v-42h-87v-24h108v66h-21zM191 129l20 8v26l-108 -44v-23l108 -42v25l-20 7v43zM170 94l-39 14l39 14v-28zM103 16v24h108v-24h-108zM211 -26v26l-41 -24
q-10 20 -31 20q-16 0 -26 -10.5t-10 -27.5v-44h108v23h-37v16zM124 -44q0 7 4 11.5t10 4.5q7 0 11 -4.5t4 -11.5v-19h-29v19zM103 -102h22v-30h86v-24h-86v-30h-22v84z" />
    <glyph glyph-name="Ocircumflex" unicode="&#xd4;" 
d="M125 691h-22v-84h22v30h86v24h-86v30zM103 591v-23h66l-66 -47v-22h108v23h-68l68 50v19h-108zM197.5 381.5q16.5 16.5 16.5 41.5t-16.5 41.5t-40.5 16.5t-40.5 -16.5t-16.5 -41.5t16.5 -41.5t40.5 -16.5t40.5 16.5zM182 447.5q10 -9.5 10 -24.5q0 -14 -10 -24t-25 -10
t-24.5 10t-9.5 24q0 15 9.5 24.5t24.5 9.5t25 -9.5zM125 313v42h-22v-65h108v23h-41v38h-22v-38h-23zM190 242v-42h-87v-24h108v66h-21zM191 129l20 8v26l-108 -44v-23l108 -42v25l-20 7v43zM170 94l-39 14l39 14v-28zM103 16v24h108v-24h-108zM211 -26v26l-41 -24
q-10 20 -31 20q-16 0 -26 -10.5t-10 -27.5v-44h108v23h-37v16zM124 -44q0 7 4 11.5t10 4.5q7 0 11 -4.5t4 -11.5v-19h-29v19zM103 -102h22v-30h86v-24h-86v-30h-22v84z" />
    <glyph glyph-name="Odieresis" unicode="&#xd6;" 
d="M125 691h-22v-84h22v30h86v24h-86v30zM103 591v-23h66l-66 -47v-22h108v23h-68l68 50v19h-108zM197.5 381.5q16.5 16.5 16.5 41.5t-16.5 41.5t-40.5 16.5t-40.5 -16.5t-16.5 -41.5t16.5 -41.5t40.5 -16.5t40.5 16.5zM182 447.5q10 -9.5 10 -24.5q0 -14 -10 -24t-25 -10
t-24.5 10t-9.5 24q0 15 9.5 24.5t24.5 9.5t25 -9.5zM125 313v42h-22v-65h108v23h-41v38h-22v-38h-23zM190 242v-42h-87v-24h108v66h-21zM191 129l20 8v26l-108 -44v-23l108 -42v25l-20 7v43zM170 94l-39 14l39 14v-28zM103 16v24h108v-24h-108zM211 -26v26l-41 -24
q-10 20 -31 20q-16 0 -26 -10.5t-10 -27.5v-44h108v23h-37v16zM124 -44q0 7 4 11.5t10 4.5q7 0 11 -4.5t4 -11.5v-19h-29v19zM103 -102h22v-30h86v-24h-86v-30h-22v84z" />
    <glyph glyph-name="Ograve" unicode="&#xd2;" 
d="M125 691h-22v-84h22v30h86v24h-86v30zM103 591v-23h66l-66 -47v-22h108v23h-68l68 50v19h-108zM197.5 381.5q16.5 16.5 16.5 41.5t-16.5 41.5t-40.5 16.5t-40.5 -16.5t-16.5 -41.5t16.5 -41.5t40.5 -16.5t40.5 16.5zM182 447.5q10 -9.5 10 -24.5q0 -14 -10 -24t-25 -10
t-24.5 10t-9.5 24q0 15 9.5 24.5t24.5 9.5t25 -9.5zM125 313v42h-22v-65h108v23h-41v38h-22v-38h-23zM190 242v-42h-87v-24h108v66h-21zM191 129l20 8v26l-108 -44v-23l108 -42v25l-20 7v43zM170 94l-39 14l39 14v-28zM103 16v24h108v-24h-108zM211 -26v26l-41 -24
q-10 20 -31 20q-16 0 -26 -10.5t-10 -27.5v-44h108v23h-37v16zM124 -44q0 7 4 11.5t10 4.5q7 0 11 -4.5t4 -11.5v-19h-29v19zM103 -102h22v-30h86v-24h-86v-30h-22v84z" />
    <glyph glyph-name="Oslash" unicode="&#xd8;" 
d="M125 691h-22v-84h22v30h86v24h-86v30zM103 591v-23h66l-66 -47v-22h108v23h-68l68 50v19h-108zM197.5 381.5q16.5 16.5 16.5 41.5t-16.5 41.5t-40.5 16.5t-40.5 -16.5t-16.5 -41.5t16.5 -41.5t40.5 -16.5t40.5 16.5zM182 447.5q10 -9.5 10 -24.5q0 -14 -10 -24t-25 -10
t-24.5 10t-9.5 24q0 15 9.5 24.5t24.5 9.5t25 -9.5zM125 313v42h-22v-65h108v23h-41v38h-22v-38h-23zM190 242v-42h-87v-24h108v66h-21zM191 129l20 8v26l-108 -44v-23l108 -42v25l-20 7v43zM170 94l-39 14l39 14v-28zM103 16v24h108v-24h-108zM211 -26v26l-41 -24
q-10 20 -31 20q-16 0 -26 -10.5t-10 -27.5v-44h108v23h-37v16zM124 -44q0 7 4 11.5t10 4.5q7 0 11 -4.5t4 -11.5v-19h-29v19zM103 -102h22v-30h86v-24h-86v-30h-22v84z" />
    <glyph glyph-name="Otilde" unicode="&#xd5;" 
d="M125 691h-22v-84h22v30h86v24h-86v30zM103 591v-23h66l-66 -47v-22h108v23h-68l68 50v19h-108zM197.5 381.5q16.5 16.5 16.5 41.5t-16.5 41.5t-40.5 16.5t-40.5 -16.5t-16.5 -41.5t16.5 -41.5t40.5 -16.5t40.5 16.5zM182 447.5q10 -9.5 10 -24.5q0 -14 -10 -24t-25 -10
t-24.5 10t-9.5 24q0 15 9.5 24.5t24.5 9.5t25 -9.5zM125 313v42h-22v-65h108v23h-41v38h-22v-38h-23zM190 242v-42h-87v-24h108v66h-21zM191 129l20 8v26l-108 -44v-23l108 -42v25l-20 7v43zM170 94l-39 14l39 14v-28zM103 16v24h108v-24h-108zM211 -26v26l-41 -24
q-10 20 -31 20q-16 0 -26 -10.5t-10 -27.5v-44h108v23h-37v16zM124 -44q0 7 4 11.5t10 4.5q7 0 11 -4.5t4 -11.5v-19h-29v19zM103 -102h22v-30h86v-24h-86v-30h-22v84z" />
    <glyph glyph-name="OE" unicode="&#x152;" 
d="M125 691h-22v-84h22v30h86v24h-86v30zM103 591v-23h66l-66 -47v-22h108v23h-68l68 50v19h-108zM197.5 381.5q16.5 16.5 16.5 41.5t-16.5 41.5t-40.5 16.5t-40.5 -16.5t-16.5 -41.5t16.5 -41.5t40.5 -16.5t40.5 16.5zM182 447.5q10 -9.5 10 -24.5q0 -14 -10 -24t-25 -10
t-24.5 10t-9.5 24q0 15 9.5 24.5t24.5 9.5t25 -9.5zM125 313v42h-22v-65h108v23h-41v38h-22v-38h-23zM190 242v-42h-87v-24h108v66h-21zM191 129l20 8v26l-108 -44v-23l108 -42v25l-20 7v43zM170 94l-39 14l39 14v-28zM103 16v24h108v-24h-108zM211 -26v26l-41 -24
q-10 20 -31 20q-16 0 -26 -10.5t-10 -27.5v-44h108v23h-37v16zM124 -44q0 7 4 11.5t10 4.5q7 0 11 -4.5t4 -11.5v-19h-29v19zM103 -102h22v-30h86v-24h-86v-30h-22v84z" />
    <glyph glyph-name="P" unicode="P" horiz-adv-x="665" 
d="M388 700q81 0 136.5 -33t82.5 -87.5t27 -118.5q0 -65 -27 -120t-82.5 -88.5t-136.5 -33.5h-194v-219h-96v700h290zM383 309q77 0 115 43t38 106q0 65 -38 108.5t-115 43.5h-189v-301h189z" />
    <glyph glyph-name="Thorn" unicode="&#xde;" 
d="M125 691h-22v-84h22v30h86v24h-86v30zM103 591v-23h66l-66 -47v-22h108v23h-68l68 50v19h-108zM197.5 381.5q16.5 16.5 16.5 41.5t-16.5 41.5t-40.5 16.5t-40.5 -16.5t-16.5 -41.5t16.5 -41.5t40.5 -16.5t40.5 16.5zM182 447.5q10 -9.5 10 -24.5q0 -14 -10 -24t-25 -10
t-24.5 10t-9.5 24q0 15 9.5 24.5t24.5 9.5t25 -9.5zM125 313v42h-22v-65h108v23h-41v38h-22v-38h-23zM190 242v-42h-87v-24h108v66h-21zM191 129l20 8v26l-108 -44v-23l108 -42v25l-20 7v43zM170 94l-39 14l39 14v-28zM103 16v24h108v-24h-108zM211 -26v26l-41 -24
q-10 20 -31 20q-16 0 -26 -10.5t-10 -27.5v-44h108v23h-37v16zM124 -44q0 7 4 11.5t10 4.5q7 0 11 -4.5t4 -11.5v-19h-29v19zM103 -102h22v-30h86v-24h-86v-30h-22v84z" />
    <glyph glyph-name="Q" unicode="Q" horiz-adv-x="816" 
d="M789 16l-66 -68l-101 101q-92 -64 -217 -64q-103 0 -183.5 46t-125.5 128.5t-45 188.5q0 108 45 191.5t127 129.5t188 46q103 0 183.5 -46t125.5 -128.5t45 -188.5q0 -70 -19.5 -130.5t-56.5 -107.5zM183.5 208.5q32.5 -62.5 90.5 -97.5t133 -35q84 0 148 44l-129 128
l61 62l130 -128q48 70 48 166q0 82 -32 144.5t-90.5 97t-133.5 34.5t-134 -34.5t-91.5 -96t-32.5 -141.5q0 -81 32.5 -143.5z" />
    <glyph glyph-name="R" unicode="R" horiz-adv-x="683" 
d="M526 0l-216 246h-114v-246h-98v700h279q72 0 127 -28t85 -79t30 -119q0 -89 -51.5 -149.5t-139.5 -74.5l221 -250h-123zM482 572.5q-39 36.5 -108 36.5h-178v-273h179q68 0 107 36t39 99q0 65 -39 101.5z" />
    <glyph glyph-name="S" unicode="S" horiz-adv-x="628" 
d="M171.5 11.5q-69.5 25.5 -118.5 67.5l48 73q46 -34 102.5 -54.5t117.5 -20.5q73 0 120.5 33t47.5 89q0 49 -39.5 78.5t-134.5 44.5q-125 20 -183.5 65.5t-58.5 125.5q0 59 33 105t90 71t128 25q68 0 125 -17.5t108 -57.5l-53 -70q-36 28 -82.5 42t-94.5 14
q-68 0 -112.5 -29t-44.5 -78q0 -44 39 -68.5t133 -41.5q131 -24 187.5 -73t56.5 -134q0 -66 -33.5 -114.5t-94 -74.5t-138.5 -26q-79 0 -148.5 25.5z" />
    <glyph glyph-name="Scaron" unicode="&#x160;" 
d="M125 691h-22v-84h22v30h86v24h-86v30zM103 591v-23h66l-66 -47v-22h108v23h-68l68 50v19h-108zM197.5 381.5q16.5 16.5 16.5 41.5t-16.5 41.5t-40.5 16.5t-40.5 -16.5t-16.5 -41.5t16.5 -41.5t40.5 -16.5t40.5 16.5zM182 447.5q10 -9.5 10 -24.5q0 -14 -10 -24t-25 -10
t-24.5 10t-9.5 24q0 15 9.5 24.5t24.5 9.5t25 -9.5zM125 313v42h-22v-65h108v23h-41v38h-22v-38h-23zM190 242v-42h-87v-24h108v66h-21zM191 129l20 8v26l-108 -44v-23l108 -42v25l-20 7v43zM170 94l-39 14l39 14v-28zM103 16v24h108v-24h-108zM211 -26v26l-41 -24
q-10 20 -31 20q-16 0 -26 -10.5t-10 -27.5v-44h108v23h-37v16zM124 -44q0 7 4 11.5t10 4.5q7 0 11 -4.5t4 -11.5v-19h-29v19zM103 -102h22v-30h86v-24h-86v-30h-22v84z" />
    <glyph glyph-name="Scircumflex" unicode="&#x15c;" 
d="M125 691h-22v-84h22v30h86v24h-86v30zM103 591v-23h66l-66 -47v-22h108v23h-68l68 50v19h-108zM197.5 381.5q16.5 16.5 16.5 41.5t-16.5 41.5t-40.5 16.5t-40.5 -16.5t-16.5 -41.5t16.5 -41.5t40.5 -16.5t40.5 16.5zM182 447.5q10 -9.5 10 -24.5q0 -14 -10 -24t-25 -10
t-24.5 10t-9.5 24q0 15 9.5 24.5t24.5 9.5t25 -9.5zM125 313v42h-22v-65h108v23h-41v38h-22v-38h-23zM190 242v-42h-87v-24h108v66h-21zM191 129l20 8v26l-108 -44v-23l108 -42v25l-20 7v43zM170 94l-39 14l39 14v-28zM103 16v24h108v-24h-108zM211 -26v26l-41 -24
q-10 20 -31 20q-16 0 -26 -10.5t-10 -27.5v-44h108v23h-37v16zM124 -44q0 7 4 11.5t10 4.5q7 0 11 -4.5t4 -11.5v-19h-29v19zM103 -102h22v-30h86v-24h-86v-30h-22v84z" />
    <glyph glyph-name="T" unicode="T" horiz-adv-x="596" 
d="M17 700h562v-88h-233v-612h-96v612h-233v88z" />
    <glyph glyph-name="U" unicode="U" horiz-adv-x="751" 
d="M225 23q-65 37 -100.5 104.5t-35.5 156.5v416h96v-415q0 -96 52 -152.5t139 -56.5q86 0 138 56.5t52 152.5v415h96v-416q0 -89 -35.5 -156.5t-100.5 -104.5t-150 -37q-86 0 -151 37z" />
    <glyph glyph-name="Uacute" unicode="&#xda;" 
d="M125 691h-22v-84h22v30h86v24h-86v30zM103 591v-23h66l-66 -47v-22h108v23h-68l68 50v19h-108zM197.5 381.5q16.5 16.5 16.5 41.5t-16.5 41.5t-40.5 16.5t-40.5 -16.5t-16.5 -41.5t16.5 -41.5t40.5 -16.5t40.5 16.5zM182 447.5q10 -9.5 10 -24.5q0 -14 -10 -24t-25 -10
t-24.5 10t-9.5 24q0 15 9.5 24.5t24.5 9.5t25 -9.5zM125 313v42h-22v-65h108v23h-41v38h-22v-38h-23zM190 242v-42h-87v-24h108v66h-21zM191 129l20 8v26l-108 -44v-23l108 -42v25l-20 7v43zM170 94l-39 14l39 14v-28zM103 16v24h108v-24h-108zM211 -26v26l-41 -24
q-10 20 -31 20q-16 0 -26 -10.5t-10 -27.5v-44h108v23h-37v16zM124 -44q0 7 4 11.5t10 4.5q7 0 11 -4.5t4 -11.5v-19h-29v19zM103 -102h22v-30h86v-24h-86v-30h-22v84z" />
    <glyph glyph-name="Ucircumflex" unicode="&#xdb;" 
d="M125 691h-22v-84h22v30h86v24h-86v30zM103 591v-23h66l-66 -47v-22h108v23h-68l68 50v19h-108zM197.5 381.5q16.5 16.5 16.5 41.5t-16.5 41.5t-40.5 16.5t-40.5 -16.5t-16.5 -41.5t16.5 -41.5t40.5 -16.5t40.5 16.5zM182 447.5q10 -9.5 10 -24.5q0 -14 -10 -24t-25 -10
t-24.5 10t-9.5 24q0 15 9.5 24.5t24.5 9.5t25 -9.5zM125 313v42h-22v-65h108v23h-41v38h-22v-38h-23zM190 242v-42h-87v-24h108v66h-21zM191 129l20 8v26l-108 -44v-23l108 -42v25l-20 7v43zM170 94l-39 14l39 14v-28zM103 16v24h108v-24h-108zM211 -26v26l-41 -24
q-10 20 -31 20q-16 0 -26 -10.5t-10 -27.5v-44h108v23h-37v16zM124 -44q0 7 4 11.5t10 4.5q7 0 11 -4.5t4 -11.5v-19h-29v19zM103 -102h22v-30h86v-24h-86v-30h-22v84z" />
    <glyph glyph-name="Udieresis" unicode="&#xdc;" 
d="M125 691h-22v-84h22v30h86v24h-86v30zM103 591v-23h66l-66 -47v-22h108v23h-68l68 50v19h-108zM197.5 381.5q16.5 16.5 16.5 41.5t-16.5 41.5t-40.5 16.5t-40.5 -16.5t-16.5 -41.5t16.5 -41.5t40.5 -16.5t40.5 16.5zM182 447.5q10 -9.5 10 -24.5q0 -14 -10 -24t-25 -10
t-24.5 10t-9.5 24q0 15 9.5 24.5t24.5 9.5t25 -9.5zM125 313v42h-22v-65h108v23h-41v38h-22v-38h-23zM190 242v-42h-87v-24h108v66h-21zM191 129l20 8v26l-108 -44v-23l108 -42v25l-20 7v43zM170 94l-39 14l39 14v-28zM103 16v24h108v-24h-108zM211 -26v26l-41 -24
q-10 20 -31 20q-16 0 -26 -10.5t-10 -27.5v-44h108v23h-37v16zM124 -44q0 7 4 11.5t10 4.5q7 0 11 -4.5t4 -11.5v-19h-29v19zM103 -102h22v-30h86v-24h-86v-30h-22v84z" />
    <glyph glyph-name="Ugrave" unicode="&#xd9;" 
d="M125 691h-22v-84h22v30h86v24h-86v30zM103 591v-23h66l-66 -47v-22h108v23h-68l68 50v19h-108zM197.5 381.5q16.5 16.5 16.5 41.5t-16.5 41.5t-40.5 16.5t-40.5 -16.5t-16.5 -41.5t16.5 -41.5t40.5 -16.5t40.5 16.5zM182 447.5q10 -9.5 10 -24.5q0 -14 -10 -24t-25 -10
t-24.5 10t-9.5 24q0 15 9.5 24.5t24.5 9.5t25 -9.5zM125 313v42h-22v-65h108v23h-41v38h-22v-38h-23zM190 242v-42h-87v-24h108v66h-21zM191 129l20 8v26l-108 -44v-23l108 -42v25l-20 7v43zM170 94l-39 14l39 14v-28zM103 16v24h108v-24h-108zM211 -26v26l-41 -24
q-10 20 -31 20q-16 0 -26 -10.5t-10 -27.5v-44h108v23h-37v16zM124 -44q0 7 4 11.5t10 4.5q7 0 11 -4.5t4 -11.5v-19h-29v19zM103 -102h22v-30h86v-24h-86v-30h-22v84z" />
    <glyph glyph-name="V" unicode="V" horiz-adv-x="705" 
d="M301 0l-283 700h105l147 -368q40 -102 83 -219h2q25 74 82 219l147 368h103l-283 -700h-103z" />
    <glyph glyph-name="W" unicode="W" horiz-adv-x="1075" 
d="M258 0l-236 700h103l117 -368q26 -78 65 -208h2q15 57 62 205l121 371h93l121 -371q34 -104 64 -205h1q34 117 63 207l118 369h102l-234 -700h-102l-100 311q-37 120 -79 247h-2q-41 -120 -80 -246l-100 -312h-99z" />
    <glyph glyph-name="X" unicode="X" horiz-adv-x="630" 
d="M378 356l244 -356h-113l-124 186q-43 64 -69 109h-2q-16 -33 -69 -111l-124 -184h-112l244 356l-233 344h111l139 -211q27 -40 45 -73h2q8 15 46 74l139 210h109z" />
    <glyph glyph-name="Y" unicode="Y" horiz-adv-x="668" 
d="M652 700l-273 -411v-289h-96v287l-267 413h115l152 -249q35 -57 48 -82h2q16 31 49 83l153 248h117z" />
    <glyph glyph-name="Yacute" unicode="&#xdd;" 
d="M125 691h-22v-84h22v30h86v24h-86v30zM103 591v-23h66l-66 -47v-22h108v23h-68l68 50v19h-108zM197.5 381.5q16.5 16.5 16.5 41.5t-16.5 41.5t-40.5 16.5t-40.5 -16.5t-16.5 -41.5t16.5 -41.5t40.5 -16.5t40.5 16.5zM182 447.5q10 -9.5 10 -24.5q0 -14 -10 -24t-25 -10
t-24.5 10t-9.5 24q0 15 9.5 24.5t24.5 9.5t25 -9.5zM125 313v42h-22v-65h108v23h-41v38h-22v-38h-23zM190 242v-42h-87v-24h108v66h-21zM191 129l20 8v26l-108 -44v-23l108 -42v25l-20 7v43zM170 94l-39 14l39 14v-28zM103 16v24h108v-24h-108zM211 -26v26l-41 -24
q-10 20 -31 20q-16 0 -26 -10.5t-10 -27.5v-44h108v23h-37v16zM124 -44q0 7 4 11.5t10 4.5q7 0 11 -4.5t4 -11.5v-19h-29v19zM103 -102h22v-30h86v-24h-86v-30h-22v84z" />
    <glyph glyph-name="Ydieresis" unicode="&#x178;" 
d="M125 691h-22v-84h22v30h86v24h-86v30zM103 591v-23h66l-66 -47v-22h108v23h-68l68 50v19h-108zM197.5 381.5q16.5 16.5 16.5 41.5t-16.5 41.5t-40.5 16.5t-40.5 -16.5t-16.5 -41.5t16.5 -41.5t40.5 -16.5t40.5 16.5zM182 447.5q10 -9.5 10 -24.5q0 -14 -10 -24t-25 -10
t-24.5 10t-9.5 24q0 15 9.5 24.5t24.5 9.5t25 -9.5zM125 313v42h-22v-65h108v23h-41v38h-22v-38h-23zM190 242v-42h-87v-24h108v66h-21zM191 129l20 8v26l-108 -44v-23l108 -42v25l-20 7v43zM170 94l-39 14l39 14v-28zM103 16v24h108v-24h-108zM211 -26v26l-41 -24
q-10 20 -31 20q-16 0 -26 -10.5t-10 -27.5v-44h108v23h-37v16zM124 -44q0 7 4 11.5t10 4.5q7 0 11 -4.5t4 -11.5v-19h-29v19zM103 -102h22v-30h86v-24h-86v-30h-22v84z" />
    <glyph glyph-name="Z" unicode="Z" horiz-adv-x="602" 
d="M27 0v56l369 516q16 22 29 38l-1 2q-14 -2 -43 -2h-321v90h499v-54l-370 -517q-16 -23 -30 -37l1 -2q15 1 43 1h356v-91h-532z" />
    <glyph glyph-name="Zcaron" unicode="&#x17d;" 
d="M125 691h-22v-84h22v30h86v24h-86v30zM103 591v-23h66l-66 -47v-22h108v23h-68l68 50v19h-108zM197.5 381.5q16.5 16.5 16.5 41.5t-16.5 41.5t-40.5 16.5t-40.5 -16.5t-16.5 -41.5t16.5 -41.5t40.5 -16.5t40.5 16.5zM182 447.5q10 -9.5 10 -24.5q0 -14 -10 -24t-25 -10
t-24.5 10t-9.5 24q0 15 9.5 24.5t24.5 9.5t25 -9.5zM125 313v42h-22v-65h108v23h-41v38h-22v-38h-23zM190 242v-42h-87v-24h108v66h-21zM191 129l20 8v26l-108 -44v-23l108 -42v25l-20 7v43zM170 94l-39 14l39 14v-28zM103 16v24h108v-24h-108zM211 -26v26l-41 -24
q-10 20 -31 20q-16 0 -26 -10.5t-10 -27.5v-44h108v23h-37v16zM124 -44q0 7 4 11.5t10 4.5q7 0 11 -4.5t4 -11.5v-19h-29v19zM103 -102h22v-30h86v-24h-86v-30h-22v84z" />
    <glyph glyph-name="a" unicode="a" horiz-adv-x="559" 
d="M424.5 458q64.5 -45 64.5 -147v-311h-81q0 58 2 87h-2q-25 -46 -75.5 -70.5t-107.5 -24.5q-80 0 -135 40.5t-55 118.5q0 53 27 90t72.5 55.5t98.5 18.5q98 0 163 -38v34q0 58 -42 84.5t-109 26.5q-35 0 -75 -9t-74 -23l-24 75q88 38 178 38q110 0 174.5 -45zM348 104
q45 34 51 94q-29 18 -71 29.5t-78 11.5q-53 0 -87.5 -21.5t-34.5 -62.5t34 -63t80 -22q61 0 106 34z" />
    <glyph glyph-name="aacute" unicode="&#xe1;" 
d="M125 691h-22v-84h22v30h86v24h-86v30zM103 591v-23h66l-66 -47v-22h108v23h-68l68 50v19h-108zM197.5 381.5q16.5 16.5 16.5 41.5t-16.5 41.5t-40.5 16.5t-40.5 -16.5t-16.5 -41.5t16.5 -41.5t40.5 -16.5t40.5 16.5zM182 447.5q10 -9.5 10 -24.5q0 -14 -10 -24t-25 -10
t-24.5 10t-9.5 24q0 15 9.5 24.5t24.5 9.5t25 -9.5zM125 313v42h-22v-65h108v23h-41v38h-22v-38h-23zM190 242v-42h-87v-24h108v66h-21zM191 129l20 8v26l-108 -44v-23l108 -42v25l-20 7v43zM170 94l-39 14l39 14v-28zM103 16v24h108v-24h-108zM211 -26v26l-41 -24
q-10 20 -31 20q-16 0 -26 -10.5t-10 -27.5v-44h108v23h-37v16zM124 -44q0 7 4 11.5t10 4.5q7 0 11 -4.5t4 -11.5v-19h-29v19zM103 -102h22v-30h86v-24h-86v-30h-22v84z" />
    <glyph glyph-name="acircumflex" unicode="&#xe2;" 
d="M125 691h-22v-84h22v30h86v24h-86v30zM103 591v-23h66l-66 -47v-22h108v23h-68l68 50v19h-108zM197.5 381.5q16.5 16.5 16.5 41.5t-16.5 41.5t-40.5 16.5t-40.5 -16.5t-16.5 -41.5t16.5 -41.5t40.5 -16.5t40.5 16.5zM182 447.5q10 -9.5 10 -24.5q0 -14 -10 -24t-25 -10
t-24.5 10t-9.5 24q0 15 9.5 24.5t24.5 9.5t25 -9.5zM125 313v42h-22v-65h108v23h-41v38h-22v-38h-23zM190 242v-42h-87v-24h108v66h-21zM191 129l20 8v26l-108 -44v-23l108 -42v25l-20 7v43zM170 94l-39 14l39 14v-28zM103 16v24h108v-24h-108zM211 -26v26l-41 -24
q-10 20 -31 20q-16 0 -26 -10.5t-10 -27.5v-44h108v23h-37v16zM124 -44q0 7 4 11.5t10 4.5q7 0 11 -4.5t4 -11.5v-19h-29v19zM103 -102h22v-30h86v-24h-86v-30h-22v84z" />
    <glyph glyph-name="adieresis" unicode="&#xe4;" 
d="M125 691h-22v-84h22v30h86v24h-86v30zM103 591v-23h66l-66 -47v-22h108v23h-68l68 50v19h-108zM197.5 381.5q16.5 16.5 16.5 41.5t-16.5 41.5t-40.5 16.5t-40.5 -16.5t-16.5 -41.5t16.5 -41.5t40.5 -16.5t40.5 16.5zM182 447.5q10 -9.5 10 -24.5q0 -14 -10 -24t-25 -10
t-24.5 10t-9.5 24q0 15 9.5 24.5t24.5 9.5t25 -9.5zM125 313v42h-22v-65h108v23h-41v38h-22v-38h-23zM190 242v-42h-87v-24h108v66h-21zM191 129l20 8v26l-108 -44v-23l108 -42v25l-20 7v43zM170 94l-39 14l39 14v-28zM103 16v24h108v-24h-108zM211 -26v26l-41 -24
q-10 20 -31 20q-16 0 -26 -10.5t-10 -27.5v-44h108v23h-37v16zM124 -44q0 7 4 11.5t10 4.5q7 0 11 -4.5t4 -11.5v-19h-29v19zM103 -102h22v-30h86v-24h-86v-30h-22v84z" />
    <glyph glyph-name="agrave" unicode="&#xe0;" 
d="M125 691h-22v-84h22v30h86v24h-86v30zM103 591v-23h66l-66 -47v-22h108v23h-68l68 50v19h-108zM197.5 381.5q16.5 16.5 16.5 41.5t-16.5 41.5t-40.5 16.5t-40.5 -16.5t-16.5 -41.5t16.5 -41.5t40.5 -16.5t40.5 16.5zM182 447.5q10 -9.5 10 -24.5q0 -14 -10 -24t-25 -10
t-24.5 10t-9.5 24q0 15 9.5 24.5t24.5 9.5t25 -9.5zM125 313v42h-22v-65h108v23h-41v38h-22v-38h-23zM190 242v-42h-87v-24h108v66h-21zM191 129l20 8v26l-108 -44v-23l108 -42v25l-20 7v43zM170 94l-39 14l39 14v-28zM103 16v24h108v-24h-108zM211 -26v26l-41 -24
q-10 20 -31 20q-16 0 -26 -10.5t-10 -27.5v-44h108v23h-37v16zM124 -44q0 7 4 11.5t10 4.5q7 0 11 -4.5t4 -11.5v-19h-29v19zM103 -102h22v-30h86v-24h-86v-30h-22v84z" />
    <glyph glyph-name="aring" unicode="&#xe5;" 
d="M125 691h-22v-84h22v30h86v24h-86v30zM103 591v-23h66l-66 -47v-22h108v23h-68l68 50v19h-108zM197.5 381.5q16.5 16.5 16.5 41.5t-16.5 41.5t-40.5 16.5t-40.5 -16.5t-16.5 -41.5t16.5 -41.5t40.5 -16.5t40.5 16.5zM182 447.5q10 -9.5 10 -24.5q0 -14 -10 -24t-25 -10
t-24.5 10t-9.5 24q0 15 9.5 24.5t24.5 9.5t25 -9.5zM125 313v42h-22v-65h108v23h-41v38h-22v-38h-23zM190 242v-42h-87v-24h108v66h-21zM191 129l20 8v26l-108 -44v-23l108 -42v25l-20 7v43zM170 94l-39 14l39 14v-28zM103 16v24h108v-24h-108zM211 -26v26l-41 -24
q-10 20 -31 20q-16 0 -26 -10.5t-10 -27.5v-44h108v23h-37v16zM124 -44q0 7 4 11.5t10 4.5q7 0 11 -4.5t4 -11.5v-19h-29v19zM103 -102h22v-30h86v-24h-86v-30h-22v84z" />
    <glyph glyph-name="atilde" unicode="&#xe3;" 
d="M125 691h-22v-84h22v30h86v24h-86v30zM103 591v-23h66l-66 -47v-22h108v23h-68l68 50v19h-108zM197.5 381.5q16.5 16.5 16.5 41.5t-16.5 41.5t-40.5 16.5t-40.5 -16.5t-16.5 -41.5t16.5 -41.5t40.5 -16.5t40.5 16.5zM182 447.5q10 -9.5 10 -24.5q0 -14 -10 -24t-25 -10
t-24.5 10t-9.5 24q0 15 9.5 24.5t24.5 9.5t25 -9.5zM125 313v42h-22v-65h108v23h-41v38h-22v-38h-23zM190 242v-42h-87v-24h108v66h-21zM191 129l20 8v26l-108 -44v-23l108 -42v25l-20 7v43zM170 94l-39 14l39 14v-28zM103 16v24h108v-24h-108zM211 -26v26l-41 -24
q-10 20 -31 20q-16 0 -26 -10.5t-10 -27.5v-44h108v23h-37v16zM124 -44q0 7 4 11.5t10 4.5q7 0 11 -4.5t4 -11.5v-19h-29v19zM103 -102h22v-30h86v-24h-86v-30h-22v84z" />
    <glyph glyph-name="ae" unicode="&#xe6;" 
d="M125 691h-22v-84h22v30h86v24h-86v30zM103 591v-23h66l-66 -47v-22h108v23h-68l68 50v19h-108zM197.5 381.5q16.5 16.5 16.5 41.5t-16.5 41.5t-40.5 16.5t-40.5 -16.5t-16.5 -41.5t16.5 -41.5t40.5 -16.5t40.5 16.5zM182 447.5q10 -9.5 10 -24.5q0 -14 -10 -24t-25 -10
t-24.5 10t-9.5 24q0 15 9.5 24.5t24.5 9.5t25 -9.5zM125 313v42h-22v-65h108v23h-41v38h-22v-38h-23zM190 242v-42h-87v-24h108v66h-21zM191 129l20 8v26l-108 -44v-23l108 -42v25l-20 7v43zM170 94l-39 14l39 14v-28zM103 16v24h108v-24h-108zM211 -26v26l-41 -24
q-10 20 -31 20q-16 0 -26 -10.5t-10 -27.5v-44h108v23h-37v16zM124 -44q0 7 4 11.5t10 4.5q7 0 11 -4.5t4 -11.5v-19h-29v19zM103 -102h22v-30h86v-24h-86v-30h-22v84z" />
    <glyph glyph-name="b" unicode="b" horiz-adv-x="635" 
d="M235.5 18.5q-49.5 29.5 -67.5 70.5h-2q-1 -31 -1 -89h-87v700h93v-163q0 -81 -7 -133h2q23 44 72 72.5t115 28.5q68 0 123.5 -32t87 -90t31.5 -133q0 -77 -32 -136.5t-87.5 -92t-125.5 -32.5q-65 0 -114.5 29.5zM455 122q47 48 47 125q0 50 -21.5 89.5t-59.5 61.5t-86 22
q-72 0 -118 -48.5t-46 -124.5q0 -50 21 -89.5t57.5 -61.5t83.5 -22q75 0 122 48z" />
    <glyph glyph-name="c" unicode="c" horiz-adv-x="509" 
d="M166.5 19q-58.5 30 -92.5 88.5t-34 138.5t34.5 138.5t94 89.5t132.5 31q49 0 92.5 -14t77.5 -41l-47 -70q-53 40 -124 40q-47 0 -85 -20.5t-60 -59.5t-22 -92q0 -55 22 -94t59.5 -59.5t82.5 -20.5q37 0 70.5 11t66.5 38l43 -74q-73 -60 -180 -60q-72 0 -130.5 30z" />
    <glyph glyph-name="ccedilla" unicode="&#xe7;" 
d="M125 691h-22v-84h22v30h86v24h-86v30zM103 591v-23h66l-66 -47v-22h108v23h-68l68 50v19h-108zM197.5 381.5q16.5 16.5 16.5 41.5t-16.5 41.5t-40.5 16.5t-40.5 -16.5t-16.5 -41.5t16.5 -41.5t40.5 -16.5t40.5 16.5zM182 447.5q10 -9.5 10 -24.5q0 -14 -10 -24t-25 -10
t-24.5 10t-9.5 24q0 15 9.5 24.5t24.5 9.5t25 -9.5zM125 313v42h-22v-65h108v23h-41v38h-22v-38h-23zM190 242v-42h-87v-24h108v66h-21zM191 129l20 8v26l-108 -44v-23l108 -42v25l-20 7v43zM170 94l-39 14l39 14v-28zM103 16v24h108v-24h-108zM211 -26v26l-41 -24
q-10 20 -31 20q-16 0 -26 -10.5t-10 -27.5v-44h108v23h-37v16zM124 -44q0 7 4 11.5t10 4.5q7 0 11 -4.5t4 -11.5v-19h-29v19zM103 -102h22v-30h86v-24h-86v-30h-22v84z" />
    <glyph glyph-name="d" unicode="d" horiz-adv-x="635" 
d="M159 21q-56 32 -87.5 90t-31.5 135t31.5 135.5t87 91t125.5 32.5q64 0 112.5 -28.5t71.5 -72.5h2q-7 65 -7 125v171h93v-700h-87v89h-2q-18 -41 -67.5 -70.5t-113.5 -29.5q-71 0 -127 32zM416 121.5q47 47.5 47 123.5q0 78 -46.5 126.5t-119.5 48.5q-47 0 -84.5 -22
t-58.5 -61t-21 -88q0 -51 21 -91t57.5 -62t83.5 -22q74 0 121 47.5z" />
    <glyph glyph-name="eth" unicode="&#xf0;" 
d="M125 691h-22v-84h22v30h86v24h-86v30zM103 591v-23h66l-66 -47v-22h108v23h-68l68 50v19h-108zM197.5 381.5q16.5 16.5 16.5 41.5t-16.5 41.5t-40.5 16.5t-40.5 -16.5t-16.5 -41.5t16.5 -41.5t40.5 -16.5t40.5 16.5zM182 447.5q10 -9.5 10 -24.5q0 -14 -10 -24t-25 -10
t-24.5 10t-9.5 24q0 15 9.5 24.5t24.5 9.5t25 -9.5zM125 313v42h-22v-65h108v23h-41v38h-22v-38h-23zM190 242v-42h-87v-24h108v66h-21zM191 129l20 8v26l-108 -44v-23l108 -42v25l-20 7v43zM170 94l-39 14l39 14v-28zM103 16v24h108v-24h-108zM211 -26v26l-41 -24
q-10 20 -31 20q-16 0 -26 -10.5t-10 -27.5v-44h108v23h-37v16zM124 -44q0 7 4 11.5t10 4.5q7 0 11 -4.5t4 -11.5v-19h-29v19zM103 -102h22v-30h86v-24h-86v-30h-22v84z" />
    <glyph glyph-name="e" unicode="e" horiz-adv-x="559" 
d="M525 212h-391q4 -64 49 -102t113 -38q42 0 85 14.5t76 44.5l47 -64q-38 -39 -95 -58.5t-115 -19.5q-75 0 -132.5 32.5t-89.5 91t-32 134.5q0 75 32.5 133.5t90.5 91.5t133 33q104 0 167.5 -65t63.5 -187q0 -15 -2 -41zM187.5 387.5q-42.5 -34.5 -52.5 -99.5h305
q-4 65 -43.5 99.5t-104.5 34.5q-62 0 -104.5 -34.5z" />
    <glyph glyph-name="eacute" unicode="&#xe9;" 
d="M125 691h-22v-84h22v30h86v24h-86v30zM103 591v-23h66l-66 -47v-22h108v23h-68l68 50v19h-108zM197.5 381.5q16.5 16.5 16.5 41.5t-16.5 41.5t-40.5 16.5t-40.5 -16.5t-16.5 -41.5t16.5 -41.5t40.5 -16.5t40.5 16.5zM182 447.5q10 -9.5 10 -24.5q0 -14 -10 -24t-25 -10
t-24.5 10t-9.5 24q0 15 9.5 24.5t24.5 9.5t25 -9.5zM125 313v42h-22v-65h108v23h-41v38h-22v-38h-23zM190 242v-42h-87v-24h108v66h-21zM191 129l20 8v26l-108 -44v-23l108 -42v25l-20 7v43zM170 94l-39 14l39 14v-28zM103 16v24h108v-24h-108zM211 -26v26l-41 -24
q-10 20 -31 20q-16 0 -26 -10.5t-10 -27.5v-44h108v23h-37v16zM124 -44q0 7 4 11.5t10 4.5q7 0 11 -4.5t4 -11.5v-19h-29v19zM103 -102h22v-30h86v-24h-86v-30h-22v84z" />
    <glyph glyph-name="ecaron" unicode="&#x11b;" 
d="M125 691h-22v-84h22v30h86v24h-86v30zM103 591v-23h66l-66 -47v-22h108v23h-68l68 50v19h-108zM197.5 381.5q16.5 16.5 16.5 41.5t-16.5 41.5t-40.5 16.5t-40.5 -16.5t-16.5 -41.5t16.5 -41.5t40.5 -16.5t40.5 16.5zM182 447.5q10 -9.5 10 -24.5q0 -14 -10 -24t-25 -10
t-24.5 10t-9.5 24q0 15 9.5 24.5t24.5 9.5t25 -9.5zM125 313v42h-22v-65h108v23h-41v38h-22v-38h-23zM190 242v-42h-87v-24h108v66h-21zM191 129l20 8v26l-108 -44v-23l108 -42v25l-20 7v43zM170 94l-39 14l39 14v-28zM103 16v24h108v-24h-108zM211 -26v26l-41 -24
q-10 20 -31 20q-16 0 -26 -10.5t-10 -27.5v-44h108v23h-37v16zM124 -44q0 7 4 11.5t10 4.5q7 0 11 -4.5t4 -11.5v-19h-29v19zM103 -102h22v-30h86v-24h-86v-30h-22v84z" />
    <glyph glyph-name="ecircumflex" unicode="&#xea;" 
d="M125 691h-22v-84h22v30h86v24h-86v30zM103 591v-23h66l-66 -47v-22h108v23h-68l68 50v19h-108zM197.5 381.5q16.5 16.5 16.5 41.5t-16.5 41.5t-40.5 16.5t-40.5 -16.5t-16.5 -41.5t16.5 -41.5t40.5 -16.5t40.5 16.5zM182 447.5q10 -9.5 10 -24.5q0 -14 -10 -24t-25 -10
t-24.5 10t-9.5 24q0 15 9.5 24.5t24.5 9.5t25 -9.5zM125 313v42h-22v-65h108v23h-41v38h-22v-38h-23zM190 242v-42h-87v-24h108v66h-21zM191 129l20 8v26l-108 -44v-23l108 -42v25l-20 7v43zM170 94l-39 14l39 14v-28zM103 16v24h108v-24h-108zM211 -26v26l-41 -24
q-10 20 -31 20q-16 0 -26 -10.5t-10 -27.5v-44h108v23h-37v16zM124 -44q0 7 4 11.5t10 4.5q7 0 11 -4.5t4 -11.5v-19h-29v19zM103 -102h22v-30h86v-24h-86v-30h-22v84z" />
    <glyph glyph-name="edieresis" unicode="&#xeb;" 
d="M125 691h-22v-84h22v30h86v24h-86v30zM103 591v-23h66l-66 -47v-22h108v23h-68l68 50v19h-108zM197.5 381.5q16.5 16.5 16.5 41.5t-16.5 41.5t-40.5 16.5t-40.5 -16.5t-16.5 -41.5t16.5 -41.5t40.5 -16.5t40.5 16.5zM182 447.5q10 -9.5 10 -24.5q0 -14 -10 -24t-25 -10
t-24.5 10t-9.5 24q0 15 9.5 24.5t24.5 9.5t25 -9.5zM125 313v42h-22v-65h108v23h-41v38h-22v-38h-23zM190 242v-42h-87v-24h108v66h-21zM191 129l20 8v26l-108 -44v-23l108 -42v25l-20 7v43zM170 94l-39 14l39 14v-28zM103 16v24h108v-24h-108zM211 -26v26l-41 -24
q-10 20 -31 20q-16 0 -26 -10.5t-10 -27.5v-44h108v23h-37v16zM124 -44q0 7 4 11.5t10 4.5q7 0 11 -4.5t4 -11.5v-19h-29v19zM103 -102h22v-30h86v-24h-86v-30h-22v84z" />
    <glyph glyph-name="edotaccent" unicode="&#x117;" 
d="M125 691h-22v-84h22v30h86v24h-86v30zM103 591v-23h66l-66 -47v-22h108v23h-68l68 50v19h-108zM197.5 381.5q16.5 16.5 16.5 41.5t-16.5 41.5t-40.5 16.5t-40.5 -16.5t-16.5 -41.5t16.5 -41.5t40.5 -16.5t40.5 16.5zM182 447.5q10 -9.5 10 -24.5q0 -14 -10 -24t-25 -10
t-24.5 10t-9.5 24q0 15 9.5 24.5t24.5 9.5t25 -9.5zM125 313v42h-22v-65h108v23h-41v38h-22v-38h-23zM190 242v-42h-87v-24h108v66h-21zM191 129l20 8v26l-108 -44v-23l108 -42v25l-20 7v43zM170 94l-39 14l39 14v-28zM103 16v24h108v-24h-108zM211 -26v26l-41 -24
q-10 20 -31 20q-16 0 -26 -10.5t-10 -27.5v-44h108v23h-37v16zM124 -44q0 7 4 11.5t10 4.5q7 0 11 -4.5t4 -11.5v-19h-29v19zM103 -102h22v-30h86v-24h-86v-30h-22v84z" />
    <glyph glyph-name="egrave" unicode="&#xe8;" 
d="M125 691h-22v-84h22v30h86v24h-86v30zM103 591v-23h66l-66 -47v-22h108v23h-68l68 50v19h-108zM197.5 381.5q16.5 16.5 16.5 41.5t-16.5 41.5t-40.5 16.5t-40.5 -16.5t-16.5 -41.5t16.5 -41.5t40.5 -16.5t40.5 16.5zM182 447.5q10 -9.5 10 -24.5q0 -14 -10 -24t-25 -10
t-24.5 10t-9.5 24q0 15 9.5 24.5t24.5 9.5t25 -9.5zM125 313v42h-22v-65h108v23h-41v38h-22v-38h-23zM190 242v-42h-87v-24h108v66h-21zM191 129l20 8v26l-108 -44v-23l108 -42v25l-20 7v43zM170 94l-39 14l39 14v-28zM103 16v24h108v-24h-108zM211 -26v26l-41 -24
q-10 20 -31 20q-16 0 -26 -10.5t-10 -27.5v-44h108v23h-37v16zM124 -44q0 7 4 11.5t10 4.5q7 0 11 -4.5t4 -11.5v-19h-29v19zM103 -102h22v-30h86v-24h-86v-30h-22v84z" />
    <glyph glyph-name="f" unicode="f" horiz-adv-x="387" 
d="M242.5 608q-22.5 -25 -22.5 -77v-37h151v-81h-151v-413h-93v413h-96v81h96v35q0 87 46.5 135t124.5 48q64 0 113 -29l-32 -67q-35 17 -73 17q-41 0 -63.5 -25z" />
    <glyph glyph-name="g" unicode="g" horiz-adv-x="634" 
d="M73 -184l36 76q60 -28 104 -40t89 -12q73 0 114.5 35.5t44.5 100.5q3 57 7 112h-2q-22 -44 -69 -71t-111 -27q-72 0 -128 32.5t-87 90.5t-31 133q0 76 31 134.5t86.5 91.5t127.5 33q65 0 114.5 -29t67.5 -71h2v89h87v-497q0 -115 -66.5 -179t-185.5 -64q-128 0 -231 62z
M417 121.5q46 47.5 46 124.5t-45.5 125.5t-118.5 48.5t-119.5 -48t-46.5 -123q0 -51 21 -90.5t59 -62t85 -22.5q73 0 119 47.5z" />
    <glyph glyph-name="h" unicode="h" horiz-adv-x="620" 
d="M78 0v700h93v-163q0 -82 -7 -130h2q24 42 71 69t105 27q101 0 154.5 -59t53.5 -166v-278h-93v270q0 71 -33.5 110t-99.5 39q-44 0 -79 -20.5t-54.5 -56t-19.5 -79.5v-263h-93z" />
    <glyph glyph-name="i" unicode="i" horiz-adv-x="250" 
d="M78.5 596.5q-17.5 17.5 -17.5 43.5q0 27 17.5 44.5t44.5 17.5q28 0 46 -17.5t18 -44.5q0 -26 -18 -43.5t-46 -17.5q-27 0 -44.5 17.5zM171 0h-93v494h93v-494z" />
    <glyph glyph-name="iacute" unicode="&#xed;" 
d="M125 691h-22v-84h22v30h86v24h-86v30zM103 591v-23h66l-66 -47v-22h108v23h-68l68 50v19h-108zM197.5 381.5q16.5 16.5 16.5 41.5t-16.5 41.5t-40.5 16.5t-40.5 -16.5t-16.5 -41.5t16.5 -41.5t40.5 -16.5t40.5 16.5zM182 447.5q10 -9.5 10 -24.5q0 -14 -10 -24t-25 -10
t-24.5 10t-9.5 24q0 15 9.5 24.5t24.5 9.5t25 -9.5zM125 313v42h-22v-65h108v23h-41v38h-22v-38h-23zM190 242v-42h-87v-24h108v66h-21zM191 129l20 8v26l-108 -44v-23l108 -42v25l-20 7v43zM170 94l-39 14l39 14v-28zM103 16v24h108v-24h-108zM211 -26v26l-41 -24
q-10 20 -31 20q-16 0 -26 -10.5t-10 -27.5v-44h108v23h-37v16zM124 -44q0 7 4 11.5t10 4.5q7 0 11 -4.5t4 -11.5v-19h-29v19zM103 -102h22v-30h86v-24h-86v-30h-22v84z" />
    <glyph glyph-name="icircumflex" unicode="&#xee;" 
d="M125 691h-22v-84h22v30h86v24h-86v30zM103 591v-23h66l-66 -47v-22h108v23h-68l68 50v19h-108zM197.5 381.5q16.5 16.5 16.5 41.5t-16.5 41.5t-40.5 16.5t-40.5 -16.5t-16.5 -41.5t16.5 -41.5t40.5 -16.5t40.5 16.5zM182 447.5q10 -9.5 10 -24.5q0 -14 -10 -24t-25 -10
t-24.5 10t-9.5 24q0 15 9.5 24.5t24.5 9.5t25 -9.5zM125 313v42h-22v-65h108v23h-41v38h-22v-38h-23zM190 242v-42h-87v-24h108v66h-21zM191 129l20 8v26l-108 -44v-23l108 -42v25l-20 7v43zM170 94l-39 14l39 14v-28zM103 16v24h108v-24h-108zM211 -26v26l-41 -24
q-10 20 -31 20q-16 0 -26 -10.5t-10 -27.5v-44h108v23h-37v16zM124 -44q0 7 4 11.5t10 4.5q7 0 11 -4.5t4 -11.5v-19h-29v19zM103 -102h22v-30h86v-24h-86v-30h-22v84z" />
    <glyph glyph-name="idieresis" unicode="&#xef;" 
d="M125 691h-22v-84h22v30h86v24h-86v30zM103 591v-23h66l-66 -47v-22h108v23h-68l68 50v19h-108zM197.5 381.5q16.5 16.5 16.5 41.5t-16.5 41.5t-40.5 16.5t-40.5 -16.5t-16.5 -41.5t16.5 -41.5t40.5 -16.5t40.5 16.5zM182 447.5q10 -9.5 10 -24.5q0 -14 -10 -24t-25 -10
t-24.5 10t-9.5 24q0 15 9.5 24.5t24.5 9.5t25 -9.5zM125 313v42h-22v-65h108v23h-41v38h-22v-38h-23zM190 242v-42h-87v-24h108v66h-21zM191 129l20 8v26l-108 -44v-23l108 -42v25l-20 7v43zM170 94l-39 14l39 14v-28zM103 16v24h108v-24h-108zM211 -26v26l-41 -24
q-10 20 -31 20q-16 0 -26 -10.5t-10 -27.5v-44h108v23h-37v16zM124 -44q0 7 4 11.5t10 4.5q7 0 11 -4.5t4 -11.5v-19h-29v19zM103 -102h22v-30h86v-24h-86v-30h-22v84z" />
    <glyph glyph-name="igrave" unicode="&#xec;" 
d="M125 691h-22v-84h22v30h86v24h-86v30zM103 591v-23h66l-66 -47v-22h108v23h-68l68 50v19h-108zM197.5 381.5q16.5 16.5 16.5 41.5t-16.5 41.5t-40.5 16.5t-40.5 -16.5t-16.5 -41.5t16.5 -41.5t40.5 -16.5t40.5 16.5zM182 447.5q10 -9.5 10 -24.5q0 -14 -10 -24t-25 -10
t-24.5 10t-9.5 24q0 15 9.5 24.5t24.5 9.5t25 -9.5zM125 313v42h-22v-65h108v23h-41v38h-22v-38h-23zM190 242v-42h-87v-24h108v66h-21zM191 129l20 8v26l-108 -44v-23l108 -42v25l-20 7v43zM170 94l-39 14l39 14v-28zM103 16v24h108v-24h-108zM211 -26v26l-41 -24
q-10 20 -31 20q-16 0 -26 -10.5t-10 -27.5v-44h108v23h-37v16zM124 -44q0 7 4 11.5t10 4.5q7 0 11 -4.5t4 -11.5v-19h-29v19zM103 -102h22v-30h86v-24h-86v-30h-22v84z" />
    <glyph glyph-name="j" unicode="j" horiz-adv-x="250" 
d="M78.5 596.5q-17.5 17.5 -17.5 43.5q0 27 17.5 44.5t44.5 17.5q28 0 46 -17.5t18 -44.5q0 -26 -18 -43.5t-46 -17.5q-27 0 -44.5 17.5zM-82 -216l33 71q31 -15 61 -15q37 0 51.5 22t14.5 77v555h93v-555q0 -96 -36.5 -140.5t-115.5 -44.5q-55 0 -101 30z" />
    <glyph glyph-name="k" unicode="k" horiz-adv-x="511" 
d="M256 254l257 -254h-123l-134 135q-56 57 -85 95l-3 -1q3 -43 3 -135v-94h-93v700h93v-255q0 -126 -2 -168l2 -1q18 25 42 51t30 32l123 135h115z" />
    <glyph glyph-name="l" unicode="l" 
d="M78 159v541h93v-535q0 -54 16 -73.5t55 -19.5q22 0 43 6l20 -77q-41 -13 -78 -13q-149 0 -149 171z" />
    <glyph glyph-name="m" unicode="m" horiz-adv-x="931" 
d="M808 446.5q53 -56.5 53 -149.5v-297h-93v284q0 62 -31 98.5t-88 36.5q-59 0 -96 -39t-37 -99v-281h-93v282q0 63 -32.5 100t-90.5 37t-93.5 -38.5t-35.5 -99.5v-281h-93v494h87q0 -44 -8 -92h2q16 48 59 74.5t98 26.5q57 0 101 -25.5t64 -77.5q26 53 74 78t107 25
q93 0 146 -56.5z" />
    <glyph glyph-name="n" unicode="n" horiz-adv-x="620" 
d="M78 0v494h87q0 -38 -3 -92h3q22 49 68 75t109 26q101 0 154.5 -59t53.5 -166v-278h-93v270q0 71 -33.5 110t-99.5 39q-44 0 -79 -20.5t-54.5 -56t-19.5 -79.5v-263h-93z" />
    <glyph glyph-name="ntilde" unicode="&#xf1;" 
d="M125 691h-22v-84h22v30h86v24h-86v30zM103 591v-23h66l-66 -47v-22h108v23h-68l68 50v19h-108zM197.5 381.5q16.5 16.5 16.5 41.5t-16.5 41.5t-40.5 16.5t-40.5 -16.5t-16.5 -41.5t16.5 -41.5t40.5 -16.5t40.5 16.5zM182 447.5q10 -9.5 10 -24.5q0 -14 -10 -24t-25 -10
t-24.5 10t-9.5 24q0 15 9.5 24.5t24.5 9.5t25 -9.5zM125 313v42h-22v-65h108v23h-41v38h-22v-38h-23zM190 242v-42h-87v-24h108v66h-21zM191 129l20 8v26l-108 -44v-23l108 -42v25l-20 7v43zM170 94l-39 14l39 14v-28zM103 16v24h108v-24h-108zM211 -26v26l-41 -24
q-10 20 -31 20q-16 0 -26 -10.5t-10 -27.5v-44h108v23h-37v16zM124 -44q0 7 4 11.5t10 4.5q7 0 11 -4.5t4 -11.5v-19h-29v19zM103 -102h22v-30h86v-24h-86v-30h-22v84z" />
    <glyph glyph-name="o" unicode="o" horiz-adv-x="599" 
d="M162.5 22q-58.5 33 -90.5 91.5t-32 131.5q0 74 33 133.5t93 93t137 33.5q75 0 133.5 -33t90.5 -91.5t32 -131.5q0 -74 -33 -133.5t-93 -93t-137 -33.5q-75 0 -133.5 33zM385.5 96.5q38.5 22.5 59.5 61.5t21 87q0 49 -21 89t-59 63t-86 23q-49 0 -87 -22.5t-59 -62
t-21 -86.5q0 -49 21 -89t58.5 -63t85.5 -23q49 0 87.5 22.5z" />
    <glyph glyph-name="oacute" unicode="&#xf3;" 
d="M125 691h-22v-84h22v30h86v24h-86v30zM103 591v-23h66l-66 -47v-22h108v23h-68l68 50v19h-108zM197.5 381.5q16.5 16.5 16.5 41.5t-16.5 41.5t-40.5 16.5t-40.5 -16.5t-16.5 -41.5t16.5 -41.5t40.5 -16.5t40.5 16.5zM182 447.5q10 -9.5 10 -24.5q0 -14 -10 -24t-25 -10
t-24.5 10t-9.5 24q0 15 9.5 24.5t24.5 9.5t25 -9.5zM125 313v42h-22v-65h108v23h-41v38h-22v-38h-23zM190 242v-42h-87v-24h108v66h-21zM191 129l20 8v26l-108 -44v-23l108 -42v25l-20 7v43zM170 94l-39 14l39 14v-28zM103 16v24h108v-24h-108zM211 -26v26l-41 -24
q-10 20 -31 20q-16 0 -26 -10.5t-10 -27.5v-44h108v23h-37v16zM124 -44q0 7 4 11.5t10 4.5q7 0 11 -4.5t4 -11.5v-19h-29v19zM103 -102h22v-30h86v-24h-86v-30h-22v84z" />
    <glyph glyph-name="ocircumflex" unicode="&#xf4;" 
d="M125 691h-22v-84h22v30h86v24h-86v30zM103 591v-23h66l-66 -47v-22h108v23h-68l68 50v19h-108zM197.5 381.5q16.5 16.5 16.5 41.5t-16.5 41.5t-40.5 16.5t-40.5 -16.5t-16.5 -41.5t16.5 -41.5t40.5 -16.5t40.5 16.5zM182 447.5q10 -9.5 10 -24.5q0 -14 -10 -24t-25 -10
t-24.5 10t-9.5 24q0 15 9.5 24.5t24.5 9.5t25 -9.5zM125 313v42h-22v-65h108v23h-41v38h-22v-38h-23zM190 242v-42h-87v-24h108v66h-21zM191 129l20 8v26l-108 -44v-23l108 -42v25l-20 7v43zM170 94l-39 14l39 14v-28zM103 16v24h108v-24h-108zM211 -26v26l-41 -24
q-10 20 -31 20q-16 0 -26 -10.5t-10 -27.5v-44h108v23h-37v16zM124 -44q0 7 4 11.5t10 4.5q7 0 11 -4.5t4 -11.5v-19h-29v19zM103 -102h22v-30h86v-24h-86v-30h-22v84z" />
    <glyph glyph-name="odieresis" unicode="&#xf6;" 
d="M125 691h-22v-84h22v30h86v24h-86v30zM103 591v-23h66l-66 -47v-22h108v23h-68l68 50v19h-108zM197.5 381.5q16.5 16.5 16.5 41.5t-16.5 41.5t-40.5 16.5t-40.5 -16.5t-16.5 -41.5t16.5 -41.5t40.5 -16.5t40.5 16.5zM182 447.5q10 -9.5 10 -24.5q0 -14 -10 -24t-25 -10
t-24.5 10t-9.5 24q0 15 9.5 24.5t24.5 9.5t25 -9.5zM125 313v42h-22v-65h108v23h-41v38h-22v-38h-23zM190 242v-42h-87v-24h108v66h-21zM191 129l20 8v26l-108 -44v-23l108 -42v25l-20 7v43zM170 94l-39 14l39 14v-28zM103 16v24h108v-24h-108zM211 -26v26l-41 -24
q-10 20 -31 20q-16 0 -26 -10.5t-10 -27.5v-44h108v23h-37v16zM124 -44q0 7 4 11.5t10 4.5q7 0 11 -4.5t4 -11.5v-19h-29v19zM103 -102h22v-30h86v-24h-86v-30h-22v84z" />
    <glyph glyph-name="ograve" unicode="&#xf2;" 
d="M125 691h-22v-84h22v30h86v24h-86v30zM103 591v-23h66l-66 -47v-22h108v23h-68l68 50v19h-108zM197.5 381.5q16.5 16.5 16.5 41.5t-16.5 41.5t-40.5 16.5t-40.5 -16.5t-16.5 -41.5t16.5 -41.5t40.5 -16.5t40.5 16.5zM182 447.5q10 -9.5 10 -24.5q0 -14 -10 -24t-25 -10
t-24.5 10t-9.5 24q0 15 9.5 24.5t24.5 9.5t25 -9.5zM125 313v42h-22v-65h108v23h-41v38h-22v-38h-23zM190 242v-42h-87v-24h108v66h-21zM191 129l20 8v26l-108 -44v-23l108 -42v25l-20 7v43zM170 94l-39 14l39 14v-28zM103 16v24h108v-24h-108zM211 -26v26l-41 -24
q-10 20 -31 20q-16 0 -26 -10.5t-10 -27.5v-44h108v23h-37v16zM124 -44q0 7 4 11.5t10 4.5q7 0 11 -4.5t4 -11.5v-19h-29v19zM103 -102h22v-30h86v-24h-86v-30h-22v84z" />
    <glyph glyph-name="oslash" unicode="&#xf8;" 
d="M125 691h-22v-84h22v30h86v24h-86v30zM103 591v-23h66l-66 -47v-22h108v23h-68l68 50v19h-108zM197.5 381.5q16.5 16.5 16.5 41.5t-16.5 41.5t-40.5 16.5t-40.5 -16.5t-16.5 -41.5t16.5 -41.5t40.5 -16.5t40.5 16.5zM182 447.5q10 -9.5 10 -24.5q0 -14 -10 -24t-25 -10
t-24.5 10t-9.5 24q0 15 9.5 24.5t24.5 9.5t25 -9.5zM125 313v42h-22v-65h108v23h-41v38h-22v-38h-23zM190 242v-42h-87v-24h108v66h-21zM191 129l20 8v26l-108 -44v-23l108 -42v25l-20 7v43zM170 94l-39 14l39 14v-28zM103 16v24h108v-24h-108zM211 -26v26l-41 -24
q-10 20 -31 20q-16 0 -26 -10.5t-10 -27.5v-44h108v23h-37v16zM124 -44q0 7 4 11.5t10 4.5q7 0 11 -4.5t4 -11.5v-19h-29v19zM103 -102h22v-30h86v-24h-86v-30h-22v84z" />
    <glyph glyph-name="otilde" unicode="&#xf5;" 
d="M125 691h-22v-84h22v30h86v24h-86v30zM103 591v-23h66l-66 -47v-22h108v23h-68l68 50v19h-108zM197.5 381.5q16.5 16.5 16.5 41.5t-16.5 41.5t-40.5 16.5t-40.5 -16.5t-16.5 -41.5t16.5 -41.5t40.5 -16.5t40.5 16.5zM182 447.5q10 -9.5 10 -24.5q0 -14 -10 -24t-25 -10
t-24.5 10t-9.5 24q0 15 9.5 24.5t24.5 9.5t25 -9.5zM125 313v42h-22v-65h108v23h-41v38h-22v-38h-23zM190 242v-42h-87v-24h108v66h-21zM191 129l20 8v26l-108 -44v-23l108 -42v25l-20 7v43zM170 94l-39 14l39 14v-28zM103 16v24h108v-24h-108zM211 -26v26l-41 -24
q-10 20 -31 20q-16 0 -26 -10.5t-10 -27.5v-44h108v23h-37v16zM124 -44q0 7 4 11.5t10 4.5q7 0 11 -4.5t4 -11.5v-19h-29v19zM103 -102h22v-30h86v-24h-86v-30h-22v84z" />
    <glyph glyph-name="oe" unicode="&#x153;" 
d="M125 691h-22v-84h22v30h86v24h-86v30zM103 591v-23h66l-66 -47v-22h108v23h-68l68 50v19h-108zM197.5 381.5q16.5 16.5 16.5 41.5t-16.5 41.5t-40.5 16.5t-40.5 -16.5t-16.5 -41.5t16.5 -41.5t40.5 -16.5t40.5 16.5zM182 447.5q10 -9.5 10 -24.5q0 -14 -10 -24t-25 -10
t-24.5 10t-9.5 24q0 15 9.5 24.5t24.5 9.5t25 -9.5zM125 313v42h-22v-65h108v23h-41v38h-22v-38h-23zM190 242v-42h-87v-24h108v66h-21zM191 129l20 8v26l-108 -44v-23l108 -42v25l-20 7v43zM170 94l-39 14l39 14v-28zM103 16v24h108v-24h-108zM211 -26v26l-41 -24
q-10 20 -31 20q-16 0 -26 -10.5t-10 -27.5v-44h108v23h-37v16zM124 -44q0 7 4 11.5t10 4.5q7 0 11 -4.5t4 -11.5v-19h-29v19zM103 -102h22v-30h86v-24h-86v-30h-22v84z" />
    <glyph glyph-name="p" unicode="p" horiz-adv-x="635" 
d="M78 -232v726h93q0 -28 -6 -88h2q19 41 69 70t116 29q69 0 124.5 -32t87 -90.5t31.5 -135.5t-31.5 -135.5t-87.5 -90.5t-126 -32q-64 0 -112 28.5t-69 70.5h-2q4 -39 4 -114v-206h-93zM455.5 121.5q46.5 47.5 46.5 123.5q0 51 -21 91t-58.5 62t-85.5 22q-73 0 -119.5 -48
t-46.5 -123q0 -78 46 -126.5t118 -48.5q74 0 120.5 47.5z" />
    <glyph glyph-name="thorn" unicode="&#xfe;" 
d="M125 691h-22v-84h22v30h86v24h-86v30zM103 591v-23h66l-66 -47v-22h108v23h-68l68 50v19h-108zM197.5 381.5q16.5 16.5 16.5 41.5t-16.5 41.5t-40.5 16.5t-40.5 -16.5t-16.5 -41.5t16.5 -41.5t40.5 -16.5t40.5 16.5zM182 447.5q10 -9.5 10 -24.5q0 -14 -10 -24t-25 -10
t-24.5 10t-9.5 24q0 15 9.5 24.5t24.5 9.5t25 -9.5zM125 313v42h-22v-65h108v23h-41v38h-22v-38h-23zM190 242v-42h-87v-24h108v66h-21zM191 129l20 8v26l-108 -44v-23l108 -42v25l-20 7v43zM170 94l-39 14l39 14v-28zM103 16v24h108v-24h-108zM211 -26v26l-41 -24
q-10 20 -31 20q-16 0 -26 -10.5t-10 -27.5v-44h108v23h-37v16zM124 -44q0 7 4 11.5t10 4.5q7 0 11 -4.5t4 -11.5v-19h-29v19zM103 -102h22v-30h86v-24h-86v-30h-22v84z" />
    <glyph glyph-name="q" unicode="q" horiz-adv-x="635" 
d="M463 -26q0 63 5 114h-2q-20 -43 -68.5 -71t-113.5 -28q-70 0 -125.5 32t-87 90t-31.5 134q0 77 31.5 136.5t87 91.5t124.5 32q66 0 116 -29t69 -71h2q-1 31 -1 89h87v-726h-93v206zM417 121.5q47 47.5 47 123.5q0 78 -46.5 126.5t-119.5 48.5q-47 0 -85 -22t-59 -61
t-21 -88q0 -51 21 -91t58 -62t84 -22q74 0 121 47.5z" />
    <glyph glyph-name="r" unicode="r" horiz-adv-x="399" 
d="M78 0v494h87q0 -57 -2 -85h2q16 40 56.5 67t95.5 27q38 0 68 -10l-26 -83q-19 8 -49 8q-62 0 -100.5 -44.5t-38.5 -116.5v-257h-93z" />
    <glyph glyph-name="uni0157" unicode="&#x157;" 
d="M125 691h-22v-84h22v30h86v24h-86v30zM103 591v-23h66l-66 -47v-22h108v23h-68l68 50v19h-108zM197.5 381.5q16.5 16.5 16.5 41.5t-16.5 41.5t-40.5 16.5t-40.5 -16.5t-16.5 -41.5t16.5 -41.5t40.5 -16.5t40.5 16.5zM182 447.5q10 -9.5 10 -24.5q0 -14 -10 -24t-25 -10
t-24.5 10t-9.5 24q0 15 9.5 24.5t24.5 9.5t25 -9.5zM125 313v42h-22v-65h108v23h-41v38h-22v-38h-23zM190 242v-42h-87v-24h108v66h-21zM191 129l20 8v26l-108 -44v-23l108 -42v25l-20 7v43zM170 94l-39 14l39 14v-28zM103 16v24h108v-24h-108zM211 -26v26l-41 -24
q-10 20 -31 20q-16 0 -26 -10.5t-10 -27.5v-44h108v23h-37v16zM124 -44q0 7 4 11.5t10 4.5q7 0 11 -4.5t4 -11.5v-19h-29v19zM103 -102h22v-30h86v-24h-86v-30h-22v84z" />
    <glyph glyph-name="s" unicode="s" horiz-adv-x="490" 
d="M142 1.5q-53 15.5 -107 48.5l41 71q91 -54 178 -54q47 0 76 20.5t29 52.5t-26.5 49t-87.5 25q-94 11 -142 47.5t-48 96.5q0 65 54 105t141 40q98 0 178 -46l-30 -72q-38 20 -77 30.5t-73 10.5q-47 0 -74.5 -17.5t-27.5 -47.5q0 -29 25.5 -46t81.5 -25q108 -16 153.5 -50
t45.5 -101q0 -45 -25 -79.5t-70.5 -54t-103.5 -19.5t-111 15.5z" />
    <glyph glyph-name="scaron" unicode="&#x161;" 
d="M125 691h-22v-84h22v30h86v24h-86v30zM103 591v-23h66l-66 -47v-22h108v23h-68l68 50v19h-108zM197.5 381.5q16.5 16.5 16.5 41.5t-16.5 41.5t-40.5 16.5t-40.5 -16.5t-16.5 -41.5t16.5 -41.5t40.5 -16.5t40.5 16.5zM182 447.5q10 -9.5 10 -24.5q0 -14 -10 -24t-25 -10
t-24.5 10t-9.5 24q0 15 9.5 24.5t24.5 9.5t25 -9.5zM125 313v42h-22v-65h108v23h-41v38h-22v-38h-23zM190 242v-42h-87v-24h108v66h-21zM191 129l20 8v26l-108 -44v-23l108 -42v25l-20 7v43zM170 94l-39 14l39 14v-28zM103 16v24h108v-24h-108zM211 -26v26l-41 -24
q-10 20 -31 20q-16 0 -26 -10.5t-10 -27.5v-44h108v23h-37v16zM124 -44q0 7 4 11.5t10 4.5q7 0 11 -4.5t4 -11.5v-19h-29v19zM103 -102h22v-30h86v-24h-86v-30h-22v84z" />
    <glyph glyph-name="germandbls" unicode="&#xdf;" horiz-adv-x="621" 
d="M537.5 324q39.5 -52 39.5 -120q0 -99 -61.5 -157.5t-166.5 -58.5q-61 0 -114 15l14 83q45 -14 85 -14q69 0 109.5 35t40.5 99q0 67 -48 104.5t-133 37.5h-57v77h54q64 0 100 26.5t36 73.5q0 48 -35.5 75t-97.5 27q-132 0 -132 -134v-493h-93v497q0 102 58.5 158t166.5 56
q102 0 163 -50t61 -135q0 -48 -24.5 -84.5t-66.5 -50.5q62 -15 101.5 -67z" />
    <glyph glyph-name="t" unicode="t" horiz-adv-x="406" 
d="M392 16q-53 -23 -106 -23q-77 0 -116.5 43.5t-39.5 127.5v251h-97v79h97v133l92 10v-143h150v-79h-150v-249q0 -45 18 -68t57 -23q31 0 67 17z" />
    <glyph glyph-name="u" unicode="u" horiz-adv-x="615" 
d="M127 54q-57 63 -57 169v271h93v-268q0 -71 36.5 -111t100.5 -40q63 0 103 44.5t40 111.5v263h93v-494h-86q0 56 2 84h-3q-24 -46 -67.5 -69.5t-100.5 -23.5q-97 0 -154 63z" />
    <glyph glyph-name="uacute" unicode="&#xfa;" 
d="M125 691h-22v-84h22v30h86v24h-86v30zM103 591v-23h66l-66 -47v-22h108v23h-68l68 50v19h-108zM197.5 381.5q16.5 16.5 16.5 41.5t-16.5 41.5t-40.5 16.5t-40.5 -16.5t-16.5 -41.5t16.5 -41.5t40.5 -16.5t40.5 16.5zM182 447.5q10 -9.5 10 -24.5q0 -14 -10 -24t-25 -10
t-24.5 10t-9.5 24q0 15 9.5 24.5t24.5 9.5t25 -9.5zM125 313v42h-22v-65h108v23h-41v38h-22v-38h-23zM190 242v-42h-87v-24h108v66h-21zM191 129l20 8v26l-108 -44v-23l108 -42v25l-20 7v43zM170 94l-39 14l39 14v-28zM103 16v24h108v-24h-108zM211 -26v26l-41 -24
q-10 20 -31 20q-16 0 -26 -10.5t-10 -27.5v-44h108v23h-37v16zM124 -44q0 7 4 11.5t10 4.5q7 0 11 -4.5t4 -11.5v-19h-29v19zM103 -102h22v-30h86v-24h-86v-30h-22v84z" />
    <glyph glyph-name="ucircumflex" unicode="&#xfb;" 
d="M125 691h-22v-84h22v30h86v24h-86v30zM103 591v-23h66l-66 -47v-22h108v23h-68l68 50v19h-108zM197.5 381.5q16.5 16.5 16.5 41.5t-16.5 41.5t-40.5 16.5t-40.5 -16.5t-16.5 -41.5t16.5 -41.5t40.5 -16.5t40.5 16.5zM182 447.5q10 -9.5 10 -24.5q0 -14 -10 -24t-25 -10
t-24.5 10t-9.5 24q0 15 9.5 24.5t24.5 9.5t25 -9.5zM125 313v42h-22v-65h108v23h-41v38h-22v-38h-23zM190 242v-42h-87v-24h108v66h-21zM191 129l20 8v26l-108 -44v-23l108 -42v25l-20 7v43zM170 94l-39 14l39 14v-28zM103 16v24h108v-24h-108zM211 -26v26l-41 -24
q-10 20 -31 20q-16 0 -26 -10.5t-10 -27.5v-44h108v23h-37v16zM124 -44q0 7 4 11.5t10 4.5q7 0 11 -4.5t4 -11.5v-19h-29v19zM103 -102h22v-30h86v-24h-86v-30h-22v84z" />
    <glyph glyph-name="udieresis" unicode="&#xfc;" 
d="M125 691h-22v-84h22v30h86v24h-86v30zM103 591v-23h66l-66 -47v-22h108v23h-68l68 50v19h-108zM197.5 381.5q16.5 16.5 16.5 41.5t-16.5 41.5t-40.5 16.5t-40.5 -16.5t-16.5 -41.5t16.5 -41.5t40.5 -16.5t40.5 16.5zM182 447.5q10 -9.5 10 -24.5q0 -14 -10 -24t-25 -10
t-24.5 10t-9.5 24q0 15 9.5 24.5t24.5 9.5t25 -9.5zM125 313v42h-22v-65h108v23h-41v38h-22v-38h-23zM190 242v-42h-87v-24h108v66h-21zM191 129l20 8v26l-108 -44v-23l108 -42v25l-20 7v43zM170 94l-39 14l39 14v-28zM103 16v24h108v-24h-108zM211 -26v26l-41 -24
q-10 20 -31 20q-16 0 -26 -10.5t-10 -27.5v-44h108v23h-37v16zM124 -44q0 7 4 11.5t10 4.5q7 0 11 -4.5t4 -11.5v-19h-29v19zM103 -102h22v-30h86v-24h-86v-30h-22v84z" />
    <glyph glyph-name="ugrave" unicode="&#xf9;" 
d="M125 691h-22v-84h22v30h86v24h-86v30zM103 591v-23h66l-66 -47v-22h108v23h-68l68 50v19h-108zM197.5 381.5q16.5 16.5 16.5 41.5t-16.5 41.5t-40.5 16.5t-40.5 -16.5t-16.5 -41.5t16.5 -41.5t40.5 -16.5t40.5 16.5zM182 447.5q10 -9.5 10 -24.5q0 -14 -10 -24t-25 -10
t-24.5 10t-9.5 24q0 15 9.5 24.5t24.5 9.5t25 -9.5zM125 313v42h-22v-65h108v23h-41v38h-22v-38h-23zM190 242v-42h-87v-24h108v66h-21zM191 129l20 8v26l-108 -44v-23l108 -42v25l-20 7v43zM170 94l-39 14l39 14v-28zM103 16v24h108v-24h-108zM211 -26v26l-41 -24
q-10 20 -31 20q-16 0 -26 -10.5t-10 -27.5v-44h108v23h-37v16zM124 -44q0 7 4 11.5t10 4.5q7 0 11 -4.5t4 -11.5v-19h-29v19zM103 -102h22v-30h86v-24h-86v-30h-22v84z" />
    <glyph glyph-name="v" unicode="v" horiz-adv-x="553" 
d="M226 0l-207 494h102l74 -189q55 -141 82 -211h2q32 93 79 211l77 189h99l-207 -494h-101z" />
    <glyph glyph-name="w" unicode="w" horiz-adv-x="824" 
d="M191 0l-169 494h100l61 -198q36 -114 62 -204h2q23 87 62 203l64 199h82l63 -198q45 -139 61 -204h3q15 58 60 203l63 199h97l-168 -494h-107l-42 134q-48 151 -70 232h-2q-17 -61 -72 -232l-42 -134h-108z" />
    <glyph glyph-name="x" unicode="x" horiz-adv-x="499" 
d="M308 256l181 -256h-113l-64 97q-50 76 -61 100h-2q-14 -27 -64 -101l-64 -96h-111l179 255l-168 239h113l69 -106q5 -8 22 -33t24 -41h2q12 25 45 74l68 106h112z" />
    <glyph glyph-name="y" unicode="y" horiz-adv-x="546" 
d="M426 494h101l-242 -603q-27 -67 -65 -98.5t-91 -31.5q-51 0 -97 28l35 76q25 -17 57 -17q27 0 45 16.5t35 57.5l27 65l-213 507h101l99 -243q27 -67 61 -161h2q4 11 7 20t6 17q7 21 20 58.5t24 64.5z" />
    <glyph glyph-name="yacute" unicode="&#xfd;" 
d="M125 691h-22v-84h22v30h86v24h-86v30zM103 591v-23h66l-66 -47v-22h108v23h-68l68 50v19h-108zM197.5 381.5q16.5 16.5 16.5 41.5t-16.5 41.5t-40.5 16.5t-40.5 -16.5t-16.5 -41.5t16.5 -41.5t40.5 -16.5t40.5 16.5zM182 447.5q10 -9.5 10 -24.5q0 -14 -10 -24t-25 -10
t-24.5 10t-9.5 24q0 15 9.5 24.5t24.5 9.5t25 -9.5zM125 313v42h-22v-65h108v23h-41v38h-22v-38h-23zM190 242v-42h-87v-24h108v66h-21zM191 129l20 8v26l-108 -44v-23l108 -42v25l-20 7v43zM170 94l-39 14l39 14v-28zM103 16v24h108v-24h-108zM211 -26v26l-41 -24
q-10 20 -31 20q-16 0 -26 -10.5t-10 -27.5v-44h108v23h-37v16zM124 -44q0 7 4 11.5t10 4.5q7 0 11 -4.5t4 -11.5v-19h-29v19zM103 -102h22v-30h86v-24h-86v-30h-22v84z" />
    <glyph glyph-name="ydieresis" unicode="&#xff;" 
d="M125 691h-22v-84h22v30h86v24h-86v30zM103 591v-23h66l-66 -47v-22h108v23h-68l68 50v19h-108zM197.5 381.5q16.5 16.5 16.5 41.5t-16.5 41.5t-40.5 16.5t-40.5 -16.5t-16.5 -41.5t16.5 -41.5t40.5 -16.5t40.5 16.5zM182 447.5q10 -9.5 10 -24.5q0 -14 -10 -24t-25 -10
t-24.5 10t-9.5 24q0 15 9.5 24.5t24.5 9.5t25 -9.5zM125 313v42h-22v-65h108v23h-41v38h-22v-38h-23zM190 242v-42h-87v-24h108v66h-21zM191 129l20 8v26l-108 -44v-23l108 -42v25l-20 7v43zM170 94l-39 14l39 14v-28zM103 16v24h108v-24h-108zM211 -26v26l-41 -24
q-10 20 -31 20q-16 0 -26 -10.5t-10 -27.5v-44h108v23h-37v16zM124 -44q0 7 4 11.5t10 4.5q7 0 11 -4.5t4 -11.5v-19h-29v19zM103 -102h22v-30h86v-24h-86v-30h-22v84z" />
    <glyph glyph-name="z" unicode="z" horiz-adv-x="478" 
d="M31 0v54l245 315l32 42l-1 2q-14 -2 -43 -2h-216v83h392v-50l-249 -322q-19 -26 -30 -38l1 -2q14 2 43 2h237v-84h-411z" />
    <glyph glyph-name="zcaron" unicode="&#x17e;" 
d="M125 691h-22v-84h22v30h86v24h-86v30zM103 591v-23h66l-66 -47v-22h108v23h-68l68 50v19h-108zM197.5 381.5q16.5 16.5 16.5 41.5t-16.5 41.5t-40.5 16.5t-40.5 -16.5t-16.5 -41.5t16.5 -41.5t40.5 -16.5t40.5 16.5zM182 447.5q10 -9.5 10 -24.5q0 -14 -10 -24t-25 -10
t-24.5 10t-9.5 24q0 15 9.5 24.5t24.5 9.5t25 -9.5zM125 313v42h-22v-65h108v23h-41v38h-22v-38h-23zM190 242v-42h-87v-24h108v66h-21zM191 129l20 8v26l-108 -44v-23l108 -42v25l-20 7v43zM170 94l-39 14l39 14v-28zM103 16v24h108v-24h-108zM211 -26v26l-41 -24
q-10 20 -31 20q-16 0 -26 -10.5t-10 -27.5v-44h108v23h-37v16zM124 -44q0 7 4 11.5t10 4.5q7 0 11 -4.5t4 -11.5v-19h-29v19zM103 -102h22v-30h86v-24h-86v-30h-22v84z" />
    <glyph glyph-name="aacute.ss01" 
d="M125 691h-22v-84h22v30h86v24h-86v30zM103 591v-23h66l-66 -47v-22h108v23h-68l68 50v19h-108zM197.5 381.5q16.5 16.5 16.5 41.5t-16.5 41.5t-40.5 16.5t-40.5 -16.5t-16.5 -41.5t16.5 -41.5t40.5 -16.5t40.5 16.5zM182 447.5q10 -9.5 10 -24.5q0 -14 -10 -24t-25 -10
t-24.5 10t-9.5 24q0 15 9.5 24.5t24.5 9.5t25 -9.5zM125 313v42h-22v-65h108v23h-41v38h-22v-38h-23zM190 242v-42h-87v-24h108v66h-21zM191 129l20 8v26l-108 -44v-23l108 -42v25l-20 7v43zM170 94l-39 14l39 14v-28zM103 16v24h108v-24h-108zM211 -26v26l-41 -24
q-10 20 -31 20q-16 0 -26 -10.5t-10 -27.5v-44h108v23h-37v16zM124 -44q0 7 4 11.5t10 4.5q7 0 11 -4.5t4 -11.5v-19h-29v19zM103 -102h22v-30h86v-24h-86v-30h-22v84z" />
    <glyph glyph-name="ordfeminine" unicode="&#xaa;" 
d="M125 691h-22v-84h22v30h86v24h-86v30zM103 591v-23h66l-66 -47v-22h108v23h-68l68 50v19h-108zM197.5 381.5q16.5 16.5 16.5 41.5t-16.5 41.5t-40.5 16.5t-40.5 -16.5t-16.5 -41.5t16.5 -41.5t40.5 -16.5t40.5 16.5zM182 447.5q10 -9.5 10 -24.5q0 -14 -10 -24t-25 -10
t-24.5 10t-9.5 24q0 15 9.5 24.5t24.5 9.5t25 -9.5zM125 313v42h-22v-65h108v23h-41v38h-22v-38h-23zM190 242v-42h-87v-24h108v66h-21zM191 129l20 8v26l-108 -44v-23l108 -42v25l-20 7v43zM170 94l-39 14l39 14v-28zM103 16v24h108v-24h-108zM211 -26v26l-41 -24
q-10 20 -31 20q-16 0 -26 -10.5t-10 -27.5v-44h108v23h-37v16zM124 -44q0 7 4 11.5t10 4.5q7 0 11 -4.5t4 -11.5v-19h-29v19zM103 -102h22v-30h86v-24h-86v-30h-22v84z" />
    <glyph glyph-name="ordmasculine" unicode="&#xba;" 
d="M125 691h-22v-84h22v30h86v24h-86v30zM103 591v-23h66l-66 -47v-22h108v23h-68l68 50v19h-108zM197.5 381.5q16.5 16.5 16.5 41.5t-16.5 41.5t-40.5 16.5t-40.5 -16.5t-16.5 -41.5t16.5 -41.5t40.5 -16.5t40.5 16.5zM182 447.5q10 -9.5 10 -24.5q0 -14 -10 -24t-25 -10
t-24.5 10t-9.5 24q0 15 9.5 24.5t24.5 9.5t25 -9.5zM125 313v42h-22v-65h108v23h-41v38h-22v-38h-23zM190 242v-42h-87v-24h108v66h-21zM191 129l20 8v26l-108 -44v-23l108 -42v25l-20 7v43zM170 94l-39 14l39 14v-28zM103 16v24h108v-24h-108zM211 -26v26l-41 -24
q-10 20 -31 20q-16 0 -26 -10.5t-10 -27.5v-44h108v23h-37v16zM124 -44q0 7 4 11.5t10 4.5q7 0 11 -4.5t4 -11.5v-19h-29v19zM103 -102h22v-30h86v-24h-86v-30h-22v84z" />
    <glyph glyph-name="zero" unicode="0" horiz-adv-x="705" 
d="M194.5 30q-64.5 43 -98.5 124t-34 194t35 195t101 126t156 44q89 0 153.5 -43t98.5 -124.5t34 -193.5t-35 -194.5t-101 -126.5t-156 -44q-89 0 -153.5 43zM492.5 148q49.5 70 49.5 201t-49.5 202t-140.5 71q-93 0 -142.5 -70t-49.5 -200q0 -133 49 -203.5t142 -70.5
q92 0 141.5 70z" />
    <glyph glyph-name="one" unicode="1" horiz-adv-x="393" 
d="M45 623l224 82h13v-705h-98v579l-139 -51v95z" />
    <glyph glyph-name="two" unicode="2" horiz-adv-x="586" 
d="M212.5 232q-38.5 -26 -55.5 -57.5t-21 -81.5h395v-93h-498q0 109 21 174t72 109t148 83q83 34 122 71t39 83q0 45 -38.5 72t-101.5 27q-99 0 -185 -75l-59 67q53 47 117 73t130 26q68 0 121.5 -24t83.5 -67t30 -97q0 -143 -207 -232q-75 -32 -113.5 -58z" />
    <glyph glyph-name="three" unicode="3" horiz-adv-x="584" 
d="M131.5 10q-63.5 20 -115.5 55l45 78q51 -32 95.5 -46.5t96.5 -14.5q83 0 130.5 32.5t47.5 90.5q0 53 -46.5 82.5t-125.5 29.5h-110v90h110q72 0 115 30t43 81q0 48 -41 74.5t-115 26.5q-49 0 -92 -14.5t-92 -45.5l-45 76q48 35 109.5 55t121.5 20q74 0 130.5 -23
t88 -64.5t31.5 -95.5q0 -56 -32.5 -100.5t-86.5 -61.5v-2q63 -16 99 -58.5t36 -103.5q0 -62 -34 -110t-95.5 -74.5t-141.5 -26.5q-63 0 -126.5 20z" />
    <glyph glyph-name="four" unicode="4" horiz-adv-x="632" 
d="M508 233h79v-90h-79v-143h-98v143h-375l-12 91l372 466h113v-467zM410 232v298q0 34 2 59h-2q-5 -7 -14.5 -20.5t-23.5 -31.5l-200 -253l-28 -34l-14 -18l1 -2q24 2 57 2h222z" />
    <glyph glyph-name="five" unicode="5" horiz-adv-x="599" 
d="M440.5 419.5q53.5 -27.5 82.5 -78.5t29 -119q0 -70 -32.5 -122.5t-93 -81t-141.5 -28.5q-144 0 -251 75l45 78q55 -32 102 -46.5t99 -14.5q82 0 128 36.5t46 103.5q0 63 -40.5 99t-112.5 36q-39 0 -73 -9t-73 -30l-82 19l19 363h421v-92h-332l-8 -145q-1 -23 -5 -53h2
q65 37 146 37q71 0 124.5 -27.5z" />
    <glyph glyph-name="six" unicode="6" horiz-adv-x="635" 
d="M195.5 29.5q-63.5 42.5 -98.5 123t-35 189.5q0 173 77 271t219 98q58 0 109 -17.5t102 -57.5l-52 -74q-41 30 -79.5 44t-84.5 14q-92 0 -143 -68.5t-51 -182.5q0 -20 2 -33l3 -1q27 52 81.5 81t119.5 29q69 0 122 -28t81.5 -78t28.5 -114q0 -69 -32.5 -123t-90.5 -84.5
t-133 -30.5q-82 0 -145.5 42.5zM455 117.5q44 39.5 44 103.5q0 60 -41 98t-106 38q-48 0 -83 -19t-53.5 -51t-18.5 -70q0 -60 40.5 -99.5t107.5 -39.5q66 0 110 39.5z" />
    <glyph glyph-name="seven" unicode="7" horiz-adv-x="521" 
d="M345 524q23 50 49 87l-2 3q-40 -5 -101 -5h-263v91h476l6 -60l-311 -640h-111z" />
    <glyph glyph-name="eight" unicode="8" horiz-adv-x="649" 
d="M182.5 12.5q-61.5 25.5 -95.5 72t-34 107.5q0 58 32 104t88 68v2q-50 22 -76.5 60.5t-26.5 90.5q0 57 32 101.5t89.5 69.5t132.5 25t133 -24t90 -68t32 -100q0 -54 -27 -93.5t-79 -61.5v-2q58 -22 90.5 -66.5t32.5 -102.5q0 -61 -34 -108.5t-95.5 -73.5t-142.5 -26
q-80 0 -141.5 25.5zM438 428q45 32 45 82q0 53 -44 86t-113 33q-71 0 -116 -31.5t-45 -81.5q0 -54 43.5 -87t113.5 -33q71 0 116 32zM449 108.5q48 32.5 48 87.5q0 57 -47 91.5t-124 34.5q-79 0 -127 -33t-48 -88q0 -57 47 -91t124 -34q79 0 127 32.5z" />
    <glyph glyph-name="nine" unicode="9" horiz-adv-x="635" 
d="M169.5 5q-50.5 18 -102.5 59l52 74q40 -30 79.5 -45t84.5 -15q92 0 143 70.5t51 184.5q0 20 -2 33l-3 1q-25 -52 -81 -84t-123 -32t-119 27t-81.5 77.5t-29.5 118.5q0 70 32.5 124.5t91 84.5t132.5 30q83 0 146 -42t98 -122t35 -189q0 -115 -34.5 -199t-100.5 -129
t-160 -45q-58 0 -108.5 18zM365 359.5q35 20.5 54 54t19 71.5q0 60 -40 98.5t-107 38.5t-111 -39.5t-44 -104.5t40 -102t106 -37q48 0 83 20.5z" />
    <glyph glyph-name="nine.dnom" 
d="M125 691h-22v-84h22v30h86v24h-86v30zM103 591v-23h66l-66 -47v-22h108v23h-68l68 50v19h-108zM197.5 381.5q16.5 16.5 16.5 41.5t-16.5 41.5t-40.5 16.5t-40.5 -16.5t-16.5 -41.5t16.5 -41.5t40.5 -16.5t40.5 16.5zM182 447.5q10 -9.5 10 -24.5q0 -14 -10 -24t-25 -10
t-24.5 10t-9.5 24q0 15 9.5 24.5t24.5 9.5t25 -9.5zM125 313v42h-22v-65h108v23h-41v38h-22v-38h-23zM190 242v-42h-87v-24h108v66h-21zM191 129l20 8v26l-108 -44v-23l108 -42v25l-20 7v43zM170 94l-39 14l39 14v-28zM103 16v24h108v-24h-108zM211 -26v26l-41 -24
q-10 20 -31 20q-16 0 -26 -10.5t-10 -27.5v-44h108v23h-37v16zM124 -44q0 7 4 11.5t10 4.5q7 0 11 -4.5t4 -11.5v-19h-29v19zM103 -102h22v-30h86v-24h-86v-30h-22v84z" />
    <glyph glyph-name="zero.numr" 
d="M125 691h-22v-84h22v30h86v24h-86v30zM103 591v-23h66l-66 -47v-22h108v23h-68l68 50v19h-108zM197.5 381.5q16.5 16.5 16.5 41.5t-16.5 41.5t-40.5 16.5t-40.5 -16.5t-16.5 -41.5t16.5 -41.5t40.5 -16.5t40.5 16.5zM182 447.5q10 -9.5 10 -24.5q0 -14 -10 -24t-25 -10
t-24.5 10t-9.5 24q0 15 9.5 24.5t24.5 9.5t25 -9.5zM125 313v42h-22v-65h108v23h-41v38h-22v-38h-23zM190 242v-42h-87v-24h108v66h-21zM191 129l20 8v26l-108 -44v-23l108 -42v25l-20 7v43zM170 94l-39 14l39 14v-28zM103 16v24h108v-24h-108zM211 -26v26l-41 -24
q-10 20 -31 20q-16 0 -26 -10.5t-10 -27.5v-44h108v23h-37v16zM124 -44q0 7 4 11.5t10 4.5q7 0 11 -4.5t4 -11.5v-19h-29v19zM103 -102h22v-30h86v-24h-86v-30h-22v84z" />
    <glyph glyph-name="uni00B9" unicode="&#xb9;" 
d="M125 691h-22v-84h22v30h86v24h-86v30zM103 591v-23h66l-66 -47v-22h108v23h-68l68 50v19h-108zM197.5 381.5q16.5 16.5 16.5 41.5t-16.5 41.5t-40.5 16.5t-40.5 -16.5t-16.5 -41.5t16.5 -41.5t40.5 -16.5t40.5 16.5zM182 447.5q10 -9.5 10 -24.5q0 -14 -10 -24t-25 -10
t-24.5 10t-9.5 24q0 15 9.5 24.5t24.5 9.5t25 -9.5zM125 313v42h-22v-65h108v23h-41v38h-22v-38h-23zM190 242v-42h-87v-24h108v66h-21zM191 129l20 8v26l-108 -44v-23l108 -42v25l-20 7v43zM170 94l-39 14l39 14v-28zM103 16v24h108v-24h-108zM211 -26v26l-41 -24
q-10 20 -31 20q-16 0 -26 -10.5t-10 -27.5v-44h108v23h-37v16zM124 -44q0 7 4 11.5t10 4.5q7 0 11 -4.5t4 -11.5v-19h-29v19zM103 -102h22v-30h86v-24h-86v-30h-22v84z" />
    <glyph glyph-name="uni00B2" unicode="&#xb2;" 
d="M125 691h-22v-84h22v30h86v24h-86v30zM103 591v-23h66l-66 -47v-22h108v23h-68l68 50v19h-108zM197.5 381.5q16.5 16.5 16.5 41.5t-16.5 41.5t-40.5 16.5t-40.5 -16.5t-16.5 -41.5t16.5 -41.5t40.5 -16.5t40.5 16.5zM182 447.5q10 -9.5 10 -24.5q0 -14 -10 -24t-25 -10
t-24.5 10t-9.5 24q0 15 9.5 24.5t24.5 9.5t25 -9.5zM125 313v42h-22v-65h108v23h-41v38h-22v-38h-23zM190 242v-42h-87v-24h108v66h-21zM191 129l20 8v26l-108 -44v-23l108 -42v25l-20 7v43zM170 94l-39 14l39 14v-28zM103 16v24h108v-24h-108zM211 -26v26l-41 -24
q-10 20 -31 20q-16 0 -26 -10.5t-10 -27.5v-44h108v23h-37v16zM124 -44q0 7 4 11.5t10 4.5q7 0 11 -4.5t4 -11.5v-19h-29v19zM103 -102h22v-30h86v-24h-86v-30h-22v84z" />
    <glyph glyph-name="uni00B3" unicode="&#xb3;" 
d="M125 691h-22v-84h22v30h86v24h-86v30zM103 591v-23h66l-66 -47v-22h108v23h-68l68 50v19h-108zM197.5 381.5q16.5 16.5 16.5 41.5t-16.5 41.5t-40.5 16.5t-40.5 -16.5t-16.5 -41.5t16.5 -41.5t40.5 -16.5t40.5 16.5zM182 447.5q10 -9.5 10 -24.5q0 -14 -10 -24t-25 -10
t-24.5 10t-9.5 24q0 15 9.5 24.5t24.5 9.5t25 -9.5zM125 313v42h-22v-65h108v23h-41v38h-22v-38h-23zM190 242v-42h-87v-24h108v66h-21zM191 129l20 8v26l-108 -44v-23l108 -42v25l-20 7v43zM170 94l-39 14l39 14v-28zM103 16v24h108v-24h-108zM211 -26v26l-41 -24
q-10 20 -31 20q-16 0 -26 -10.5t-10 -27.5v-44h108v23h-37v16zM124 -44q0 7 4 11.5t10 4.5q7 0 11 -4.5t4 -11.5v-19h-29v19zM103 -102h22v-30h86v-24h-86v-30h-22v84z" />
    <glyph glyph-name="fraction" unicode="&#x2044;" 
d="M125 691h-22v-84h22v30h86v24h-86v30zM103 591v-23h66l-66 -47v-22h108v23h-68l68 50v19h-108zM197.5 381.5q16.5 16.5 16.5 41.5t-16.5 41.5t-40.5 16.5t-40.5 -16.5t-16.5 -41.5t16.5 -41.5t40.5 -16.5t40.5 16.5zM182 447.5q10 -9.5 10 -24.5q0 -14 -10 -24t-25 -10
t-24.5 10t-9.5 24q0 15 9.5 24.5t24.5 9.5t25 -9.5zM125 313v42h-22v-65h108v23h-41v38h-22v-38h-23zM190 242v-42h-87v-24h108v66h-21zM191 129l20 8v26l-108 -44v-23l108 -42v25l-20 7v43zM170 94l-39 14l39 14v-28zM103 16v24h108v-24h-108zM211 -26v26l-41 -24
q-10 20 -31 20q-16 0 -26 -10.5t-10 -27.5v-44h108v23h-37v16zM124 -44q0 7 4 11.5t10 4.5q7 0 11 -4.5t4 -11.5v-19h-29v19zM103 -102h22v-30h86v-24h-86v-30h-22v84z" />
    <glyph glyph-name="onehalf" unicode="&#xbd;" 
d="M125 691h-22v-84h22v30h86v24h-86v30zM103 591v-23h66l-66 -47v-22h108v23h-68l68 50v19h-108zM197.5 381.5q16.5 16.5 16.5 41.5t-16.5 41.5t-40.5 16.5t-40.5 -16.5t-16.5 -41.5t16.5 -41.5t40.5 -16.5t40.5 16.5zM182 447.5q10 -9.5 10 -24.5q0 -14 -10 -24t-25 -10
t-24.5 10t-9.5 24q0 15 9.5 24.5t24.5 9.5t25 -9.5zM125 313v42h-22v-65h108v23h-41v38h-22v-38h-23zM190 242v-42h-87v-24h108v66h-21zM191 129l20 8v26l-108 -44v-23l108 -42v25l-20 7v43zM170 94l-39 14l39 14v-28zM103 16v24h108v-24h-108zM211 -26v26l-41 -24
q-10 20 -31 20q-16 0 -26 -10.5t-10 -27.5v-44h108v23h-37v16zM124 -44q0 7 4 11.5t10 4.5q7 0 11 -4.5t4 -11.5v-19h-29v19zM103 -102h22v-30h86v-24h-86v-30h-22v84z" />
    <glyph glyph-name="uni2153" unicode="&#x2153;" 
d="M125 691h-22v-84h22v30h86v24h-86v30zM103 591v-23h66l-66 -47v-22h108v23h-68l68 50v19h-108zM197.5 381.5q16.5 16.5 16.5 41.5t-16.5 41.5t-40.5 16.5t-40.5 -16.5t-16.5 -41.5t16.5 -41.5t40.5 -16.5t40.5 16.5zM182 447.5q10 -9.5 10 -24.5q0 -14 -10 -24t-25 -10
t-24.5 10t-9.5 24q0 15 9.5 24.5t24.5 9.5t25 -9.5zM125 313v42h-22v-65h108v23h-41v38h-22v-38h-23zM190 242v-42h-87v-24h108v66h-21zM191 129l20 8v26l-108 -44v-23l108 -42v25l-20 7v43zM170 94l-39 14l39 14v-28zM103 16v24h108v-24h-108zM211 -26v26l-41 -24
q-10 20 -31 20q-16 0 -26 -10.5t-10 -27.5v-44h108v23h-37v16zM124 -44q0 7 4 11.5t10 4.5q7 0 11 -4.5t4 -11.5v-19h-29v19zM103 -102h22v-30h86v-24h-86v-30h-22v84z" />
    <glyph glyph-name="uni2154" unicode="&#x2154;" 
d="M125 691h-22v-84h22v30h86v24h-86v30zM103 591v-23h66l-66 -47v-22h108v23h-68l68 50v19h-108zM197.5 381.5q16.5 16.5 16.5 41.5t-16.5 41.5t-40.5 16.5t-40.5 -16.5t-16.5 -41.5t16.5 -41.5t40.5 -16.5t40.5 16.5zM182 447.5q10 -9.5 10 -24.5q0 -14 -10 -24t-25 -10
t-24.5 10t-9.5 24q0 15 9.5 24.5t24.5 9.5t25 -9.5zM125 313v42h-22v-65h108v23h-41v38h-22v-38h-23zM190 242v-42h-87v-24h108v66h-21zM191 129l20 8v26l-108 -44v-23l108 -42v25l-20 7v43zM170 94l-39 14l39 14v-28zM103 16v24h108v-24h-108zM211 -26v26l-41 -24
q-10 20 -31 20q-16 0 -26 -10.5t-10 -27.5v-44h108v23h-37v16zM124 -44q0 7 4 11.5t10 4.5q7 0 11 -4.5t4 -11.5v-19h-29v19zM103 -102h22v-30h86v-24h-86v-30h-22v84z" />
    <glyph glyph-name="onequarter" unicode="&#xbc;" 
d="M125 691h-22v-84h22v30h86v24h-86v30zM103 591v-23h66l-66 -47v-22h108v23h-68l68 50v19h-108zM197.5 381.5q16.5 16.5 16.5 41.5t-16.5 41.5t-40.5 16.5t-40.5 -16.5t-16.5 -41.5t16.5 -41.5t40.5 -16.5t40.5 16.5zM182 447.5q10 -9.5 10 -24.5q0 -14 -10 -24t-25 -10
t-24.5 10t-9.5 24q0 15 9.5 24.5t24.5 9.5t25 -9.5zM125 313v42h-22v-65h108v23h-41v38h-22v-38h-23zM190 242v-42h-87v-24h108v66h-21zM191 129l20 8v26l-108 -44v-23l108 -42v25l-20 7v43zM170 94l-39 14l39 14v-28zM103 16v24h108v-24h-108zM211 -26v26l-41 -24
q-10 20 -31 20q-16 0 -26 -10.5t-10 -27.5v-44h108v23h-37v16zM124 -44q0 7 4 11.5t10 4.5q7 0 11 -4.5t4 -11.5v-19h-29v19zM103 -102h22v-30h86v-24h-86v-30h-22v84z" />
    <glyph glyph-name="threequarters" unicode="&#xbe;" 
d="M125 691h-22v-84h22v30h86v24h-86v30zM103 591v-23h66l-66 -47v-22h108v23h-68l68 50v19h-108zM197.5 381.5q16.5 16.5 16.5 41.5t-16.5 41.5t-40.5 16.5t-40.5 -16.5t-16.5 -41.5t16.5 -41.5t40.5 -16.5t40.5 16.5zM182 447.5q10 -9.5 10 -24.5q0 -14 -10 -24t-25 -10
t-24.5 10t-9.5 24q0 15 9.5 24.5t24.5 9.5t25 -9.5zM125 313v42h-22v-65h108v23h-41v38h-22v-38h-23zM190 242v-42h-87v-24h108v66h-21zM191 129l20 8v26l-108 -44v-23l108 -42v25l-20 7v43zM170 94l-39 14l39 14v-28zM103 16v24h108v-24h-108zM211 -26v26l-41 -24
q-10 20 -31 20q-16 0 -26 -10.5t-10 -27.5v-44h108v23h-37v16zM124 -44q0 7 4 11.5t10 4.5q7 0 11 -4.5t4 -11.5v-19h-29v19zM103 -102h22v-30h86v-24h-86v-30h-22v84z" />
    <glyph glyph-name="uni2155" unicode="&#x2155;" 
d="M125 691h-22v-84h22v30h86v24h-86v30zM103 591v-23h66l-66 -47v-22h108v23h-68l68 50v19h-108zM197.5 381.5q16.5 16.5 16.5 41.5t-16.5 41.5t-40.5 16.5t-40.5 -16.5t-16.5 -41.5t16.5 -41.5t40.5 -16.5t40.5 16.5zM182 447.5q10 -9.5 10 -24.5q0 -14 -10 -24t-25 -10
t-24.5 10t-9.5 24q0 15 9.5 24.5t24.5 9.5t25 -9.5zM125 313v42h-22v-65h108v23h-41v38h-22v-38h-23zM190 242v-42h-87v-24h108v66h-21zM191 129l20 8v26l-108 -44v-23l108 -42v25l-20 7v43zM170 94l-39 14l39 14v-28zM103 16v24h108v-24h-108zM211 -26v26l-41 -24
q-10 20 -31 20q-16 0 -26 -10.5t-10 -27.5v-44h108v23h-37v16zM124 -44q0 7 4 11.5t10 4.5q7 0 11 -4.5t4 -11.5v-19h-29v19zM103 -102h22v-30h86v-24h-86v-30h-22v84z" />
    <glyph glyph-name="uni2156" unicode="&#x2156;" 
d="M125 691h-22v-84h22v30h86v24h-86v30zM103 591v-23h66l-66 -47v-22h108v23h-68l68 50v19h-108zM197.5 381.5q16.5 16.5 16.5 41.5t-16.5 41.5t-40.5 16.5t-40.5 -16.5t-16.5 -41.5t16.5 -41.5t40.5 -16.5t40.5 16.5zM182 447.5q10 -9.5 10 -24.5q0 -14 -10 -24t-25 -10
t-24.5 10t-9.5 24q0 15 9.5 24.5t24.5 9.5t25 -9.5zM125 313v42h-22v-65h108v23h-41v38h-22v-38h-23zM190 242v-42h-87v-24h108v66h-21zM191 129l20 8v26l-108 -44v-23l108 -42v25l-20 7v43zM170 94l-39 14l39 14v-28zM103 16v24h108v-24h-108zM211 -26v26l-41 -24
q-10 20 -31 20q-16 0 -26 -10.5t-10 -27.5v-44h108v23h-37v16zM124 -44q0 7 4 11.5t10 4.5q7 0 11 -4.5t4 -11.5v-19h-29v19zM103 -102h22v-30h86v-24h-86v-30h-22v84z" />
    <glyph glyph-name="uni2157" unicode="&#x2157;" 
d="M125 691h-22v-84h22v30h86v24h-86v30zM103 591v-23h66l-66 -47v-22h108v23h-68l68 50v19h-108zM197.5 381.5q16.5 16.5 16.5 41.5t-16.5 41.5t-40.5 16.5t-40.5 -16.5t-16.5 -41.5t16.5 -41.5t40.5 -16.5t40.5 16.5zM182 447.5q10 -9.5 10 -24.5q0 -14 -10 -24t-25 -10
t-24.5 10t-9.5 24q0 15 9.5 24.5t24.5 9.5t25 -9.5zM125 313v42h-22v-65h108v23h-41v38h-22v-38h-23zM190 242v-42h-87v-24h108v66h-21zM191 129l20 8v26l-108 -44v-23l108 -42v25l-20 7v43zM170 94l-39 14l39 14v-28zM103 16v24h108v-24h-108zM211 -26v26l-41 -24
q-10 20 -31 20q-16 0 -26 -10.5t-10 -27.5v-44h108v23h-37v16zM124 -44q0 7 4 11.5t10 4.5q7 0 11 -4.5t4 -11.5v-19h-29v19zM103 -102h22v-30h86v-24h-86v-30h-22v84z" />
    <glyph glyph-name="period" unicode="." horiz-adv-x="257" 
d="M86 8q-17 17 -17 42q0 26 17 42.5t42 16.5q26 0 43 -16.5t17 -42.5t-17 -42.5t-43 -16.5q-25 0 -42 17z" />
    <glyph glyph-name="comma" unicode="," horiz-adv-x="257" 
d="M174 91q16 -18 16 -48q0 -58 -63 -174l-50 24q14 32 22 55t12 50q-19 5 -30 19t-11 33q0 26 17 42.5t43 16.5q28 0 44 -18z" />
    <glyph glyph-name="colon" unicode=":" horiz-adv-x="259" 
d="M93 303.5q-17 16.5 -17 41.5q0 26 17 42.5t42 16.5q26 0 43 -16.5t17 -42.5q0 -25 -17 -41.5t-43 -16.5q-25 0 -42 16.5zM93 8q-17 17 -17 42q0 26 17 42.5t42 16.5q26 0 43 -16.5t17 -42.5t-17 -42.5t-43 -16.5q-25 0 -42 17z" />
    <glyph glyph-name="semicolon" unicode=";" horiz-adv-x="257" 
d="M87 303.5q-17 16.5 -17 41.5q0 26 17 42.5t42 16.5q26 0 43 -16.5t17 -42.5q0 -25 -17 -41.5t-43 -16.5q-25 0 -42 16.5zM174 91q16 -18 16 -48q0 -58 -63 -174l-50 24q14 32 22 55t12 50q-19 5 -30 19t-11 33q0 26 17 42.5t43 16.5q28 0 44 -18z" />
    <glyph glyph-name="ellipsis" unicode="&#x2026;" horiz-adv-x="662" 
d="M86 8q-17 17 -17 42q0 26 17 42.5t42 16.5q26 0 43 -16.5t17 -42.5t-17 -42.5t-43 -16.5q-25 0 -42 17zM289.5 7.5q-16.5 16.5 -16.5 42.5t16.5 42.5t42.5 16.5t43 -16.5t17 -42.5t-17 -42.5t-43 -16.5t-42.5 16.5zM491 7.5q-17 16.5 -17 42.5t17 42.5t43 16.5
t42.5 -16.5t16.5 -42.5q0 -25 -16.5 -42t-42.5 -17t-43 16.5z" />
    <glyph glyph-name="exclam" unicode="!" horiz-adv-x="287" 
d="M195 181h-88l-4 519h96zM108.5 7.5q-16.5 16.5 -16.5 42.5t16.5 42.5t42.5 16.5t43 -16.5t17 -42.5t-17 -42.5t-43 -16.5t-42.5 16.5z" />
    <glyph glyph-name="exclamdown" unicode="&#xa1;" 
d="M125 691h-22v-84h22v30h86v24h-86v30zM103 591v-23h66l-66 -47v-22h108v23h-68l68 50v19h-108zM197.5 381.5q16.5 16.5 16.5 41.5t-16.5 41.5t-40.5 16.5t-40.5 -16.5t-16.5 -41.5t16.5 -41.5t40.5 -16.5t40.5 16.5zM182 447.5q10 -9.5 10 -24.5q0 -14 -10 -24t-25 -10
t-24.5 10t-9.5 24q0 15 9.5 24.5t24.5 9.5t25 -9.5zM125 313v42h-22v-65h108v23h-41v38h-22v-38h-23zM190 242v-42h-87v-24h108v66h-21zM191 129l20 8v26l-108 -44v-23l108 -42v25l-20 7v43zM170 94l-39 14l39 14v-28zM103 16v24h108v-24h-108zM211 -26v26l-41 -24
q-10 20 -31 20q-16 0 -26 -10.5t-10 -27.5v-44h108v23h-37v16zM124 -44q0 7 4 11.5t10 4.5q7 0 11 -4.5t4 -11.5v-19h-29v19zM103 -102h22v-30h86v-24h-86v-30h-22v84z" />
    <glyph glyph-name="question" unicode="?" horiz-adv-x="523" 
d="M163 225q0 57 25.5 94t86.5 65q51 23 74 52t23 70q0 52 -35 81.5t-97 29.5q-44 0 -86 -14.5t-90 -46.5l-45 76q50 37 106.5 56t114.5 19q105 0 167.5 -53.5t62.5 -144.5q0 -135 -127 -197q-50 -24 -66.5 -43t-16.5 -52v-36h-97v44zM169 7.5q-17 16.5 -17 42.5t17 42.5
t43 16.5t42.5 -16.5t16.5 -42.5t-16.5 -42.5t-42.5 -16.5t-43 16.5z" />
    <glyph glyph-name="questiondown" unicode="&#xbf;" 
d="M125 691h-22v-84h22v30h86v24h-86v30zM103 591v-23h66l-66 -47v-22h108v23h-68l68 50v19h-108zM197.5 381.5q16.5 16.5 16.5 41.5t-16.5 41.5t-40.5 16.5t-40.5 -16.5t-16.5 -41.5t16.5 -41.5t40.5 -16.5t40.5 16.5zM182 447.5q10 -9.5 10 -24.5q0 -14 -10 -24t-25 -10
t-24.5 10t-9.5 24q0 15 9.5 24.5t24.5 9.5t25 -9.5zM125 313v42h-22v-65h108v23h-41v38h-22v-38h-23zM190 242v-42h-87v-24h108v66h-21zM191 129l20 8v26l-108 -44v-23l108 -42v25l-20 7v43zM170 94l-39 14l39 14v-28zM103 16v24h108v-24h-108zM211 -26v26l-41 -24
q-10 20 -31 20q-16 0 -26 -10.5t-10 -27.5v-44h108v23h-37v16zM124 -44q0 7 4 11.5t10 4.5q7 0 11 -4.5t4 -11.5v-19h-29v19zM103 -102h22v-30h86v-24h-86v-30h-22v84z" />
    <glyph glyph-name="periodcentered" unicode="&#xb7;" 
d="M125 691h-22v-84h22v30h86v24h-86v30zM103 591v-23h66l-66 -47v-22h108v23h-68l68 50v19h-108zM197.5 381.5q16.5 16.5 16.5 41.5t-16.5 41.5t-40.5 16.5t-40.5 -16.5t-16.5 -41.5t16.5 -41.5t40.5 -16.5t40.5 16.5zM182 447.5q10 -9.5 10 -24.5q0 -14 -10 -24t-25 -10
t-24.5 10t-9.5 24q0 15 9.5 24.5t24.5 9.5t25 -9.5zM125 313v42h-22v-65h108v23h-41v38h-22v-38h-23zM190 242v-42h-87v-24h108v66h-21zM191 129l20 8v26l-108 -44v-23l108 -42v25l-20 7v43zM170 94l-39 14l39 14v-28zM103 16v24h108v-24h-108zM211 -26v26l-41 -24
q-10 20 -31 20q-16 0 -26 -10.5t-10 -27.5v-44h108v23h-37v16zM124 -44q0 7 4 11.5t10 4.5q7 0 11 -4.5t4 -11.5v-19h-29v19zM103 -102h22v-30h86v-24h-86v-30h-22v84z" />
    <glyph glyph-name="bullet" unicode="&#x2022;" 
d="M125 691h-22v-84h22v30h86v24h-86v30zM103 591v-23h66l-66 -47v-22h108v23h-68l68 50v19h-108zM197.5 381.5q16.5 16.5 16.5 41.5t-16.5 41.5t-40.5 16.5t-40.5 -16.5t-16.5 -41.5t16.5 -41.5t40.5 -16.5t40.5 16.5zM182 447.5q10 -9.5 10 -24.5q0 -14 -10 -24t-25 -10
t-24.5 10t-9.5 24q0 15 9.5 24.5t24.5 9.5t25 -9.5zM125 313v42h-22v-65h108v23h-41v38h-22v-38h-23zM190 242v-42h-87v-24h108v66h-21zM191 129l20 8v26l-108 -44v-23l108 -42v25l-20 7v43zM170 94l-39 14l39 14v-28zM103 16v24h108v-24h-108zM211 -26v26l-41 -24
q-10 20 -31 20q-16 0 -26 -10.5t-10 -27.5v-44h108v23h-37v16zM124 -44q0 7 4 11.5t10 4.5q7 0 11 -4.5t4 -11.5v-19h-29v19zM103 -102h22v-30h86v-24h-86v-30h-22v84z" />
    <glyph glyph-name="asterisk" unicode="*" 
d="M125 691h-22v-84h22v30h86v24h-86v30zM103 591v-23h66l-66 -47v-22h108v23h-68l68 50v19h-108zM197.5 381.5q16.5 16.5 16.5 41.5t-16.5 41.5t-40.5 16.5t-40.5 -16.5t-16.5 -41.5t16.5 -41.5t40.5 -16.5t40.5 16.5zM182 447.5q10 -9.5 10 -24.5q0 -14 -10 -24t-25 -10
t-24.5 10t-9.5 24q0 15 9.5 24.5t24.5 9.5t25 -9.5zM125 313v42h-22v-65h108v23h-41v38h-22v-38h-23zM190 242v-42h-87v-24h108v66h-21zM191 129l20 8v26l-108 -44v-23l108 -42v25l-20 7v43zM170 94l-39 14l39 14v-28zM103 16v24h108v-24h-108zM211 -26v26l-41 -24
q-10 20 -31 20q-16 0 -26 -10.5t-10 -27.5v-44h108v23h-37v16zM124 -44q0 7 4 11.5t10 4.5q7 0 11 -4.5t4 -11.5v-19h-29v19zM103 -102h22v-30h86v-24h-86v-30h-22v84z" />
    <glyph glyph-name="numbersign" unicode="#" 
d="M125 691h-22v-84h22v30h86v24h-86v30zM103 591v-23h66l-66 -47v-22h108v23h-68l68 50v19h-108zM197.5 381.5q16.5 16.5 16.5 41.5t-16.5 41.5t-40.5 16.5t-40.5 -16.5t-16.5 -41.5t16.5 -41.5t40.5 -16.5t40.5 16.5zM182 447.5q10 -9.5 10 -24.5q0 -14 -10 -24t-25 -10
t-24.5 10t-9.5 24q0 15 9.5 24.5t24.5 9.5t25 -9.5zM125 313v42h-22v-65h108v23h-41v38h-22v-38h-23zM190 242v-42h-87v-24h108v66h-21zM191 129l20 8v26l-108 -44v-23l108 -42v25l-20 7v43zM170 94l-39 14l39 14v-28zM103 16v24h108v-24h-108zM211 -26v26l-41 -24
q-10 20 -31 20q-16 0 -26 -10.5t-10 -27.5v-44h108v23h-37v16zM124 -44q0 7 4 11.5t10 4.5q7 0 11 -4.5t4 -11.5v-19h-29v19zM103 -102h22v-30h86v-24h-86v-30h-22v84z" />
    <glyph glyph-name="slash" unicode="/" 
d="M125 691h-22v-84h22v30h86v24h-86v30zM103 591v-23h66l-66 -47v-22h108v23h-68l68 50v19h-108zM197.5 381.5q16.5 16.5 16.5 41.5t-16.5 41.5t-40.5 16.5t-40.5 -16.5t-16.5 -41.5t16.5 -41.5t40.5 -16.5t40.5 16.5zM182 447.5q10 -9.5 10 -24.5q0 -14 -10 -24t-25 -10
t-24.5 10t-9.5 24q0 15 9.5 24.5t24.5 9.5t25 -9.5zM125 313v42h-22v-65h108v23h-41v38h-22v-38h-23zM190 242v-42h-87v-24h108v66h-21zM191 129l20 8v26l-108 -44v-23l108 -42v25l-20 7v43zM170 94l-39 14l39 14v-28zM103 16v24h108v-24h-108zM211 -26v26l-41 -24
q-10 20 -31 20q-16 0 -26 -10.5t-10 -27.5v-44h108v23h-37v16zM124 -44q0 7 4 11.5t10 4.5q7 0 11 -4.5t4 -11.5v-19h-29v19zM103 -102h22v-30h86v-24h-86v-30h-22v84z" />
    <glyph glyph-name="backslash" unicode="\" 
d="M125 691h-22v-84h22v30h86v24h-86v30zM103 591v-23h66l-66 -47v-22h108v23h-68l68 50v19h-108zM197.5 381.5q16.5 16.5 16.5 41.5t-16.5 41.5t-40.5 16.5t-40.5 -16.5t-16.5 -41.5t16.5 -41.5t40.5 -16.5t40.5 16.5zM182 447.5q10 -9.5 10 -24.5q0 -14 -10 -24t-25 -10
t-24.5 10t-9.5 24q0 15 9.5 24.5t24.5 9.5t25 -9.5zM125 313v42h-22v-65h108v23h-41v38h-22v-38h-23zM190 242v-42h-87v-24h108v66h-21zM191 129l20 8v26l-108 -44v-23l108 -42v25l-20 7v43zM170 94l-39 14l39 14v-28zM103 16v24h108v-24h-108zM211 -26v26l-41 -24
q-10 20 -31 20q-16 0 -26 -10.5t-10 -27.5v-44h108v23h-37v16zM124 -44q0 7 4 11.5t10 4.5q7 0 11 -4.5t4 -11.5v-19h-29v19zM103 -102h22v-30h86v-24h-86v-30h-22v84z" />
    <glyph glyph-name="parenleft" unicode="(" 
d="M125 691h-22v-84h22v30h86v24h-86v30zM103 591v-23h66l-66 -47v-22h108v23h-68l68 50v19h-108zM197.5 381.5q16.5 16.5 16.5 41.5t-16.5 41.5t-40.5 16.5t-40.5 -16.5t-16.5 -41.5t16.5 -41.5t40.5 -16.5t40.5 16.5zM182 447.5q10 -9.5 10 -24.5q0 -14 -10 -24t-25 -10
t-24.5 10t-9.5 24q0 15 9.5 24.5t24.5 9.5t25 -9.5zM125 313v42h-22v-65h108v23h-41v38h-22v-38h-23zM190 242v-42h-87v-24h108v66h-21zM191 129l20 8v26l-108 -44v-23l108 -42v25l-20 7v43zM170 94l-39 14l39 14v-28zM103 16v24h108v-24h-108zM211 -26v26l-41 -24
q-10 20 -31 20q-16 0 -26 -10.5t-10 -27.5v-44h108v23h-37v16zM124 -44q0 7 4 11.5t10 4.5q7 0 11 -4.5t4 -11.5v-19h-29v19zM103 -102h22v-30h86v-24h-86v-30h-22v84z" />
    <glyph glyph-name="parenright" unicode=")" 
d="M125 691h-22v-84h22v30h86v24h-86v30zM103 591v-23h66l-66 -47v-22h108v23h-68l68 50v19h-108zM197.5 381.5q16.5 16.5 16.5 41.5t-16.5 41.5t-40.5 16.5t-40.5 -16.5t-16.5 -41.5t16.5 -41.5t40.5 -16.5t40.5 16.5zM182 447.5q10 -9.5 10 -24.5q0 -14 -10 -24t-25 -10
t-24.5 10t-9.5 24q0 15 9.5 24.5t24.5 9.5t25 -9.5zM125 313v42h-22v-65h108v23h-41v38h-22v-38h-23zM190 242v-42h-87v-24h108v66h-21zM191 129l20 8v26l-108 -44v-23l108 -42v25l-20 7v43zM170 94l-39 14l39 14v-28zM103 16v24h108v-24h-108zM211 -26v26l-41 -24
q-10 20 -31 20q-16 0 -26 -10.5t-10 -27.5v-44h108v23h-37v16zM124 -44q0 7 4 11.5t10 4.5q7 0 11 -4.5t4 -11.5v-19h-29v19zM103 -102h22v-30h86v-24h-86v-30h-22v84z" />
    <glyph glyph-name="braceleft" unicode="{" 
d="M125 691h-22v-84h22v30h86v24h-86v30zM103 591v-23h66l-66 -47v-22h108v23h-68l68 50v19h-108zM197.5 381.5q16.5 16.5 16.5 41.5t-16.5 41.5t-40.5 16.5t-40.5 -16.5t-16.5 -41.5t16.5 -41.5t40.5 -16.5t40.5 16.5zM182 447.5q10 -9.5 10 -24.5q0 -14 -10 -24t-25 -10
t-24.5 10t-9.5 24q0 15 9.5 24.5t24.5 9.5t25 -9.5zM125 313v42h-22v-65h108v23h-41v38h-22v-38h-23zM190 242v-42h-87v-24h108v66h-21zM191 129l20 8v26l-108 -44v-23l108 -42v25l-20 7v43zM170 94l-39 14l39 14v-28zM103 16v24h108v-24h-108zM211 -26v26l-41 -24
q-10 20 -31 20q-16 0 -26 -10.5t-10 -27.5v-44h108v23h-37v16zM124 -44q0 7 4 11.5t10 4.5q7 0 11 -4.5t4 -11.5v-19h-29v19zM103 -102h22v-30h86v-24h-86v-30h-22v84z" />
    <glyph glyph-name="braceright" unicode="}" 
d="M125 691h-22v-84h22v30h86v24h-86v30zM103 591v-23h66l-66 -47v-22h108v23h-68l68 50v19h-108zM197.5 381.5q16.5 16.5 16.5 41.5t-16.5 41.5t-40.5 16.5t-40.5 -16.5t-16.5 -41.5t16.5 -41.5t40.5 -16.5t40.5 16.5zM182 447.5q10 -9.5 10 -24.5q0 -14 -10 -24t-25 -10
t-24.5 10t-9.5 24q0 15 9.5 24.5t24.5 9.5t25 -9.5zM125 313v42h-22v-65h108v23h-41v38h-22v-38h-23zM190 242v-42h-87v-24h108v66h-21zM191 129l20 8v26l-108 -44v-23l108 -42v25l-20 7v43zM170 94l-39 14l39 14v-28zM103 16v24h108v-24h-108zM211 -26v26l-41 -24
q-10 20 -31 20q-16 0 -26 -10.5t-10 -27.5v-44h108v23h-37v16zM124 -44q0 7 4 11.5t10 4.5q7 0 11 -4.5t4 -11.5v-19h-29v19zM103 -102h22v-30h86v-24h-86v-30h-22v84z" />
    <glyph glyph-name="bracketleft" unicode="[" 
d="M125 691h-22v-84h22v30h86v24h-86v30zM103 591v-23h66l-66 -47v-22h108v23h-68l68 50v19h-108zM197.5 381.5q16.5 16.5 16.5 41.5t-16.5 41.5t-40.5 16.5t-40.5 -16.5t-16.5 -41.5t16.5 -41.5t40.5 -16.5t40.5 16.5zM182 447.5q10 -9.5 10 -24.5q0 -14 -10 -24t-25 -10
t-24.5 10t-9.5 24q0 15 9.5 24.5t24.5 9.5t25 -9.5zM125 313v42h-22v-65h108v23h-41v38h-22v-38h-23zM190 242v-42h-87v-24h108v66h-21zM191 129l20 8v26l-108 -44v-23l108 -42v25l-20 7v43zM170 94l-39 14l39 14v-28zM103 16v24h108v-24h-108zM211 -26v26l-41 -24
q-10 20 -31 20q-16 0 -26 -10.5t-10 -27.5v-44h108v23h-37v16zM124 -44q0 7 4 11.5t10 4.5q7 0 11 -4.5t4 -11.5v-19h-29v19zM103 -102h22v-30h86v-24h-86v-30h-22v84z" />
    <glyph glyph-name="bracketright" unicode="]" 
d="M125 691h-22v-84h22v30h86v24h-86v30zM103 591v-23h66l-66 -47v-22h108v23h-68l68 50v19h-108zM197.5 381.5q16.5 16.5 16.5 41.5t-16.5 41.5t-40.5 16.5t-40.5 -16.5t-16.5 -41.5t16.5 -41.5t40.5 -16.5t40.5 16.5zM182 447.5q10 -9.5 10 -24.5q0 -14 -10 -24t-25 -10
t-24.5 10t-9.5 24q0 15 9.5 24.5t24.5 9.5t25 -9.5zM125 313v42h-22v-65h108v23h-41v38h-22v-38h-23zM190 242v-42h-87v-24h108v66h-21zM191 129l20 8v26l-108 -44v-23l108 -42v25l-20 7v43zM170 94l-39 14l39 14v-28zM103 16v24h108v-24h-108zM211 -26v26l-41 -24
q-10 20 -31 20q-16 0 -26 -10.5t-10 -27.5v-44h108v23h-37v16zM124 -44q0 7 4 11.5t10 4.5q7 0 11 -4.5t4 -11.5v-19h-29v19zM103 -102h22v-30h86v-24h-86v-30h-22v84z" />
    <glyph glyph-name="hyphen" unicode="-" horiz-adv-x="505" 
d="M433 247h-361v84h361v-84z" />
    <glyph glyph-name="uni00AD" unicode="&#xad;" 
d="M125 691h-22v-84h22v30h86v24h-86v30zM103 591v-23h66l-66 -47v-22h108v23h-68l68 50v19h-108zM197.5 381.5q16.5 16.5 16.5 41.5t-16.5 41.5t-40.5 16.5t-40.5 -16.5t-16.5 -41.5t16.5 -41.5t40.5 -16.5t40.5 16.5zM182 447.5q10 -9.5 10 -24.5q0 -14 -10 -24t-25 -10
t-24.5 10t-9.5 24q0 15 9.5 24.5t24.5 9.5t25 -9.5zM125 313v42h-22v-65h108v23h-41v38h-22v-38h-23zM190 242v-42h-87v-24h108v66h-21zM191 129l20 8v26l-108 -44v-23l108 -42v25l-20 7v43zM170 94l-39 14l39 14v-28zM103 16v24h108v-24h-108zM211 -26v26l-41 -24
q-10 20 -31 20q-16 0 -26 -10.5t-10 -27.5v-44h108v23h-37v16zM124 -44q0 7 4 11.5t10 4.5q7 0 11 -4.5t4 -11.5v-19h-29v19zM103 -102h22v-30h86v-24h-86v-30h-22v84z" />
    <glyph glyph-name="endash" unicode="&#x2013;" horiz-adv-x="606" 
d="M534 247h-462v84h462v-84z" />
    <glyph glyph-name="emdash" unicode="&#x2014;" horiz-adv-x="706" 
d="M634 247h-562v84h562v-84z" />
    <glyph glyph-name="underscore" unicode="_" 
d="M125 691h-22v-84h22v30h86v24h-86v30zM103 591v-23h66l-66 -47v-22h108v23h-68l68 50v19h-108zM197.5 381.5q16.5 16.5 16.5 41.5t-16.5 41.5t-40.5 16.5t-40.5 -16.5t-16.5 -41.5t16.5 -41.5t40.5 -16.5t40.5 16.5zM182 447.5q10 -9.5 10 -24.5q0 -14 -10 -24t-25 -10
t-24.5 10t-9.5 24q0 15 9.5 24.5t24.5 9.5t25 -9.5zM125 313v42h-22v-65h108v23h-41v38h-22v-38h-23zM190 242v-42h-87v-24h108v66h-21zM191 129l20 8v26l-108 -44v-23l108 -42v25l-20 7v43zM170 94l-39 14l39 14v-28zM103 16v24h108v-24h-108zM211 -26v26l-41 -24
q-10 20 -31 20q-16 0 -26 -10.5t-10 -27.5v-44h108v23h-37v16zM124 -44q0 7 4 11.5t10 4.5q7 0 11 -4.5t4 -11.5v-19h-29v19zM103 -102h22v-30h86v-24h-86v-30h-22v84z" />
    <glyph glyph-name="quotesinglbase" unicode="&#x201a;" 
d="M125 691h-22v-84h22v30h86v24h-86v30zM103 591v-23h66l-66 -47v-22h108v23h-68l68 50v19h-108zM197.5 381.5q16.5 16.5 16.5 41.5t-16.5 41.5t-40.5 16.5t-40.5 -16.5t-16.5 -41.5t16.5 -41.5t40.5 -16.5t40.5 16.5zM182 447.5q10 -9.5 10 -24.5q0 -14 -10 -24t-25 -10
t-24.5 10t-9.5 24q0 15 9.5 24.5t24.5 9.5t25 -9.5zM125 313v42h-22v-65h108v23h-41v38h-22v-38h-23zM190 242v-42h-87v-24h108v66h-21zM191 129l20 8v26l-108 -44v-23l108 -42v25l-20 7v43zM170 94l-39 14l39 14v-28zM103 16v24h108v-24h-108zM211 -26v26l-41 -24
q-10 20 -31 20q-16 0 -26 -10.5t-10 -27.5v-44h108v23h-37v16zM124 -44q0 7 4 11.5t10 4.5q7 0 11 -4.5t4 -11.5v-19h-29v19zM103 -102h22v-30h86v-24h-86v-30h-22v84z" />
    <glyph glyph-name="quotedblbase" unicode="&#x201e;" 
d="M125 691h-22v-84h22v30h86v24h-86v30zM103 591v-23h66l-66 -47v-22h108v23h-68l68 50v19h-108zM197.5 381.5q16.5 16.5 16.5 41.5t-16.5 41.5t-40.5 16.5t-40.5 -16.5t-16.5 -41.5t16.5 -41.5t40.5 -16.5t40.5 16.5zM182 447.5q10 -9.5 10 -24.5q0 -14 -10 -24t-25 -10
t-24.5 10t-9.5 24q0 15 9.5 24.5t24.5 9.5t25 -9.5zM125 313v42h-22v-65h108v23h-41v38h-22v-38h-23zM190 242v-42h-87v-24h108v66h-21zM191 129l20 8v26l-108 -44v-23l108 -42v25l-20 7v43zM170 94l-39 14l39 14v-28zM103 16v24h108v-24h-108zM211 -26v26l-41 -24
q-10 20 -31 20q-16 0 -26 -10.5t-10 -27.5v-44h108v23h-37v16zM124 -44q0 7 4 11.5t10 4.5q7 0 11 -4.5t4 -11.5v-19h-29v19zM103 -102h22v-30h86v-24h-86v-30h-22v84z" />
    <glyph glyph-name="quotedblleft" unicode="&#x201c;" horiz-adv-x="392" 
d="M154 580q10 -13 10 -30q0 -24 -15 -39t-40 -15t-39 16t-14 44q0 56 56 159l46 -23q-25 -54 -31 -95q17 -4 27 -17zM308 580q10 -13 10 -30q0 -24 -15 -39t-40 -15t-39.5 16t-14.5 44q0 54 57 159l46 -23q-24 -50 -31 -95q17 -4 27 -17z" />
    <glyph glyph-name="quotedblright" unicode="&#x201d;" horiz-adv-x="388" 
d="M177.5 691q14.5 -16 14.5 -44q0 -54 -57 -159l-46 23q24 48 32 95q-17 4 -27.5 17t-10.5 31q0 23 15.5 38t39.5 15q25 0 39.5 -16zM331.5 691q14.5 -16 14.5 -44q0 -54 -57 -159l-46 23q24 50 31 95q-17 4 -27 17t-10 31q0 23 15.5 38t39.5 15q25 0 39.5 -16z" />
    <glyph glyph-name="quoteleft" unicode="&#x2018;" horiz-adv-x="238" 
d="M154 580q10 -13 10 -30q0 -24 -15 -39t-40 -15t-39 16t-14 44q0 56 56 159l46 -23q-25 -54 -31 -95q17 -4 27 -17z" />
    <glyph glyph-name="quoteright" unicode="&#x2019;" horiz-adv-x="235" 
d="M177.5 691q14.5 -16 14.5 -44q0 -54 -57 -159l-46 23q24 48 32 95q-17 4 -27.5 17t-10.5 31q0 23 15.5 38t39.5 15q25 0 39.5 -16z" />
    <glyph glyph-name="guillemotleft" unicode="&#xab;" horiz-adv-x="487" 
d="M182 517h100l-142 -220l142 -221h-100l-138 220zM339 517h100l-142 -220l142 -221h-100l-138 220z" />
    <glyph glyph-name="guillemotright" unicode="&#xbb;" horiz-adv-x="510" 
d="M71 517h99l139 -221l-139 -220h-99l141 221zM228 517h99l139 -221l-139 -220h-99l141 221z" />
    <glyph glyph-name="guilsinglleft" unicode="&#x2039;" horiz-adv-x="330" 
d="M182 517h100l-142 -220l142 -221h-100l-138 220z" />
    <glyph glyph-name="guilsinglright" unicode="&#x203a;" horiz-adv-x="353" 
d="M71 517h99l139 -221l-139 -220h-99l141 221z" />
    <glyph glyph-name="quotedbl" unicode="&#x22;" 
d="M125 691h-22v-84h22v30h86v24h-86v30zM103 591v-23h66l-66 -47v-22h108v23h-68l68 50v19h-108zM197.5 381.5q16.5 16.5 16.5 41.5t-16.5 41.5t-40.5 16.5t-40.5 -16.5t-16.5 -41.5t16.5 -41.5t40.5 -16.5t40.5 16.5zM182 447.5q10 -9.5 10 -24.5q0 -14 -10 -24t-25 -10
t-24.5 10t-9.5 24q0 15 9.5 24.5t24.5 9.5t25 -9.5zM125 313v42h-22v-65h108v23h-41v38h-22v-38h-23zM190 242v-42h-87v-24h108v66h-21zM191 129l20 8v26l-108 -44v-23l108 -42v25l-20 7v43zM170 94l-39 14l39 14v-28zM103 16v24h108v-24h-108zM211 -26v26l-41 -24
q-10 20 -31 20q-16 0 -26 -10.5t-10 -27.5v-44h108v23h-37v16zM124 -44q0 7 4 11.5t10 4.5q7 0 11 -4.5t4 -11.5v-19h-29v19zM103 -102h22v-30h86v-24h-86v-30h-22v84z" />
    <glyph glyph-name="quotesingle" unicode="'" 
d="M125 691h-22v-84h22v30h86v24h-86v30zM103 591v-23h66l-66 -47v-22h108v23h-68l68 50v19h-108zM197.5 381.5q16.5 16.5 16.5 41.5t-16.5 41.5t-40.5 16.5t-40.5 -16.5t-16.5 -41.5t16.5 -41.5t40.5 -16.5t40.5 16.5zM182 447.5q10 -9.5 10 -24.5q0 -14 -10 -24t-25 -10
t-24.5 10t-9.5 24q0 15 9.5 24.5t24.5 9.5t25 -9.5zM125 313v42h-22v-65h108v23h-41v38h-22v-38h-23zM190 242v-42h-87v-24h108v66h-21zM191 129l20 8v26l-108 -44v-23l108 -42v25l-20 7v43zM170 94l-39 14l39 14v-28zM103 16v24h108v-24h-108zM211 -26v26l-41 -24
q-10 20 -31 20q-16 0 -26 -10.5t-10 -27.5v-44h108v23h-37v16zM124 -44q0 7 4 11.5t10 4.5q7 0 11 -4.5t4 -11.5v-19h-29v19zM103 -102h22v-30h86v-24h-86v-30h-22v84z" />
    <glyph glyph-name="uni00A0" unicode="&#xa0;" horiz-adv-x="252" 
 />
    <glyph glyph-name="cent" unicode="&#xa2;" 
d="M125 691h-22v-84h22v30h86v24h-86v30zM103 591v-23h66l-66 -47v-22h108v23h-68l68 50v19h-108zM197.5 381.5q16.5 16.5 16.5 41.5t-16.5 41.5t-40.5 16.5t-40.5 -16.5t-16.5 -41.5t16.5 -41.5t40.5 -16.5t40.5 16.5zM182 447.5q10 -9.5 10 -24.5q0 -14 -10 -24t-25 -10
t-24.5 10t-9.5 24q0 15 9.5 24.5t24.5 9.5t25 -9.5zM125 313v42h-22v-65h108v23h-41v38h-22v-38h-23zM190 242v-42h-87v-24h108v66h-21zM191 129l20 8v26l-108 -44v-23l108 -42v25l-20 7v43zM170 94l-39 14l39 14v-28zM103 16v24h108v-24h-108zM211 -26v26l-41 -24
q-10 20 -31 20q-16 0 -26 -10.5t-10 -27.5v-44h108v23h-37v16zM124 -44q0 7 4 11.5t10 4.5q7 0 11 -4.5t4 -11.5v-19h-29v19zM103 -102h22v-30h86v-24h-86v-30h-22v84z" />
    <glyph glyph-name="currency" unicode="&#xa4;" 
d="M125 691h-22v-84h22v30h86v24h-86v30zM103 591v-23h66l-66 -47v-22h108v23h-68l68 50v19h-108zM197.5 381.5q16.5 16.5 16.5 41.5t-16.5 41.5t-40.5 16.5t-40.5 -16.5t-16.5 -41.5t16.5 -41.5t40.5 -16.5t40.5 16.5zM182 447.5q10 -9.5 10 -24.5q0 -14 -10 -24t-25 -10
t-24.5 10t-9.5 24q0 15 9.5 24.5t24.5 9.5t25 -9.5zM125 313v42h-22v-65h108v23h-41v38h-22v-38h-23zM190 242v-42h-87v-24h108v66h-21zM191 129l20 8v26l-108 -44v-23l108 -42v25l-20 7v43zM170 94l-39 14l39 14v-28zM103 16v24h108v-24h-108zM211 -26v26l-41 -24
q-10 20 -31 20q-16 0 -26 -10.5t-10 -27.5v-44h108v23h-37v16zM124 -44q0 7 4 11.5t10 4.5q7 0 11 -4.5t4 -11.5v-19h-29v19zM103 -102h22v-30h86v-24h-86v-30h-22v84z" />
    <glyph glyph-name="dollar" unicode="$" 
d="M125 691h-22v-84h22v30h86v24h-86v30zM103 591v-23h66l-66 -47v-22h108v23h-68l68 50v19h-108zM197.5 381.5q16.5 16.5 16.5 41.5t-16.5 41.5t-40.5 16.5t-40.5 -16.5t-16.5 -41.5t16.5 -41.5t40.5 -16.5t40.5 16.5zM182 447.5q10 -9.5 10 -24.5q0 -14 -10 -24t-25 -10
t-24.5 10t-9.5 24q0 15 9.5 24.5t24.5 9.5t25 -9.5zM125 313v42h-22v-65h108v23h-41v38h-22v-38h-23zM190 242v-42h-87v-24h108v66h-21zM191 129l20 8v26l-108 -44v-23l108 -42v25l-20 7v43zM170 94l-39 14l39 14v-28zM103 16v24h108v-24h-108zM211 -26v26l-41 -24
q-10 20 -31 20q-16 0 -26 -10.5t-10 -27.5v-44h108v23h-37v16zM124 -44q0 7 4 11.5t10 4.5q7 0 11 -4.5t4 -11.5v-19h-29v19zM103 -102h22v-30h86v-24h-86v-30h-22v84z" />
    <glyph glyph-name="Euro" unicode="&#x20ac;" 
d="M125 691h-22v-84h22v30h86v24h-86v30zM103 591v-23h66l-66 -47v-22h108v23h-68l68 50v19h-108zM197.5 381.5q16.5 16.5 16.5 41.5t-16.5 41.5t-40.5 16.5t-40.5 -16.5t-16.5 -41.5t16.5 -41.5t40.5 -16.5t40.5 16.5zM182 447.5q10 -9.5 10 -24.5q0 -14 -10 -24t-25 -10
t-24.5 10t-9.5 24q0 15 9.5 24.5t24.5 9.5t25 -9.5zM125 313v42h-22v-65h108v23h-41v38h-22v-38h-23zM190 242v-42h-87v-24h108v66h-21zM191 129l20 8v26l-108 -44v-23l108 -42v25l-20 7v43zM170 94l-39 14l39 14v-28zM103 16v24h108v-24h-108zM211 -26v26l-41 -24
q-10 20 -31 20q-16 0 -26 -10.5t-10 -27.5v-44h108v23h-37v16zM124 -44q0 7 4 11.5t10 4.5q7 0 11 -4.5t4 -11.5v-19h-29v19zM103 -102h22v-30h86v-24h-86v-30h-22v84z" />
    <glyph glyph-name="florin" unicode="&#x192;" 
d="M125 691h-22v-84h22v30h86v24h-86v30zM103 591v-23h66l-66 -47v-22h108v23h-68l68 50v19h-108zM197.5 381.5q16.5 16.5 16.5 41.5t-16.5 41.5t-40.5 16.5t-40.5 -16.5t-16.5 -41.5t16.5 -41.5t40.5 -16.5t40.5 16.5zM182 447.5q10 -9.5 10 -24.5q0 -14 -10 -24t-25 -10
t-24.5 10t-9.5 24q0 15 9.5 24.5t24.5 9.5t25 -9.5zM125 313v42h-22v-65h108v23h-41v38h-22v-38h-23zM190 242v-42h-87v-24h108v66h-21zM191 129l20 8v26l-108 -44v-23l108 -42v25l-20 7v43zM170 94l-39 14l39 14v-28zM103 16v24h108v-24h-108zM211 -26v26l-41 -24
q-10 20 -31 20q-16 0 -26 -10.5t-10 -27.5v-44h108v23h-37v16zM124 -44q0 7 4 11.5t10 4.5q7 0 11 -4.5t4 -11.5v-19h-29v19zM103 -102h22v-30h86v-24h-86v-30h-22v84z" />
    <glyph glyph-name="sterling" unicode="&#xa3;" 
d="M125 691h-22v-84h22v30h86v24h-86v30zM103 591v-23h66l-66 -47v-22h108v23h-68l68 50v19h-108zM197.5 381.5q16.5 16.5 16.5 41.5t-16.5 41.5t-40.5 16.5t-40.5 -16.5t-16.5 -41.5t16.5 -41.5t40.5 -16.5t40.5 16.5zM182 447.5q10 -9.5 10 -24.5q0 -14 -10 -24t-25 -10
t-24.5 10t-9.5 24q0 15 9.5 24.5t24.5 9.5t25 -9.5zM125 313v42h-22v-65h108v23h-41v38h-22v-38h-23zM190 242v-42h-87v-24h108v66h-21zM191 129l20 8v26l-108 -44v-23l108 -42v25l-20 7v43zM170 94l-39 14l39 14v-28zM103 16v24h108v-24h-108zM211 -26v26l-41 -24
q-10 20 -31 20q-16 0 -26 -10.5t-10 -27.5v-44h108v23h-37v16zM124 -44q0 7 4 11.5t10 4.5q7 0 11 -4.5t4 -11.5v-19h-29v19zM103 -102h22v-30h86v-24h-86v-30h-22v84z" />
    <glyph glyph-name="yen" unicode="&#xa5;" 
d="M125 691h-22v-84h22v30h86v24h-86v30zM103 591v-23h66l-66 -47v-22h108v23h-68l68 50v19h-108zM197.5 381.5q16.5 16.5 16.5 41.5t-16.5 41.5t-40.5 16.5t-40.5 -16.5t-16.5 -41.5t16.5 -41.5t40.5 -16.5t40.5 16.5zM182 447.5q10 -9.5 10 -24.5q0 -14 -10 -24t-25 -10
t-24.5 10t-9.5 24q0 15 9.5 24.5t24.5 9.5t25 -9.5zM125 313v42h-22v-65h108v23h-41v38h-22v-38h-23zM190 242v-42h-87v-24h108v66h-21zM191 129l20 8v26l-108 -44v-23l108 -42v25l-20 7v43zM170 94l-39 14l39 14v-28zM103 16v24h108v-24h-108zM211 -26v26l-41 -24
q-10 20 -31 20q-16 0 -26 -10.5t-10 -27.5v-44h108v23h-37v16zM124 -44q0 7 4 11.5t10 4.5q7 0 11 -4.5t4 -11.5v-19h-29v19zM103 -102h22v-30h86v-24h-86v-30h-22v84z" />
    <glyph glyph-name="plus" unicode="+" 
d="M125 691h-22v-84h22v30h86v24h-86v30zM103 591v-23h66l-66 -47v-22h108v23h-68l68 50v19h-108zM197.5 381.5q16.5 16.5 16.5 41.5t-16.5 41.5t-40.5 16.5t-40.5 -16.5t-16.5 -41.5t16.5 -41.5t40.5 -16.5t40.5 16.5zM182 447.5q10 -9.5 10 -24.5q0 -14 -10 -24t-25 -10
t-24.5 10t-9.5 24q0 15 9.5 24.5t24.5 9.5t25 -9.5zM125 313v42h-22v-65h108v23h-41v38h-22v-38h-23zM190 242v-42h-87v-24h108v66h-21zM191 129l20 8v26l-108 -44v-23l108 -42v25l-20 7v43zM170 94l-39 14l39 14v-28zM103 16v24h108v-24h-108zM211 -26v26l-41 -24
q-10 20 -31 20q-16 0 -26 -10.5t-10 -27.5v-44h108v23h-37v16zM124 -44q0 7 4 11.5t10 4.5q7 0 11 -4.5t4 -11.5v-19h-29v19zM103 -102h22v-30h86v-24h-86v-30h-22v84z" />
    <glyph glyph-name="multiply" unicode="&#xd7;" 
d="M125 691h-22v-84h22v30h86v24h-86v30zM103 591v-23h66l-66 -47v-22h108v23h-68l68 50v19h-108zM197.5 381.5q16.5 16.5 16.5 41.5t-16.5 41.5t-40.5 16.5t-40.5 -16.5t-16.5 -41.5t16.5 -41.5t40.5 -16.5t40.5 16.5zM182 447.5q10 -9.5 10 -24.5q0 -14 -10 -24t-25 -10
t-24.5 10t-9.5 24q0 15 9.5 24.5t24.5 9.5t25 -9.5zM125 313v42h-22v-65h108v23h-41v38h-22v-38h-23zM190 242v-42h-87v-24h108v66h-21zM191 129l20 8v26l-108 -44v-23l108 -42v25l-20 7v43zM170 94l-39 14l39 14v-28zM103 16v24h108v-24h-108zM211 -26v26l-41 -24
q-10 20 -31 20q-16 0 -26 -10.5t-10 -27.5v-44h108v23h-37v16zM124 -44q0 7 4 11.5t10 4.5q7 0 11 -4.5t4 -11.5v-19h-29v19zM103 -102h22v-30h86v-24h-86v-30h-22v84z" />
    <glyph glyph-name="divide" unicode="&#xf7;" 
d="M125 691h-22v-84h22v30h86v24h-86v30zM103 591v-23h66l-66 -47v-22h108v23h-68l68 50v19h-108zM197.5 381.5q16.5 16.5 16.5 41.5t-16.5 41.5t-40.5 16.5t-40.5 -16.5t-16.5 -41.5t16.5 -41.5t40.5 -16.5t40.5 16.5zM182 447.5q10 -9.5 10 -24.5q0 -14 -10 -24t-25 -10
t-24.5 10t-9.5 24q0 15 9.5 24.5t24.5 9.5t25 -9.5zM125 313v42h-22v-65h108v23h-41v38h-22v-38h-23zM190 242v-42h-87v-24h108v66h-21zM191 129l20 8v26l-108 -44v-23l108 -42v25l-20 7v43zM170 94l-39 14l39 14v-28zM103 16v24h108v-24h-108zM211 -26v26l-41 -24
q-10 20 -31 20q-16 0 -26 -10.5t-10 -27.5v-44h108v23h-37v16zM124 -44q0 7 4 11.5t10 4.5q7 0 11 -4.5t4 -11.5v-19h-29v19zM103 -102h22v-30h86v-24h-86v-30h-22v84z" />
    <glyph glyph-name="equal" unicode="=" 
d="M125 691h-22v-84h22v30h86v24h-86v30zM103 591v-23h66l-66 -47v-22h108v23h-68l68 50v19h-108zM197.5 381.5q16.5 16.5 16.5 41.5t-16.5 41.5t-40.5 16.5t-40.5 -16.5t-16.5 -41.5t16.5 -41.5t40.5 -16.5t40.5 16.5zM182 447.5q10 -9.5 10 -24.5q0 -14 -10 -24t-25 -10
t-24.5 10t-9.5 24q0 15 9.5 24.5t24.5 9.5t25 -9.5zM125 313v42h-22v-65h108v23h-41v38h-22v-38h-23zM190 242v-42h-87v-24h108v66h-21zM191 129l20 8v26l-108 -44v-23l108 -42v25l-20 7v43zM170 94l-39 14l39 14v-28zM103 16v24h108v-24h-108zM211 -26v26l-41 -24
q-10 20 -31 20q-16 0 -26 -10.5t-10 -27.5v-44h108v23h-37v16zM124 -44q0 7 4 11.5t10 4.5q7 0 11 -4.5t4 -11.5v-19h-29v19zM103 -102h22v-30h86v-24h-86v-30h-22v84z" />
    <glyph glyph-name="greater" unicode="&#x3e;" 
d="M125 691h-22v-84h22v30h86v24h-86v30zM103 591v-23h66l-66 -47v-22h108v23h-68l68 50v19h-108zM197.5 381.5q16.5 16.5 16.5 41.5t-16.5 41.5t-40.5 16.5t-40.5 -16.5t-16.5 -41.5t16.5 -41.5t40.5 -16.5t40.5 16.5zM182 447.5q10 -9.5 10 -24.5q0 -14 -10 -24t-25 -10
t-24.5 10t-9.5 24q0 15 9.5 24.5t24.5 9.5t25 -9.5zM125 313v42h-22v-65h108v23h-41v38h-22v-38h-23zM190 242v-42h-87v-24h108v66h-21zM191 129l20 8v26l-108 -44v-23l108 -42v25l-20 7v43zM170 94l-39 14l39 14v-28zM103 16v24h108v-24h-108zM211 -26v26l-41 -24
q-10 20 -31 20q-16 0 -26 -10.5t-10 -27.5v-44h108v23h-37v16zM124 -44q0 7 4 11.5t10 4.5q7 0 11 -4.5t4 -11.5v-19h-29v19zM103 -102h22v-30h86v-24h-86v-30h-22v84z" />
    <glyph glyph-name="less" unicode="&#x3c;" 
d="M125 691h-22v-84h22v30h86v24h-86v30zM103 591v-23h66l-66 -47v-22h108v23h-68l68 50v19h-108zM197.5 381.5q16.5 16.5 16.5 41.5t-16.5 41.5t-40.5 16.5t-40.5 -16.5t-16.5 -41.5t16.5 -41.5t40.5 -16.5t40.5 16.5zM182 447.5q10 -9.5 10 -24.5q0 -14 -10 -24t-25 -10
t-24.5 10t-9.5 24q0 15 9.5 24.5t24.5 9.5t25 -9.5zM125 313v42h-22v-65h108v23h-41v38h-22v-38h-23zM190 242v-42h-87v-24h108v66h-21zM191 129l20 8v26l-108 -44v-23l108 -42v25l-20 7v43zM170 94l-39 14l39 14v-28zM103 16v24h108v-24h-108zM211 -26v26l-41 -24
q-10 20 -31 20q-16 0 -26 -10.5t-10 -27.5v-44h108v23h-37v16zM124 -44q0 7 4 11.5t10 4.5q7 0 11 -4.5t4 -11.5v-19h-29v19zM103 -102h22v-30h86v-24h-86v-30h-22v84z" />
    <glyph glyph-name="plusminus" unicode="&#xb1;" 
d="M125 691h-22v-84h22v30h86v24h-86v30zM103 591v-23h66l-66 -47v-22h108v23h-68l68 50v19h-108zM197.5 381.5q16.5 16.5 16.5 41.5t-16.5 41.5t-40.5 16.5t-40.5 -16.5t-16.5 -41.5t16.5 -41.5t40.5 -16.5t40.5 16.5zM182 447.5q10 -9.5 10 -24.5q0 -14 -10 -24t-25 -10
t-24.5 10t-9.5 24q0 15 9.5 24.5t24.5 9.5t25 -9.5zM125 313v42h-22v-65h108v23h-41v38h-22v-38h-23zM190 242v-42h-87v-24h108v66h-21zM191 129l20 8v26l-108 -44v-23l108 -42v25l-20 7v43zM170 94l-39 14l39 14v-28zM103 16v24h108v-24h-108zM211 -26v26l-41 -24
q-10 20 -31 20q-16 0 -26 -10.5t-10 -27.5v-44h108v23h-37v16zM124 -44q0 7 4 11.5t10 4.5q7 0 11 -4.5t4 -11.5v-19h-29v19zM103 -102h22v-30h86v-24h-86v-30h-22v84z" />
    <glyph glyph-name="asciitilde" unicode="~" 
d="M125 691h-22v-84h22v30h86v24h-86v30zM103 591v-23h66l-66 -47v-22h108v23h-68l68 50v19h-108zM197.5 381.5q16.5 16.5 16.5 41.5t-16.5 41.5t-40.5 16.5t-40.5 -16.5t-16.5 -41.5t16.5 -41.5t40.5 -16.5t40.5 16.5zM182 447.5q10 -9.5 10 -24.5q0 -14 -10 -24t-25 -10
t-24.5 10t-9.5 24q0 15 9.5 24.5t24.5 9.5t25 -9.5zM125 313v42h-22v-65h108v23h-41v38h-22v-38h-23zM190 242v-42h-87v-24h108v66h-21zM191 129l20 8v26l-108 -44v-23l108 -42v25l-20 7v43zM170 94l-39 14l39 14v-28zM103 16v24h108v-24h-108zM211 -26v26l-41 -24
q-10 20 -31 20q-16 0 -26 -10.5t-10 -27.5v-44h108v23h-37v16zM124 -44q0 7 4 11.5t10 4.5q7 0 11 -4.5t4 -11.5v-19h-29v19zM103 -102h22v-30h86v-24h-86v-30h-22v84z" />
    <glyph glyph-name="logicalnot" unicode="&#xac;" 
d="M125 691h-22v-84h22v30h86v24h-86v30zM103 591v-23h66l-66 -47v-22h108v23h-68l68 50v19h-108zM197.5 381.5q16.5 16.5 16.5 41.5t-16.5 41.5t-40.5 16.5t-40.5 -16.5t-16.5 -41.5t16.5 -41.5t40.5 -16.5t40.5 16.5zM182 447.5q10 -9.5 10 -24.5q0 -14 -10 -24t-25 -10
t-24.5 10t-9.5 24q0 15 9.5 24.5t24.5 9.5t25 -9.5zM125 313v42h-22v-65h108v23h-41v38h-22v-38h-23zM190 242v-42h-87v-24h108v66h-21zM191 129l20 8v26l-108 -44v-23l108 -42v25l-20 7v43zM170 94l-39 14l39 14v-28zM103 16v24h108v-24h-108zM211 -26v26l-41 -24
q-10 20 -31 20q-16 0 -26 -10.5t-10 -27.5v-44h108v23h-37v16zM124 -44q0 7 4 11.5t10 4.5q7 0 11 -4.5t4 -11.5v-19h-29v19zM103 -102h22v-30h86v-24h-86v-30h-22v84z" />
    <glyph glyph-name="asciicircum" unicode="^" 
d="M125 691h-22v-84h22v30h86v24h-86v30zM103 591v-23h66l-66 -47v-22h108v23h-68l68 50v19h-108zM197.5 381.5q16.5 16.5 16.5 41.5t-16.5 41.5t-40.5 16.5t-40.5 -16.5t-16.5 -41.5t16.5 -41.5t40.5 -16.5t40.5 16.5zM182 447.5q10 -9.5 10 -24.5q0 -14 -10 -24t-25 -10
t-24.5 10t-9.5 24q0 15 9.5 24.5t24.5 9.5t25 -9.5zM125 313v42h-22v-65h108v23h-41v38h-22v-38h-23zM190 242v-42h-87v-24h108v66h-21zM191 129l20 8v26l-108 -44v-23l108 -42v25l-20 7v43zM170 94l-39 14l39 14v-28zM103 16v24h108v-24h-108zM211 -26v26l-41 -24
q-10 20 -31 20q-16 0 -26 -10.5t-10 -27.5v-44h108v23h-37v16zM124 -44q0 7 4 11.5t10 4.5q7 0 11 -4.5t4 -11.5v-19h-29v19zM103 -102h22v-30h86v-24h-86v-30h-22v84z" />
    <glyph glyph-name="uni00B5" unicode="&#xb5;" 
d="M125 691h-22v-84h22v30h86v24h-86v30zM103 591v-23h66l-66 -47v-22h108v23h-68l68 50v19h-108zM197.5 381.5q16.5 16.5 16.5 41.5t-16.5 41.5t-40.5 16.5t-40.5 -16.5t-16.5 -41.5t16.5 -41.5t40.5 -16.5t40.5 16.5zM182 447.5q10 -9.5 10 -24.5q0 -14 -10 -24t-25 -10
t-24.5 10t-9.5 24q0 15 9.5 24.5t24.5 9.5t25 -9.5zM125 313v42h-22v-65h108v23h-41v38h-22v-38h-23zM190 242v-42h-87v-24h108v66h-21zM191 129l20 8v26l-108 -44v-23l108 -42v25l-20 7v43zM170 94l-39 14l39 14v-28zM103 16v24h108v-24h-108zM211 -26v26l-41 -24
q-10 20 -31 20q-16 0 -26 -10.5t-10 -27.5v-44h108v23h-37v16zM124 -44q0 7 4 11.5t10 4.5q7 0 11 -4.5t4 -11.5v-19h-29v19zM103 -102h22v-30h86v-24h-86v-30h-22v84z" />
    <glyph glyph-name="percent" unicode="%" 
d="M125 691h-22v-84h22v30h86v24h-86v30zM103 591v-23h66l-66 -47v-22h108v23h-68l68 50v19h-108zM197.5 381.5q16.5 16.5 16.5 41.5t-16.5 41.5t-40.5 16.5t-40.5 -16.5t-16.5 -41.5t16.5 -41.5t40.5 -16.5t40.5 16.5zM182 447.5q10 -9.5 10 -24.5q0 -14 -10 -24t-25 -10
t-24.5 10t-9.5 24q0 15 9.5 24.5t24.5 9.5t25 -9.5zM125 313v42h-22v-65h108v23h-41v38h-22v-38h-23zM190 242v-42h-87v-24h108v66h-21zM191 129l20 8v26l-108 -44v-23l108 -42v25l-20 7v43zM170 94l-39 14l39 14v-28zM103 16v24h108v-24h-108zM211 -26v26l-41 -24
q-10 20 -31 20q-16 0 -26 -10.5t-10 -27.5v-44h108v23h-37v16zM124 -44q0 7 4 11.5t10 4.5q7 0 11 -4.5t4 -11.5v-19h-29v19zM103 -102h22v-30h86v-24h-86v-30h-22v84z" />
    <glyph glyph-name="perthousand" unicode="&#x2030;" 
d="M125 691h-22v-84h22v30h86v24h-86v30zM103 591v-23h66l-66 -47v-22h108v23h-68l68 50v19h-108zM197.5 381.5q16.5 16.5 16.5 41.5t-16.5 41.5t-40.5 16.5t-40.5 -16.5t-16.5 -41.5t16.5 -41.5t40.5 -16.5t40.5 16.5zM182 447.5q10 -9.5 10 -24.5q0 -14 -10 -24t-25 -10
t-24.5 10t-9.5 24q0 15 9.5 24.5t24.5 9.5t25 -9.5zM125 313v42h-22v-65h108v23h-41v38h-22v-38h-23zM190 242v-42h-87v-24h108v66h-21zM191 129l20 8v26l-108 -44v-23l108 -42v25l-20 7v43zM170 94l-39 14l39 14v-28zM103 16v24h108v-24h-108zM211 -26v26l-41 -24
q-10 20 -31 20q-16 0 -26 -10.5t-10 -27.5v-44h108v23h-37v16zM124 -44q0 7 4 11.5t10 4.5q7 0 11 -4.5t4 -11.5v-19h-29v19zM103 -102h22v-30h86v-24h-86v-30h-22v84z" />
    <glyph glyph-name="at" unicode="@" 
d="M125 691h-22v-84h22v30h86v24h-86v30zM103 591v-23h66l-66 -47v-22h108v23h-68l68 50v19h-108zM197.5 381.5q16.5 16.5 16.5 41.5t-16.5 41.5t-40.5 16.5t-40.5 -16.5t-16.5 -41.5t16.5 -41.5t40.5 -16.5t40.5 16.5zM182 447.5q10 -9.5 10 -24.5q0 -14 -10 -24t-25 -10
t-24.5 10t-9.5 24q0 15 9.5 24.5t24.5 9.5t25 -9.5zM125 313v42h-22v-65h108v23h-41v38h-22v-38h-23zM190 242v-42h-87v-24h108v66h-21zM191 129l20 8v26l-108 -44v-23l108 -42v25l-20 7v43zM170 94l-39 14l39 14v-28zM103 16v24h108v-24h-108zM211 -26v26l-41 -24
q-10 20 -31 20q-16 0 -26 -10.5t-10 -27.5v-44h108v23h-37v16zM124 -44q0 7 4 11.5t10 4.5q7 0 11 -4.5t4 -11.5v-19h-29v19zM103 -102h22v-30h86v-24h-86v-30h-22v84z" />
    <glyph glyph-name="ampersand" unicode="&#x26;" 
d="M125 691h-22v-84h22v30h86v24h-86v30zM103 591v-23h66l-66 -47v-22h108v23h-68l68 50v19h-108zM197.5 381.5q16.5 16.5 16.5 41.5t-16.5 41.5t-40.5 16.5t-40.5 -16.5t-16.5 -41.5t16.5 -41.5t40.5 -16.5t40.5 16.5zM182 447.5q10 -9.5 10 -24.5q0 -14 -10 -24t-25 -10
t-24.5 10t-9.5 24q0 15 9.5 24.5t24.5 9.5t25 -9.5zM125 313v42h-22v-65h108v23h-41v38h-22v-38h-23zM190 242v-42h-87v-24h108v66h-21zM191 129l20 8v26l-108 -44v-23l108 -42v25l-20 7v43zM170 94l-39 14l39 14v-28zM103 16v24h108v-24h-108zM211 -26v26l-41 -24
q-10 20 -31 20q-16 0 -26 -10.5t-10 -27.5v-44h108v23h-37v16zM124 -44q0 7 4 11.5t10 4.5q7 0 11 -4.5t4 -11.5v-19h-29v19zM103 -102h22v-30h86v-24h-86v-30h-22v84z" />
    <glyph glyph-name="paragraph" unicode="&#xb6;" 
d="M125 691h-22v-84h22v30h86v24h-86v30zM103 591v-23h66l-66 -47v-22h108v23h-68l68 50v19h-108zM197.5 381.5q16.5 16.5 16.5 41.5t-16.5 41.5t-40.5 16.5t-40.5 -16.5t-16.5 -41.5t16.5 -41.5t40.5 -16.5t40.5 16.5zM182 447.5q10 -9.5 10 -24.5q0 -14 -10 -24t-25 -10
t-24.5 10t-9.5 24q0 15 9.5 24.5t24.5 9.5t25 -9.5zM125 313v42h-22v-65h108v23h-41v38h-22v-38h-23zM190 242v-42h-87v-24h108v66h-21zM191 129l20 8v26l-108 -44v-23l108 -42v25l-20 7v43zM170 94l-39 14l39 14v-28zM103 16v24h108v-24h-108zM211 -26v26l-41 -24
q-10 20 -31 20q-16 0 -26 -10.5t-10 -27.5v-44h108v23h-37v16zM124 -44q0 7 4 11.5t10 4.5q7 0 11 -4.5t4 -11.5v-19h-29v19zM103 -102h22v-30h86v-24h-86v-30h-22v84z" />
    <glyph glyph-name="section" unicode="&#xa7;" 
d="M125 691h-22v-84h22v30h86v24h-86v30zM103 591v-23h66l-66 -47v-22h108v23h-68l68 50v19h-108zM197.5 381.5q16.5 16.5 16.5 41.5t-16.5 41.5t-40.5 16.5t-40.5 -16.5t-16.5 -41.5t16.5 -41.5t40.5 -16.5t40.5 16.5zM182 447.5q10 -9.5 10 -24.5q0 -14 -10 -24t-25 -10
t-24.5 10t-9.5 24q0 15 9.5 24.5t24.5 9.5t25 -9.5zM125 313v42h-22v-65h108v23h-41v38h-22v-38h-23zM190 242v-42h-87v-24h108v66h-21zM191 129l20 8v26l-108 -44v-23l108 -42v25l-20 7v43zM170 94l-39 14l39 14v-28zM103 16v24h108v-24h-108zM211 -26v26l-41 -24
q-10 20 -31 20q-16 0 -26 -10.5t-10 -27.5v-44h108v23h-37v16zM124 -44q0 7 4 11.5t10 4.5q7 0 11 -4.5t4 -11.5v-19h-29v19zM103 -102h22v-30h86v-24h-86v-30h-22v84z" />
    <glyph glyph-name="copyright" unicode="&#xa9;" 
d="M125 691h-22v-84h22v30h86v24h-86v30zM103 591v-23h66l-66 -47v-22h108v23h-68l68 50v19h-108zM197.5 381.5q16.5 16.5 16.5 41.5t-16.5 41.5t-40.5 16.5t-40.5 -16.5t-16.5 -41.5t16.5 -41.5t40.5 -16.5t40.5 16.5zM182 447.5q10 -9.5 10 -24.5q0 -14 -10 -24t-25 -10
t-24.5 10t-9.5 24q0 15 9.5 24.5t24.5 9.5t25 -9.5zM125 313v42h-22v-65h108v23h-41v38h-22v-38h-23zM190 242v-42h-87v-24h108v66h-21zM191 129l20 8v26l-108 -44v-23l108 -42v25l-20 7v43zM170 94l-39 14l39 14v-28zM103 16v24h108v-24h-108zM211 -26v26l-41 -24
q-10 20 -31 20q-16 0 -26 -10.5t-10 -27.5v-44h108v23h-37v16zM124 -44q0 7 4 11.5t10 4.5q7 0 11 -4.5t4 -11.5v-19h-29v19zM103 -102h22v-30h86v-24h-86v-30h-22v84z" />
    <glyph glyph-name="registered" unicode="&#xae;" 
d="M125 691h-22v-84h22v30h86v24h-86v30zM103 591v-23h66l-66 -47v-22h108v23h-68l68 50v19h-108zM197.5 381.5q16.5 16.5 16.5 41.5t-16.5 41.5t-40.5 16.5t-40.5 -16.5t-16.5 -41.5t16.5 -41.5t40.5 -16.5t40.5 16.5zM182 447.5q10 -9.5 10 -24.5q0 -14 -10 -24t-25 -10
t-24.5 10t-9.5 24q0 15 9.5 24.5t24.5 9.5t25 -9.5zM125 313v42h-22v-65h108v23h-41v38h-22v-38h-23zM190 242v-42h-87v-24h108v66h-21zM191 129l20 8v26l-108 -44v-23l108 -42v25l-20 7v43zM170 94l-39 14l39 14v-28zM103 16v24h108v-24h-108zM211 -26v26l-41 -24
q-10 20 -31 20q-16 0 -26 -10.5t-10 -27.5v-44h108v23h-37v16zM124 -44q0 7 4 11.5t10 4.5q7 0 11 -4.5t4 -11.5v-19h-29v19zM103 -102h22v-30h86v-24h-86v-30h-22v84z" />
    <glyph glyph-name="trademark" unicode="&#x2122;" 
d="M125 691h-22v-84h22v30h86v24h-86v30zM103 591v-23h66l-66 -47v-22h108v23h-68l68 50v19h-108zM197.5 381.5q16.5 16.5 16.5 41.5t-16.5 41.5t-40.5 16.5t-40.5 -16.5t-16.5 -41.5t16.5 -41.5t40.5 -16.5t40.5 16.5zM182 447.5q10 -9.5 10 -24.5q0 -14 -10 -24t-25 -10
t-24.5 10t-9.5 24q0 15 9.5 24.5t24.5 9.5t25 -9.5zM125 313v42h-22v-65h108v23h-41v38h-22v-38h-23zM190 242v-42h-87v-24h108v66h-21zM191 129l20 8v26l-108 -44v-23l108 -42v25l-20 7v43zM170 94l-39 14l39 14v-28zM103 16v24h108v-24h-108zM211 -26v26l-41 -24
q-10 20 -31 20q-16 0 -26 -10.5t-10 -27.5v-44h108v23h-37v16zM124 -44q0 7 4 11.5t10 4.5q7 0 11 -4.5t4 -11.5v-19h-29v19zM103 -102h22v-30h86v-24h-86v-30h-22v84z" />
    <glyph glyph-name="degree" unicode="&#xb0;" 
d="M125 691h-22v-84h22v30h86v24h-86v30zM103 591v-23h66l-66 -47v-22h108v23h-68l68 50v19h-108zM197.5 381.5q16.5 16.5 16.5 41.5t-16.5 41.5t-40.5 16.5t-40.5 -16.5t-16.5 -41.5t16.5 -41.5t40.5 -16.5t40.5 16.5zM182 447.5q10 -9.5 10 -24.5q0 -14 -10 -24t-25 -10
t-24.5 10t-9.5 24q0 15 9.5 24.5t24.5 9.5t25 -9.5zM125 313v42h-22v-65h108v23h-41v38h-22v-38h-23zM190 242v-42h-87v-24h108v66h-21zM191 129l20 8v26l-108 -44v-23l108 -42v25l-20 7v43zM170 94l-39 14l39 14v-28zM103 16v24h108v-24h-108zM211 -26v26l-41 -24
q-10 20 -31 20q-16 0 -26 -10.5t-10 -27.5v-44h108v23h-37v16zM124 -44q0 7 4 11.5t10 4.5q7 0 11 -4.5t4 -11.5v-19h-29v19zM103 -102h22v-30h86v-24h-86v-30h-22v84z" />
    <glyph glyph-name="bar" unicode="|" 
d="M125 691h-22v-84h22v30h86v24h-86v30zM103 591v-23h66l-66 -47v-22h108v23h-68l68 50v19h-108zM197.5 381.5q16.5 16.5 16.5 41.5t-16.5 41.5t-40.5 16.5t-40.5 -16.5t-16.5 -41.5t16.5 -41.5t40.5 -16.5t40.5 16.5zM182 447.5q10 -9.5 10 -24.5q0 -14 -10 -24t-25 -10
t-24.5 10t-9.5 24q0 15 9.5 24.5t24.5 9.5t25 -9.5zM125 313v42h-22v-65h108v23h-41v38h-22v-38h-23zM190 242v-42h-87v-24h108v66h-21zM191 129l20 8v26l-108 -44v-23l108 -42v25l-20 7v43zM170 94l-39 14l39 14v-28zM103 16v24h108v-24h-108zM211 -26v26l-41 -24
q-10 20 -31 20q-16 0 -26 -10.5t-10 -27.5v-44h108v23h-37v16zM124 -44q0 7 4 11.5t10 4.5q7 0 11 -4.5t4 -11.5v-19h-29v19zM103 -102h22v-30h86v-24h-86v-30h-22v84z" />
    <glyph glyph-name="brokenbar" unicode="&#xa6;" 
d="M125 691h-22v-84h22v30h86v24h-86v30zM103 591v-23h66l-66 -47v-22h108v23h-68l68 50v19h-108zM197.5 381.5q16.5 16.5 16.5 41.5t-16.5 41.5t-40.5 16.5t-40.5 -16.5t-16.5 -41.5t16.5 -41.5t40.5 -16.5t40.5 16.5zM182 447.5q10 -9.5 10 -24.5q0 -14 -10 -24t-25 -10
t-24.5 10t-9.5 24q0 15 9.5 24.5t24.5 9.5t25 -9.5zM125 313v42h-22v-65h108v23h-41v38h-22v-38h-23zM190 242v-42h-87v-24h108v66h-21zM191 129l20 8v26l-108 -44v-23l108 -42v25l-20 7v43zM170 94l-39 14l39 14v-28zM103 16v24h108v-24h-108zM211 -26v26l-41 -24
q-10 20 -31 20q-16 0 -26 -10.5t-10 -27.5v-44h108v23h-37v16zM124 -44q0 7 4 11.5t10 4.5q7 0 11 -4.5t4 -11.5v-19h-29v19zM103 -102h22v-30h86v-24h-86v-30h-22v84z" />
    <glyph glyph-name="dagger" unicode="&#x2020;" 
d="M125 691h-22v-84h22v30h86v24h-86v30zM103 591v-23h66l-66 -47v-22h108v23h-68l68 50v19h-108zM197.5 381.5q16.5 16.5 16.5 41.5t-16.5 41.5t-40.5 16.5t-40.5 -16.5t-16.5 -41.5t16.5 -41.5t40.5 -16.5t40.5 16.5zM182 447.5q10 -9.5 10 -24.5q0 -14 -10 -24t-25 -10
t-24.5 10t-9.5 24q0 15 9.5 24.5t24.5 9.5t25 -9.5zM125 313v42h-22v-65h108v23h-41v38h-22v-38h-23zM190 242v-42h-87v-24h108v66h-21zM191 129l20 8v26l-108 -44v-23l108 -42v25l-20 7v43zM170 94l-39 14l39 14v-28zM103 16v24h108v-24h-108zM211 -26v26l-41 -24
q-10 20 -31 20q-16 0 -26 -10.5t-10 -27.5v-44h108v23h-37v16zM124 -44q0 7 4 11.5t10 4.5q7 0 11 -4.5t4 -11.5v-19h-29v19zM103 -102h22v-30h86v-24h-86v-30h-22v84z" />
    <glyph glyph-name="daggerdbl" unicode="&#x2021;" 
d="M125 691h-22v-84h22v30h86v24h-86v30zM103 591v-23h66l-66 -47v-22h108v23h-68l68 50v19h-108zM197.5 381.5q16.5 16.5 16.5 41.5t-16.5 41.5t-40.5 16.5t-40.5 -16.5t-16.5 -41.5t16.5 -41.5t40.5 -16.5t40.5 16.5zM182 447.5q10 -9.5 10 -24.5q0 -14 -10 -24t-25 -10
t-24.5 10t-9.5 24q0 15 9.5 24.5t24.5 9.5t25 -9.5zM125 313v42h-22v-65h108v23h-41v38h-22v-38h-23zM190 242v-42h-87v-24h108v66h-21zM191 129l20 8v26l-108 -44v-23l108 -42v25l-20 7v43zM170 94l-39 14l39 14v-28zM103 16v24h108v-24h-108zM211 -26v26l-41 -24
q-10 20 -31 20q-16 0 -26 -10.5t-10 -27.5v-44h108v23h-37v16zM124 -44q0 7 4 11.5t10 4.5q7 0 11 -4.5t4 -11.5v-19h-29v19zM103 -102h22v-30h86v-24h-86v-30h-22v84z" />
    <glyph glyph-name="dieresis" unicode="&#xa8;" 
d="M125 691h-22v-84h22v30h86v24h-86v30zM103 591v-23h66l-66 -47v-22h108v23h-68l68 50v19h-108zM197.5 381.5q16.5 16.5 16.5 41.5t-16.5 41.5t-40.5 16.5t-40.5 -16.5t-16.5 -41.5t16.5 -41.5t40.5 -16.5t40.5 16.5zM182 447.5q10 -9.5 10 -24.5q0 -14 -10 -24t-25 -10
t-24.5 10t-9.5 24q0 15 9.5 24.5t24.5 9.5t25 -9.5zM125 313v42h-22v-65h108v23h-41v38h-22v-38h-23zM190 242v-42h-87v-24h108v66h-21zM191 129l20 8v26l-108 -44v-23l108 -42v25l-20 7v43zM170 94l-39 14l39 14v-28zM103 16v24h108v-24h-108zM211 -26v26l-41 -24
q-10 20 -31 20q-16 0 -26 -10.5t-10 -27.5v-44h108v23h-37v16zM124 -44q0 7 4 11.5t10 4.5q7 0 11 -4.5t4 -11.5v-19h-29v19zM103 -102h22v-30h86v-24h-86v-30h-22v84z" />
    <glyph glyph-name="grave" unicode="`" 
d="M125 691h-22v-84h22v30h86v24h-86v30zM103 591v-23h66l-66 -47v-22h108v23h-68l68 50v19h-108zM197.5 381.5q16.5 16.5 16.5 41.5t-16.5 41.5t-40.5 16.5t-40.5 -16.5t-16.5 -41.5t16.5 -41.5t40.5 -16.5t40.5 16.5zM182 447.5q10 -9.5 10 -24.5q0 -14 -10 -24t-25 -10
t-24.5 10t-9.5 24q0 15 9.5 24.5t24.5 9.5t25 -9.5zM125 313v42h-22v-65h108v23h-41v38h-22v-38h-23zM190 242v-42h-87v-24h108v66h-21zM191 129l20 8v26l-108 -44v-23l108 -42v25l-20 7v43zM170 94l-39 14l39 14v-28zM103 16v24h108v-24h-108zM211 -26v26l-41 -24
q-10 20 -31 20q-16 0 -26 -10.5t-10 -27.5v-44h108v23h-37v16zM124 -44q0 7 4 11.5t10 4.5q7 0 11 -4.5t4 -11.5v-19h-29v19zM103 -102h22v-30h86v-24h-86v-30h-22v84z" />
    <glyph glyph-name="acute" unicode="&#xb4;" 
d="M125 691h-22v-84h22v30h86v24h-86v30zM103 591v-23h66l-66 -47v-22h108v23h-68l68 50v19h-108zM197.5 381.5q16.5 16.5 16.5 41.5t-16.5 41.5t-40.5 16.5t-40.5 -16.5t-16.5 -41.5t16.5 -41.5t40.5 -16.5t40.5 16.5zM182 447.5q10 -9.5 10 -24.5q0 -14 -10 -24t-25 -10
t-24.5 10t-9.5 24q0 15 9.5 24.5t24.5 9.5t25 -9.5zM125 313v42h-22v-65h108v23h-41v38h-22v-38h-23zM190 242v-42h-87v-24h108v66h-21zM191 129l20 8v26l-108 -44v-23l108 -42v25l-20 7v43zM170 94l-39 14l39 14v-28zM103 16v24h108v-24h-108zM211 -26v26l-41 -24
q-10 20 -31 20q-16 0 -26 -10.5t-10 -27.5v-44h108v23h-37v16zM124 -44q0 7 4 11.5t10 4.5q7 0 11 -4.5t4 -11.5v-19h-29v19zM103 -102h22v-30h86v-24h-86v-30h-22v84z" />
    <glyph glyph-name="circumflex" unicode="&#x2c6;" 
d="M125 691h-22v-84h22v30h86v24h-86v30zM103 591v-23h66l-66 -47v-22h108v23h-68l68 50v19h-108zM197.5 381.5q16.5 16.5 16.5 41.5t-16.5 41.5t-40.5 16.5t-40.5 -16.5t-16.5 -41.5t16.5 -41.5t40.5 -16.5t40.5 16.5zM182 447.5q10 -9.5 10 -24.5q0 -14 -10 -24t-25 -10
t-24.5 10t-9.5 24q0 15 9.5 24.5t24.5 9.5t25 -9.5zM125 313v42h-22v-65h108v23h-41v38h-22v-38h-23zM190 242v-42h-87v-24h108v66h-21zM191 129l20 8v26l-108 -44v-23l108 -42v25l-20 7v43zM170 94l-39 14l39 14v-28zM103 16v24h108v-24h-108zM211 -26v26l-41 -24
q-10 20 -31 20q-16 0 -26 -10.5t-10 -27.5v-44h108v23h-37v16zM124 -44q0 7 4 11.5t10 4.5q7 0 11 -4.5t4 -11.5v-19h-29v19zM103 -102h22v-30h86v-24h-86v-30h-22v84z" />
    <glyph glyph-name="tilde" unicode="&#x2dc;" 
d="M125 691h-22v-84h22v30h86v24h-86v30zM103 591v-23h66l-66 -47v-22h108v23h-68l68 50v19h-108zM197.5 381.5q16.5 16.5 16.5 41.5t-16.5 41.5t-40.5 16.5t-40.5 -16.5t-16.5 -41.5t16.5 -41.5t40.5 -16.5t40.5 16.5zM182 447.5q10 -9.5 10 -24.5q0 -14 -10 -24t-25 -10
t-24.5 10t-9.5 24q0 15 9.5 24.5t24.5 9.5t25 -9.5zM125 313v42h-22v-65h108v23h-41v38h-22v-38h-23zM190 242v-42h-87v-24h108v66h-21zM191 129l20 8v26l-108 -44v-23l108 -42v25l-20 7v43zM170 94l-39 14l39 14v-28zM103 16v24h108v-24h-108zM211 -26v26l-41 -24
q-10 20 -31 20q-16 0 -26 -10.5t-10 -27.5v-44h108v23h-37v16zM124 -44q0 7 4 11.5t10 4.5q7 0 11 -4.5t4 -11.5v-19h-29v19zM103 -102h22v-30h86v-24h-86v-30h-22v84z" />
    <glyph glyph-name="macron" unicode="&#xaf;" 
d="M125 691h-22v-84h22v30h86v24h-86v30zM103 591v-23h66l-66 -47v-22h108v23h-68l68 50v19h-108zM197.5 381.5q16.5 16.5 16.5 41.5t-16.5 41.5t-40.5 16.5t-40.5 -16.5t-16.5 -41.5t16.5 -41.5t40.5 -16.5t40.5 16.5zM182 447.5q10 -9.5 10 -24.5q0 -14 -10 -24t-25 -10
t-24.5 10t-9.5 24q0 15 9.5 24.5t24.5 9.5t25 -9.5zM125 313v42h-22v-65h108v23h-41v38h-22v-38h-23zM190 242v-42h-87v-24h108v66h-21zM191 129l20 8v26l-108 -44v-23l108 -42v25l-20 7v43zM170 94l-39 14l39 14v-28zM103 16v24h108v-24h-108zM211 -26v26l-41 -24
q-10 20 -31 20q-16 0 -26 -10.5t-10 -27.5v-44h108v23h-37v16zM124 -44q0 7 4 11.5t10 4.5q7 0 11 -4.5t4 -11.5v-19h-29v19zM103 -102h22v-30h86v-24h-86v-30h-22v84z" />
    <glyph glyph-name="cedilla" unicode="&#xb8;" 
d="M125 691h-22v-84h22v30h86v24h-86v30zM103 591v-23h66l-66 -47v-22h108v23h-68l68 50v19h-108zM197.5 381.5q16.5 16.5 16.5 41.5t-16.5 41.5t-40.5 16.5t-40.5 -16.5t-16.5 -41.5t16.5 -41.5t40.5 -16.5t40.5 16.5zM182 447.5q10 -9.5 10 -24.5q0 -14 -10 -24t-25 -10
t-24.5 10t-9.5 24q0 15 9.5 24.5t24.5 9.5t25 -9.5zM125 313v42h-22v-65h108v23h-41v38h-22v-38h-23zM190 242v-42h-87v-24h108v66h-21zM191 129l20 8v26l-108 -44v-23l108 -42v25l-20 7v43zM170 94l-39 14l39 14v-28zM103 16v24h108v-24h-108zM211 -26v26l-41 -24
q-10 20 -31 20q-16 0 -26 -10.5t-10 -27.5v-44h108v23h-37v16zM124 -44q0 7 4 11.5t10 4.5q7 0 11 -4.5t4 -11.5v-19h-29v19zM103 -102h22v-30h86v-24h-86v-30h-22v84z" />
  </font>
</defs>
</svg>
